<svg xmlns="http://www.w3.org/2000/svg">
<defs>
<font id="BlankRiver" horiz-adv-x="930" >
  <font-face 
    font-family="Blank River"
    font-weight="400"
    font-stretch="normal"
    units-per-em="2048"
    panose-1="2 0 6 0 0 0 0 0 0 0"
    ascent="1638"
    descent="-410"
    x-height="1048"
    cap-height="1501"
    bbox="-770 -824 4119 1843"
    underline-thickness="150"
    underline-position="-442"
    unicode-range="U+001D-E00B"
  />
<missing-glyph horiz-adv-x="1202" 
d="M793 684q37 0 41 38q0 33 -41 36q-28 0 -40 -22q-2 -8 -2 -12q0 -28 28 -38q8 -2 14 -2zM484 300q34 0 41 32v6q0 31 -41 36q-29 0 -41 -25l-1 -12q0 -26 26 -35q8 -2 16 -2zM483 1038q36 0 42 33q0 30 -28 39q-6 2 -9.5 2t-3.5 1l-4 -1q-34 0 -38 -35q0 -34 41 -39z
M793 1013q37 0 41 38q0 31 -42 37q-32 -3 -41 -27v-14q0 -23 28 -32q9 -2 14 -2zM519 822q12 0 17 22q0 22 -19 31h-17v-18q0 -35 19 -35zM571 567h-240q-2 0 -2 32q0 31 2 31h240q1 0 1 -31q0 -32 -1 -32zM799 404h-94q-1 0 -1 32q0 31 1 31h79q46 0 46 28q0 34 -37 34h-88
q-1 0 -1 31q0 32 1 32h175q1 -1 1 -30q0 -30 -1 -30h-17q21 -22 21 -54q0 -42 -34 -63q-18 -11 -51 -11zM571 465h-240q-2 0 -2 31q0 32 2 32h240q1 -1 1 -32t-1 -31zM483 236q-52 0 -80 50q-11 23 -11 52q0 70 63 95q16 4 25 4q56 0 84 -50q11 -23 11 -51q0 -70 -64 -95
q-9 -3 -28 -5zM734 241q-24 0 -24 1v25h-45q-1 0 -1 31t1 31h45v39q0 2 24 2q23 0 23 -2v-39h58q21 0 21 19q-2 10 -6 19q39 14 44 15q10 -19 10 -45q0 -48 -37 -65q-14 -5 -30 -5h-60v-25q0 -1 -23 -1zM866 67h-2q-38 17 -41 20q16 30 16 63q-1 24 -12 24q-10 0 -14 -41
q-3 -23 -11 -40q-15 -22 -46 -22q-39 0 -53 59q-2 14 -2 28q0 41 15 69q42 -18 42 -19q-12 -23 -13 -52q2 -27 12 -27t13.5 30.5t11.5 48.5q16 25 43 25q37 0 53 -45q6 -21 6 -42q0 -45 -18 -79zM486 42q-60 0 -87 57q-7 23 -7 44q0 61 48 84q6 -8 26 -49q-24 -13 -24 -39
q0 -15 17 -28q12 -6 24 -6q32 0 41 29q1 4 1 9q0 21 -23 36q24 48 25 48q48 -24 48 -83q0 -72 -61 -97q-14 -5 -28 -5zM571 976h-240q-2 0 -2 32t2 32h78q-17 18 -17 50q0 59 60 81q15 4 31 4q57 0 84 -48q8 -18 8 -41q0 -29 -19 -49h15q1 0 1 -30q0 -31 -1 -31zM792 950

<glyph glyph-name="c_1" unicode="c_&#x31;" horiz-adv-x="3254" 
d="M263 -20h-17q-17 18 -88 42q-57 20 -57 27q0 3 3 5q17 13 33 27q51 45 111 78q113 51 490 112t861 106.5t885 45.5q521 0 653 -91q14 -9 14 -27q-3 -158 -6 -176q-4 -25 -27 -25q-28 0 -97 33q-42 17 -63.5 23.5t-21.5 11.5t12 13q8 4 10 10q-17 46 -318 46
q-341 0 -878.5 -49t-973 -109.5t-525.5 -102.5z" />
    <glyph glyph-name="c_2" unicode="c_&#x32;" horiz-adv-x="2714" 
d="M360 115q-13 0 -37 3q-18 3 -45 6q-79 9 -150 44q-25 12 -25 28t19 36t48 46q25 22 54 50q89 84 287 136.5t458 76.5t526 24q268 0 506 -21.5t389.5 -61.5t169.5 -94q19 -68 51 -130v-23q-21 -13 -64 -13q-45 0 -95 9q-92 15 -92 25q0 4 15 16q22 19 22 26
q0 39 -258.5 71t-604.5 32q-222 0 -450 -18q-505 -40 -741 -173q-8 -4 -8 -7q11 -25 22.5 -48.5t11.5 -32.5q0 -7 -9 -7z" />
    <glyph glyph-name="c_3" unicode="c_&#x33;" horiz-adv-x="3430" 
d="M1365 -67h-454q-7 2 -71 4q-336 6 -535 54q-203 49 -203 145q0 36 32 81q74 102 94 124q110 125 480 231q276 78 632 126t718 48q502 0 858 -99q136 -38 202 -66t92.5 -56.5t47.5 -67.5q16 -32 47 -77q22 -28 22 -50q0 -11 -4 -27q-1 -3 -21.5 -7t-50 -7t-58.5 -3
q-68 0 -68 22l2 16q0 92 -333 176q-281 68 -570 79q-105 5 -220 5q-222 0 -387 -15q-597 -55 -979 -199q-163 -62 -243.5 -114t-80.5 -75q0 -7 8 -10q219 -80 790 -80q165 0 209.5 0.5t55.5 0.5q375 10 602 79q6 2 6 6q0 14 -39 40q-73 49 -170 72q-74 17 -136 26
q-88 13 -88 21q0 11 35 54q23 29 62 83q4 4 24 4q54 0 182.5 -29t215.5 -89q28 -22 45 -58q11 -28 50 -82q37 -46 37 -82q0 -27 -24 -54q-83 -79 -365 -113q-160 -20 -193 -20q-176 -15 -249 -15q-3 0 -7 -2z" />
    <glyph glyph-name="c_4" unicode="c_&#x34;" horiz-adv-x="2478" 
d="M336 -49q-16 0 -34.5 2t-35.5 5t-23 8l-32 25q-60 42 -108 97q-2 3 -2 6q0 33 198.5 90.5t469.5 107.5t511 65q85 5 241 5q256 -7 287 -21q18 -9 18 -28q0 -16 -8 -42q-10 -33 -17 -88q-2 -14 -38 -14q-33 0 -92 7q-176 16 -306 16q-274 0 -568 -57q-166 -32 -392 -100
q-42 -14 -46 -18t-4 -17q-6 -41 -9 -45t-10 -4zM2212 107q-9 0 -14.5 8t-20.5 19q-40 26 -182 40q-14 0 -23 -4t-18 -4q-7 0 -15.5 5t-8.5 11q0 4 3 12q13 56 13 142q4 14 43 14q49 0 129 -20.5t152.5 -60t103.5 -96.5v-18q-144 -48 -162 -48z" />
    <glyph glyph-name="c_5" unicode="c_&#x35;" horiz-adv-x="2640" 
d="M604 -126q-10 0 -12 3t-3 11q-14 74 -29 107q-10 20 -10 32q0 14 23 19.5t84 12t173 23.5q462 69 697 79q12 0 60 3q42 0 102 -11.5t106 -27t46 -27.5q0 -3 -3 -5q-52 -39 -80 -62q-25 -20 -40 -30.5t-28 -14t-33 -3.5l-86 1q-67 0 -196 -9t-355 -40.5t-315 -46.5
q-80 -14 -101 -14zM144 52q-20 0 -25 17t-8 58q-2 52 -8 83q-2 7 -2 12q0 8 9 13q15 9 105 26q82 16 268 58q293 69 621.5 134t619.5 90q150 15 292 15q169 0 285 -19t176 -44.5t60 -45.5q0 -6 -5 -11q-17 -17 -34 -36q-33 -36 -69 -67q-42 -38 -85 -43q-7 0 -9 24
q-3 29 -6 32.5t-33 10.5q-90 18 -237 18q-245 0 -552.5 -47t-600.5 -109t-507 -112q-76 -18 -164 -37q-71 -20 -91 -20z" />
    <glyph glyph-name="c_6" unicode="c_&#x36;" horiz-adv-x="2728" 
d="M431 -241q-16 0 -20 10.5t-6 31.5q-3 28 -16 79q-9 40 -9 52q0 7 3 9q8 5 66 18q269 72 275 78q-402 0 -457 1q-102 2 -120 19q-10 9 -12 23q-12 63 -22 99.5t-10 56.5q0 22 18 34t66 33q228 101 527 168q507 113 1066 158q6 0 9 1h11v1q12 0 12 1h12l1 1h12v1
q11 0 20.5 1t15.5 1q1 0 1 1h12l1 1q78 6 363 6q3 -1 41 -5q335 -35 335 -65q0 -19 -73 -102q-27 -33 -45.5 -48t-51 -25.5t-100 -27t-186.5 -48.5l-5 -1q-15 0 -20.5 21t-9 48.5t-9 49.5t-21.5 22q-281 -3 -605.5 -47.5t-590.5 -100.5t-373 -93l150 1q263 0 333.5 -22
t125.5 -26q36 -3 57.5 -9t21.5 -24q0 -30 -75 -114q-36 -43 -72 -68q-60 -41 -486 -158q-133 -43 -160 -43z" />
    <glyph glyph-name="c_7" unicode="c_&#x37;" horiz-adv-x="3312" 
d="M1358 -179q-16 0 -29.5 9.5t-13.5 23.5q1 7 16 59q18 63 39 108q50 111 421 229q331 106 700 183l16 3v1q-397 0 -773 -38q-566 -57 -1241 -182q-311 -56 -369 -56q-11 0 -18 1q-3 1 -3 10q0 20 13 63q32 112 66 118q285 55 957 149q961 134 1515 134q297 0 442 -44
q13 -4 23.5 -16t43.5 -66q45 -69 45 -76q0 -24 -67.5 -47t-182.5 -47.5t-261 -51.5q-212 -39 -444 -90t-432 -120.5t-316 -162.5q-10 -9 -10 -15q0 -5 11.5 -22.5t11.5 -23.5t-21 -6q-62 -7 -126 -25q-7 -2 -13 -2z" />
    <glyph glyph-name="c_8" unicode="c_&#x38;" horiz-adv-x="3021" 
d="M1558 -221q-80 0 -80 18q6 31 10 57q10 67 22 103t41 50q172 80 368 127q-34 0 -873 -70q-862 -72 -925 -88q-9 -3 -21 -3q-26 0 -26 14l7 44q5 57 31 131q13 9 268.5 38t636.5 63t774 60t661 26q295 0 329 -38q37 -45 61.5 -72.5t36 -42.5t11.5 -24q0 -13 -34 -17
q-58 -12 -88 -26q-45 -24 -232 -53q-298 -47 -462 -89v-3q12 0 21.5 -8.5t72.5 -83.5q41 -46 41 -53q0 -5 -8 -7q-106 -30 -135 -40q-24 -7 -29 -7q-2 1 -5 1q-16 11 -110 11q-128 0 -209 -9t-155 -9z" />
    <glyph glyph-name="c_9" unicode="c_&#x39;" horiz-adv-x="3467" 
d="M2248 37q-5 0 -16 13q-145 140 -609 140q-165 0 -338 -15q-238 -22 -640 -82q-279 -45 -366 -45q-42 0 -53 10q-20 21 -47 42t-49.5 36t-27.5 17v10q248 140 633.5 252.5t819 192.5t831.5 123.5t656 43.5q323 0 323 -63l-1 -7q-34 -129 -41 -148q-9 -25 -25.5 -37.5
t-50.5 -27.5q-24 -11 -60 -29q-8 -5 -16 -5q-9 0 -19 10q-77 73 -104 82q-12 5 -12 9q0 3 13.5 9t38.5 19q-99 8 -208 8q-275 0 -578.5 -37.5t-567.5 -86.5t-432.5 -88.5t-182.5 -46.5q307 26 523 26q192 0 319.5 -15.5t202 -39.5t106 -50t31.5 -47q0 -5 -1 -9
q-19 -66 -28.5 -101t-14 -49t-9.5 -14z" />
    <glyph glyph-name="c_10" unicode="c_&#x31;&#x30;" horiz-adv-x="3838" 
d="M254 -163l-12 1q-63 15 -101 16.5t-38 9.5q0 3 5 9q15 19 29 39q32 48 86 100q65 54 314 127t603 143.5t739 117.5t708 47q441 0 619 -102q13 -8 19 -24.5t11 -45.5q6 -35 21 -91q8 7 11 48q2 25 7 46t22 21q97 0 173.5 -10t141.5 -48t124 -119v-15q-6 -7 -41 -14
q-123 -25 -145 -25q-8 0 -8 4l2 11q0 27 -196 42q-63 3 -79 6q-5 0 -7 -2q0 -12 -67 -37q-55 -21 -67 -21q-11 0 -28 5q-29 10 -132 20q-10 0 -10 5q0 8 25 36q47 61 49 66q0 16 -131 33.5t-360 17.5q-667 0 -1380 -161q-415 -93 -515 -122q-53 -16 -53 -30q0 -5 2.5 -10.5
t2.5 -16.5q-4 -9 -146 -43t-198 -34z" />
    <glyph glyph-name="c_11" unicode="c_&#x31;&#x31;" horiz-adv-x="4221" 
d="M1832 -249q-32 0 -78 6.5t-81 18t-35 28.5q0 6 7 13q107 105 131 125q32 27 75 48t238 99q-10 1 -23 1q-62 0 -172 -20q-189 -32 -302 -32q-107 0 -174 27q-10 3 -10 7q0 3 6 9q34 33 55 55q35 37 57.5 55t57.5 29t106 27q327 77 523.5 109.5t350.5 50.5q94 12 199 27
q-314 0 -596 -13.5t-531 -33t-465.5 -39t-398 -33t-326.5 -13.5q-206 0 -335 39q-9 2 -9 6q0 3 18 22q60 66 84 83.5t65 17.5q21 0 51 -2q47 -5 143 -5q105 2 350 23q221 20 551 46q823 65 1514 65q698 0 1168 -75q10 -1 14 -8t8.5 -23.5t25.5 -65.5q25 -49 25 -64
q0 -20 -46 -20q-20 0 -79.5 2t-154.5 2q-517 0 -1310 -112q-35 -5 -59 -7q-29 -2 -42.5 -5.5t-13.5 -15.5q0 -17 26 -64q23 -46 23 -55q0 -25 -37 -48q-55 -35 -233 -98q-225 -75 -332 -143q-7 -3 -7 -8q0 -3 4 -10t9 -20q0 -8 -35 -8z" />
    <glyph glyph-name="c_12" unicode="c_&#x31;&#x32;" horiz-adv-x="3383" 
d="M1181 -54h-7q-13 13 -33 23q-119 69 -119 93q0 12 21 20t59 18q28 7 64 18q210 61 277 68q36 6 47 11q-266 42 -478 54.5t-373 14.5q-226 1 -365 25.5t-204 125.5l-1 3q0 22 153 65q558 154 1863 154q472 0 817.5 -22.5t345.5 -56.5q-10 -68 -10 -134q-2 -21 -46 -21
q-64 -2 -88 -26q-3 -5 -8 -5q-4 0 -11 4q-80 44 -406 68t-735 24q-561 0 -981 -41q795 -55 795 -156q-12 -82 -12 -123q0 -29 -4 -43t-19 -22q-52 -27 -286 -71q-236 -42 -256 -68z" />
    <glyph glyph-name=".notdef" horiz-adv-x="1202" 
d="M793 684q37 0 41 38q0 33 -41 36q-28 0 -40 -22q-2 -8 -2 -12q0 -28 28 -38q8 -2 14 -2zM484 300q34 0 41 32v6q0 31 -41 36q-29 0 -41 -25l-1 -12q0 -26 26 -35q8 -2 16 -2zM483 1038q36 0 42 33q0 30 -28 39q-6 2 -9.5 2t-3.5 1l-4 -1q-34 0 -38 -35q0 -34 41 -39z
M793 1013q37 0 41 38q0 31 -42 37q-32 -3 -41 -27v-14q0 -23 28 -32q9 -2 14 -2zM519 822q12 0 17 22q0 22 -19 31h-17v-18q0 -35 19 -35zM571 567h-240q-2 0 -2 32q0 31 2 31h240q1 0 1 -31q0 -32 -1 -32zM799 404h-94q-1 0 -1 32q0 31 1 31h79q46 0 46 28q0 34 -37 34h-88
q-1 0 -1 31q0 32 1 32h175q1 -1 1 -30q0 -30 -1 -30h-17q21 -22 21 -54q0 -42 -34 -63q-18 -11 -51 -11zM571 465h-240q-2 0 -2 31q0 32 2 32h240q1 -1 1 -32t-1 -31zM483 236q-52 0 -80 50q-11 23 -11 52q0 70 63 95q16 4 25 4q56 0 84 -50q11 -23 11 -51q0 -70 -64 -95
q-9 -3 -28 -5zM734 241q-24 0 -24 1v25h-45q-1 0 -1 31t1 31h45v39q0 2 24 2q23 0 23 -2v-39h58q21 0 21 19q-2 10 -6 19q39 14 44 15q10 -19 10 -45q0 -48 -37 -65q-14 -5 -30 -5h-60v-25q0 -1 -23 -1zM866 67h-2q-38 17 -41 20q16 30 16 63q-1 24 -12 24q-10 0 -14 -41
q-3 -23 -11 -40q-15 -22 -46 -22q-39 0 -53 59q-2 14 -2 28q0 41 15 69q42 -18 42 -19q-12 -23 -13 -52q2 -27 12 -27t13.5 30.5t11.5 48.5q16 25 43 25q37 0 53 -45q6 -21 6 -42q0 -45 -18 -79zM486 42q-60 0 -87 57q-7 23 -7 44q0 61 48 84q6 -8 26 -49q-24 -13 -24 -39
q0 -15 17 -28q12 -6 24 -6q32 0 41 29q1 4 1 9q0 21 -23 36q24 48 25 48q48 -24 48 -83q0 -72 -61 -97q-14 -5 -28 -5zM571 976h-240q-2 0 -2 32t2 32h78q-17 18 -17 50q0 59 60 81q15 4 31 4q57 0 84 -48q8 -18 8 -41q0 -29 -19 -49h15q1 0 1 -30q0 -31 -1 -31zM792 950
q-56 0 -84 56q-7 23 -7 50q0 50 43 82q24 12 44 12q54 0 84 -47q12 -27 12 -53q0 -67 -60 -94q-20 -6 -32 -6zM520 761q-34 0 -48 38q-5 17 -5 76q-24 0 -27 -35q0 -27 14 -49q0 -2 -42 -22q-20 33 -20 79q0 90 79 90h100q1 0 1 -29t-1 -29h-21v-1q11 -3 22 -26q3 -12 3 -27
q0 -32 -22 -53q-14 -12 -33 -12zM651 852q-23 0 -32 28q-1 4 -1 14q0 26 27 34h7q22 0 32 -28v-11q0 -33 -33 -37zM880 859h-175q-1 0 -1 32q0 31 1 31h175q1 0 1 -31q0 -32 -1 -32zM792 621q-66 0 -88 62q-3 12 -3 21q0 33 17 53h-79q-1 0 -1 32q0 31 1 31h241q1 0 1 -30
t-1 -30h-16q20 -19 20 -52q0 -47 -42 -74q-21 -13 -50 -13zM571 670h-240q-2 0 -2 31t2 31h240q1 0 1 -31t-1 -31zM975 -97v1412h-736v-1412h736zM1028 -152h-843q-1 0 -1 761q0 760 1 760h843q1 0 1 -760q0 -761 -1 -761z" />
    <glyph glyph-name=".notdef" horiz-adv-x="1202" 
d="M793 684q37 0 41 38q0 33 -41 36q-28 0 -40 -22q-2 -8 -2 -12q0 -28 28 -38q8 -2 14 -2zM484 300q34 0 41 32v6q0 31 -41 36q-29 0 -41 -25l-1 -12q0 -26 26 -35q8 -2 16 -2zM483 1038q36 0 42 33q0 30 -28 39q-6 2 -9.5 2t-3.5 1l-4 -1q-34 0 -38 -35q0 -34 41 -39z
M793 1013q37 0 41 38q0 31 -42 37q-32 -3 -41 -27v-14q0 -23 28 -32q9 -2 14 -2zM519 822q12 0 17 22q0 22 -19 31h-17v-18q0 -35 19 -35zM571 567h-240q-2 0 -2 32q0 31 2 31h240q1 0 1 -31q0 -32 -1 -32zM799 404h-94q-1 0 -1 32q0 31 1 31h79q46 0 46 28q0 34 -37 34h-88
q-1 0 -1 31q0 32 1 32h175q1 -1 1 -30q0 -30 -1 -30h-17q21 -22 21 -54q0 -42 -34 -63q-18 -11 -51 -11zM571 465h-240q-2 0 -2 31q0 32 2 32h240q1 -1 1 -32t-1 -31zM483 236q-52 0 -80 50q-11 23 -11 52q0 70 63 95q16 4 25 4q56 0 84 -50q11 -23 11 -51q0 -70 -64 -95
q-9 -3 -28 -5zM734 241q-24 0 -24 1v25h-45q-1 0 -1 31t1 31h45v39q0 2 24 2q23 0 23 -2v-39h58q21 0 21 19q-2 10 -6 19q39 14 44 15q10 -19 10 -45q0 -48 -37 -65q-14 -5 -30 -5h-60v-25q0 -1 -23 -1zM866 67h-2q-38 17 -41 20q16 30 16 63q-1 24 -12 24q-10 0 -14 -41
q-3 -23 -11 -40q-15 -22 -46 -22q-39 0 -53 59q-2 14 -2 28q0 41 15 69q42 -18 42 -19q-12 -23 -13 -52q2 -27 12 -27t13.5 30.5t11.5 48.5q16 25 43 25q37 0 53 -45q6 -21 6 -42q0 -45 -18 -79zM486 42q-60 0 -87 57q-7 23 -7 44q0 61 48 84q6 -8 26 -49q-24 -13 -24 -39
q0 -15 17 -28q12 -6 24 -6q32 0 41 29q1 4 1 9q0 21 -23 36q24 48 25 48q48 -24 48 -83q0 -72 -61 -97q-14 -5 -28 -5zM571 976h-240q-2 0 -2 32t2 32h78q-17 18 -17 50q0 59 60 81q15 4 31 4q57 0 84 -48q8 -18 8 -41q0 -29 -19 -49h15q1 0 1 -30q0 -31 -1 -31zM792 950
q-56 0 -84 56q-7 23 -7 50q0 50 43 82q24 12 44 12q54 0 84 -47q12 -27 12 -53q0 -67 -60 -94q-20 -6 -32 -6zM520 761q-34 0 -48 38q-5 17 -5 76q-24 0 -27 -35q0 -27 14 -49q0 -2 -42 -22q-20 33 -20 79q0 90 79 90h100q1 0 1 -29t-1 -29h-21v-1q11 -3 22 -26q3 -12 3 -27
q0 -32 -22 -53q-14 -12 -33 -12zM651 852q-23 0 -32 28q-1 4 -1 14q0 26 27 34h7q22 0 32 -28v-11q0 -33 -33 -37zM880 859h-175q-1 0 -1 32q0 31 1 31h175q1 0 1 -31q0 -32 -1 -32zM792 621q-66 0 -88 62q-3 12 -3 21q0 33 17 53h-79q-1 0 -1 32q0 31 1 31h241q1 0 1 -30
t-1 -30h-16q20 -19 20 -52q0 -47 -42 -74q-21 -13 -50 -13zM571 670h-240q-2 0 -2 31t2 31h240q1 0 1 -31t-1 -31zM975 -97v1412h-736v-1412h736zM1028 -152h-843q-1 0 -1 761q0 760 1 760h843q1 0 1 -760q0 -761 -1 -761z" />
    <glyph glyph-name=".null" horiz-adv-x="0" 
 />
    <glyph glyph-name="nonmarkingreturn" horiz-adv-x="682" 
 />
    <glyph glyph-name="space" unicode=" " horiz-adv-x="508" 
 />
    <glyph glyph-name="space" unicode="&#xa0;" horiz-adv-x="508" 
 />
    <glyph glyph-name="exclam" unicode="!" horiz-adv-x="882" 
d="M33 -303q-12 0 -15.5 15.5t-7.5 47.5q-3 37 -14 98l-1 9q0 20 7 59q17 102 39 102l132 -48q42 -18 42 -37q0 -8 4 -13t4 -9t-7 -8q-17 -10 -28 -65q-5 -28 -5 -41q0 -6 2 -9t4.5 -4.5t2.5 -3.5t-5 -5q-46 -28 -76.5 -47.5t-49 -30t-28.5 -10.5zM267 161q-15 0 -76 47
q-25 20 -61 47q-11 8 -11 12q0 3 6.5 8.5t18.5 46.5q14 56 57 154q60 129 181 350t240 411t173 226q76 43 99 65q13 12 18 12q6 0 7 -26l2 -33q0 -81 -57.5 -192.5t-157.5 -275.5q-314 -508 -398 -777q-11 -38 -19.5 -56.5t-21.5 -18.5z" />
    <glyph glyph-name="quotedbl" unicode="&#x22;" horiz-adv-x="650" 
d="M494 1050q-9 0 -9 4q14 93 14 131q1 17 3 31q4 25 33 90q84 190 103.5 225.5t30.5 61.5q2 3 6 3q27 0 109 -67q47 -39 47 -48q0 -8 -3 -18q-7 -25 -10 -28q-10 -8 -35 -59q-48 -97 -105 -232q-2 0 -2 -5q-3 -3 -3 -6t-2 -3v-2h-1l-13 -33q-10 -5 -69 -23q-71 -22 -94 -22
zM235 1045q-6 0 -6 16q0 31 22 109q52 189 175 387q16 26 23 42.5t13 16.5q10 0 36.5 -21t91.5 -64q1 0 1 -1q12 -6 12 -12q0 -8 -16 -30q-20 -28 -65 -109q-82 -151 -103 -227q-9 -30 -23 -39l-77 -36q-53 -28 -84 -32z" />
    <glyph glyph-name="numbersign" unicode="#" horiz-adv-x="1212" 
d="M550 636q7 0 22 22q28 31 28 35q0 5 -6 12q-33 38 -50 64q-20 32 -30 32l-4 -2q-15 -18 -26 -29q-20 -18 -20 -30q0 -7 6 -15t19 -21.5t40 -45.5q15 -22 21 -22zM736 147q-10 0 -46 42q-22 25 -61 66q-54 59 -83 103q-3 5 -6 6q-1 0 -4 -2.5t-5 -6t-2 -7.5t3 -8.5
t3 -10.5q0 -16 -18.5 -29.5t-36.5 -14.5q-72 -4 -120 -4q-70 0 -70 18q0 3 2 7q57 106 118 158q26 24 26 36q0 13 -16.5 34t-58.5 68q-7 8 -9 8q-13 0 -44 -32.5t-59 -68.5t-33 -50q-22 -64 -47.5 -96.5t-43.5 -32.5q-9 0 -14 8l-47 78q-41 63 -41 80q0 11 8 21
q91 127 151 185q49 51 49 65l-2 5q-52 79 -52 105q0 14 10.5 19t27.5 9q38 8 85 33q25 14 44 14q13 0 28 -7t22 -7q6 0 6 5q0 16 -42 77q-21 29 -31 48q0 1 -1 1q-3 5 -3 8q0 7 84 40q75 31 85 31q7 0 9 -8q13 -32 47 -32q50 0 146 24q9 0 9 -10q0 -16 -12 -49.5t-24.5 -62
t-16 -35t-8 -12t-4.5 -12.5q0 -13 57 -82q23 -28 23 -30.5t2 -2.5q10 0 192 222q16 21 26 21t22 -32q2 -2 3 -5q4 -8 16 -27q52 -80 52 -110q0 -14 -16 -16h-14q-17 0 -26 -11q-71 -90 -108 -129q-37 -36 -37 -48q0 -4 159 -200q33 -44 33 -65l-1 -17q-4 -14 -4 -44
q2 -44 6 -87q0 -12 -6 -12q-12 0 -50 23l-38 21q-56 33 -98 84.5t-71 95.5q-38 61 -51 61q-4 0 -18 -16q-36 -42 -36 -46q0 -5 8 -13q72 -107 81 -107l13 4q16 0 16 -46q0 -42 -9 -95q-18 -95 -28 -95z" />
    <glyph glyph-name="dollar" unicode="$" horiz-adv-x="1110" 
d="M381 164q26 0 102 21t156 68.5t126 127.5v3q0 14 -49 32t-107.5 31t-88.5 13q-26 0 -148 -293q0 -3 9 -3zM396 629q8 0 16 15q12 22 37 74q27 58 84 175q-14 -1 -106 -53.5t-207 -141.5q-6 -5 -6 -9q0 -17 54 -35t128 -25zM178 -298q-6 0 -19 24q-11 30 -39 66
q-13 15 -20.5 29.5t-7.5 36.5q0 47 45 166q8 21 12 30.5t5.5 14t1.5 7.5q0 9 -10 35q-20 67 -30.5 106t-10.5 57q0 25 26 25q14 0 36 -3q30 -5 74 -6q5 0 72 145q6 13 15 31q0 9 -53 15q-104 10 -152 47q-9 8 -24 42q-37 87 -37 149q0 19 5 31q61 105 313 248
q158 90 230 114q21 5 33.5 15.5t28 43t45.5 104.5q22 52 26 70q4 10 6 16t39 7q63 6 89 6q46 0 46 -25q0 -21 -17 -59.5t-50 -105.5l-6 -13q0 -10 21 -13t51 -4q107 0 143 -33q9 -11 9 -26q0 -31 -22 -71q-48 -84 -89 -123q-6 -5 -11 -5l1 3q0 11 -7 33q-19 58 -23 65t-17 7
q-14 0 -23 -2l-49 2q-36 0 -58.5 -15t-49 -64.5t-145.5 -305.5q0 -10 66 -16q54 -6 123.5 -22.5t121.5 -61.5q37 -38 37 -87q0 -62 -44.5 -132.5t-105 -129.5t-112.5 -90q-101 -56 -178 -69q-68 -12 -118 -12q-33 0 -49.5 -2.5t-20.5 -14.5q-26 -78 -26 -97q0 -13 13 -13
q19 0 19 -7q0 -5 -93 -126q-27 -37 -36 -37z" />
    <glyph glyph-name="percent" unicode="%" horiz-adv-x="1144" 
d="M616 72q34 0 72.5 41.5t71 98.5t53.5 108.5t21 70.5q0 8 -4 9l-4 -1q-35 -16 -45 -31q-6 -6 -8 -6t-42 16q-2 0 -2 -3l3 -30q0 -15 -5 -15q-6 0 -14 7q-13 8 -21 8q-5 0 -10 -5q-48 -62 -75.5 -132.5t-27.5 -103.5q0 -14 4 -19q16 -13 33 -13zM240 809q20 0 57.5 49.5
t69 108.5t31.5 86q0 13 -11 14q-14 0 -17 -23q-3 -15 -8 -15t-19 14q-7 9 -10 9q-9 0 -63 -85q-27 -43 -34 -65q-10 -44 -10 -66q0 -27 14 -27zM651 -73q-23 0 -48 11q-97 37 -138 66t-41 94q0 41 14 104q22 108 63.5 165t93.5 83.5t106 41.5q47 13 89 33q55 27 102 27
q75 0 78 -67l3 -35q5 -29 5 -70q0 -48 -16 -110q-34 -141 -198 -293q-53 -50 -113 -50zM190 -200q-3 0 -6 2q-19 23 -33.5 37.5t-26.5 30.5q-33 41 -33 59q0 81 232 490q135 238 388 658q116 191 116 198l-3 1q-20 0 -160 -49q-130 -45 -145 -56q0 -4 3 -5q24 -24 24 -74
q0 -57 -27 -134.5t-71 -150t-97 -121.5t-107 -49q-12 0 -26 4.5t-47 37.5t-62 75t-31 73q0 58 16 106q22 70 74 159q23 35 23 45q-3 5 -12 18q-15 20 -15 26q0 3 8 6q251 120 423 178q220 73 319 73q94 0 94 -71q0 -44 -32 -115q-50 -112 -222 -396q-275 -448 -477 -852
q-4 -6 -4 -9q8 -2 14 -2t6 -3t-5 -15q-10 -21 -38 -103q-6 -14 -23 -37q-25 -35 -37 -35z" />
    <glyph glyph-name="ampersand" unicode="&#x26;" horiz-adv-x="1381" 
d="M650 875q28 0 44.5 24.5t47.5 97.5q21 50 58 130q7 10 10 23q-22 0 -90 -33.5t-139 -83.5t-109 -102q-12 -17 -12 -26q0 -11 14.5 -13.5t40.5 -3.5q51 -3 92 -9q26 -4 43 -4zM168 202q22 0 65 8q51 9 163 23q24 6 62 127q-12 -2 -132 -61q-125 -63 -161 -97h3zM500 -310
q-5 0 -11 3q-27 18 -49 30q-58 35 -103 76q-19 17 -19 64q0 49 15 116q9 40 9 58q0 12 -5 12l-68 -9q-151 -23 -224 -23q-96 0 -96 40q0 56 -10 91q-8 27 -8 52q0 30 22 61t86 73q126 81 504 250q9 5 15 15t44 101q0 8 -80 17q-48 5 -100 14q-129 20 -129 75q0 60 -12 123
q-6 24 -6 43q0 66 165 174q108 71 227 128q154 73 214 73q7 0 11 2q8 3 62 155q22 63 36 91.5t35 39.5t65 22q28 7 71 20l10 2q8 0 8 -10q-11 -79 -11 -110q0 -55 -19 -102q-15 -39 -25 -79q-4 -15 -7 -15t-8 -10q-21 -51 -21 -54q0 -6 5.5 -9.5t16.5 -9.5q17 -8 50 -28
q55 -36 55 -110q0 -38 -14.5 -70.5t-35.5 -44.5l-82 -46q-58 -35 -72 -35q-7 0 -7 22q0 51 -11 101q-94 -188 -94 -215q0 -2 1 -3q114 -35 212 -92q23 -16 23 -31q0 -20 -42 -48q-161 -104 -284 -153q-43 -16 -66 -33.5t-45 -65.5t-62 -154l-1 -4q0 -10 26 -10q34 0 90 7
q113 11 197 11q154 0 264 -40q129 -44 129 -71q0 -17 -75 -53q-32 -16 -73 -38q-26 -14 -81 -14q-16 0 -20 2.5t-4 26.5q0 10 -106 10q-77 0 -175 -5q-236 -12 -249 -29q-51 -153 -51 -175q10 0 25.5 6.5t23.5 6.5q7 0 7 -7q-11 -88 -11 -123l1 -19q0 -16 -6 -26
q-24 -40 -47 -40z" />
    <glyph glyph-name="quotesingle" unicode="'" horiz-adv-x="554" 
d="M453 1013q-2 0 -29 25q-67 57 -88 82.5t-21 59.5q0 35 22 92.5t94 225.5q4 12 4 21.5t11 12.5t75 11q30 3 76 9q5 0 12 -6q11 -10 14 -34q0 -5 -1 -9q-29 -86 -35 -132q-1 -12 -3 -17t-12.5 -5t-31.5 -60q-35 -97 -74 -245q-6 -24 -7 -25q-2 -6 -6 -6z" />
    <glyph glyph-name="parenleft" unicode="(" horiz-adv-x="846" 
d="M224 -443q-27 0 -113 69q-22 17 -48.5 36.5t-26.5 72.5q11 279 154 637q134 336 316 647t349 516t240 205q35 0 41 -56q7 -78 7 -114q0 -47 -14 -47q-5 0 -10.5 2t-12.5 2t-15 -5q-132 -110 -329.5 -437t-362 -699t-196.5 -618q0 -11 4 -11q6 0 31 18q5 3 8 3
q10 0 10 -124q0 -52 -7.5 -74.5t-24.5 -22.5z" />
    <glyph glyph-name="parenright" unicode=")" horiz-adv-x="875" 
d="M-81 -419q-18 0 -25 27q-4 16 -29 183q0 7 3 7t8 -3q8 -7 25 -7q51 0 120 128q645 1225 645 1713q0 37 -8 101q0 8 6 13h20q12 -8 74 -20q68 -13 73 -13q31 -7 31 -84q0 -113 -60 -335.5t-164 -465.5q-261 -602 -411.5 -879t-275.5 -352q-20 -13 -32 -13z" />
    <glyph glyph-name="asterisk" unicode="*" horiz-adv-x="874" 
d="M380 977q-47 2 -78 2l-58 -1q-32 0 -32 10q0 11 15 37q18 34 46 108q15 38 94 125q2 2 2 3q0 5 -66 69q-89 86 -102 95q-17 11 -17 20q0 10 53 48q66 49 74 56.5t14 7.5q3 0 6 -2q17 -10 28 -14q18 -7 19.5 -18.5t33.5 -41.5q16 -15 21 -18q2 2 2 9l-1 35q0 73 36 205
q10 38 19 38q6 0 19 -14l84 -110q11 -14 11 -26l-2 -93q2 0 3 -1q8 7 14 14q37 36 57.5 54t32.5 18q9 0 93 -109q30 -40 30 -58q0 -9 -10 -9h-8q-14 0 -41 -25q-38 -34 -134 -134q-5 -3 -5 -6q0 -11 79 -102q4 -5 8 -26q8 -51 30 -101q10 -23 10 -33t-14 -10q-25 0 -111 26
q-2 1 -5 1q-55 19 -66 29q-19 23 -31 39q-23 33 -34 33q-8 0 -20 -18q-5 -8 -14 -18q-33 -41 -43 -63q-8 -16 -15 -23.5t-27 -7.5z" />
    <glyph glyph-name="plus" unicode="+" horiz-adv-x="918" 
d="M288 160q-13 0 -16 26q-1 5 -7 155q0 72 33 151q9 19 9 27q-44 -4 -69 -4q-37 0 -48.5 9.5t-19 28t-23.5 44t-52 59.5v7q22 13 88 21t132 8q22 0 22 -6q2 -4 9 -4q4 0 6 1q32 4 35.5 6t48.5 91q120 232 152 270q21 24 41 24q21 0 48 -15q48 -23 79 -27q16 -2 16 -10
q0 -12 -40.5 -77t-132.5 -230l-1 -2q0 -12 99 -12q112 -3 112 -16l-31 -53q-47 -79 -66 -90q-13 -8 -32 -8q-14 0 -34 2q-31 4 -108 4q-23 0 -26.5 -1.5t-5.5 -6.5q-69 -151 -69 -181q0 -9 6.5 -9t6.5 -5q-5 -42 -20 -57l-42 -40q-82 -80 -100 -80z" />
    <glyph glyph-name="comma" unicode="," horiz-adv-x="551" 
d="M81 -51q-4 0 -4 4q0 7 2 24q1 1 7 39q17 105 26 118q5 8 17 16q17 11 60 56q36 41 36 47l-1 4q-20 19 -33 19q-8 0 -15.5 -5t-21 -10.5t-24.5 -5.5q-13 0 -13 18q19 123 25 151q5 23 13 31q12 11 44 11q31 0 56 -21q54 -42 94 -60q29 -14 48 -29q26 -21 26 -67
q0 -52 -34 -106q-69 -107 -197 -184q-71 -43 -111 -50z" />
    <glyph glyph-name="hyphen" unicode="-" horiz-adv-x="952" 
d="M322 510q-66 0 -95.5 10.5t-54.5 28.5q-12 8 -27 16q-70 38 -70 51t108 49q56 21 68 21q28 -2 58 -2q44 0 142 8q264 26 311 26q37 0 48.5 -8t11.5 -26q0 -11 -2 -27q-4 -23 -4 -56l2 -52q0 -15 -12 -15q-6 0 -18 2q-23 5 -79 5q-43 0 -109 -7q-191 -24 -278 -24z" />
    <glyph glyph-name="period" unicode="." horiz-adv-x="394" 
d="M115 120q-5 0 -5 12t-1 27q-2 30 -2 57q0 140 72 238q2 2 5 2q6 0 113 -88q28 -23 28 -30q0 -5 -8 -13q-26 -35 -50 -110q-2 -7 -5 -11t-21 -13q-23 -10 -112 -63q-10 -8 -14 -8z" />
    <glyph glyph-name="slash" unicode="/" horiz-adv-x="826" 
d="M-178 -540q-5 0 -13.5 12.5t-28 44t-55.5 86.5q-2 3 -2 8q0 47 129 255.5t312 491.5q187 288 366.5 577.5t285.5 500.5q25 54 29 59q6 9 16 9q34 4 68 17.5t55 13.5q20 0 22 -25q0 -47 -97 -234t-353 -616.5t-723 -1186.5q-6 -13 -11 -13z" />
    <glyph glyph-name="zero" unicode="0" horiz-adv-x="810" 
d="M308 146q66 0 123 43q119 87 193 277q64 164 64 338q0 92 -17 169.5t-46 78.5q-7 0 -14 -6q-2 -241 -30 -241q-96 4 -165 23q-29 0 -80.5 -114.5t-94.5 -256.5q-46 -150 -46 -234q0 -39 16 -51q49 -26 97 -26zM304 -6q-88 0 -183 28q-130 40 -130 223q0 112 48 258
q43 132 114 263q154 285 332 415q86 63 164 63q55 0 102 -39q96 -80 132 -321q7 -46 7 -97q0 -116 -28 -238q-54 -233 -192 -387q-150 -168 -366 -168z" />
    <glyph glyph-name="one" unicode="1" horiz-adv-x="433" 
d="M-19 -61h-3q-11 0 -11 19q0 105 279 733q38 86 40 94q0 9 -13 9q-27 0 -71 -13t-71 -13q-18 0 -20 12q27 99 37 127q10 32 24 49.5t41 43.5q60 52 179 190q40 46 62.5 68.5t38.5 22.5q15 0 29 -19t36 -57q16 -28 39 -65l1 -3q0 -42 -236 -587q-77 -182 -135 -321.5
t-58 -158.5q15 -23 15 -40q0 -26 -26.5 -41.5t-64 -25t-72.5 -16.5q-23 -4 -40 -8z" />
    <glyph glyph-name="two" unicode="2" horiz-adv-x="858" 
d="M-57 61q-42 49 -63 80t-21 53q0 27 31.5 48.5t93.5 52.5q101 48 280.5 166.5t431.5 364.5q93 100 115 191q0 14 -77 15q-150 0 -303 -51q-91 -31 -100 -43q-6 -9 -8 -25q-10 -57 -22 -57q-2 0 -5 2q-10 7 -22 11.5t-22 13.5q-39 44 -66 73.5t-40 45.5t-13 26q0 8 7.5 14
t21.5 15q62 39 228.5 96.5t334.5 73.5q30 2 57 2q105 0 149 -38t44 -118q0 -202 -143 -373t-406 -362q-2 -2 -2 -4l44 2q101 0 187 -24.5t86 -43.5q-23 -140 -28.5 -162.5t-17.5 -22.5q-10 0 -27 10q-24 13 -75 26q-145 31 -244 31q-89 0 -151 -16t-113 -36
q-68 -28 -142 -37z" />
    <glyph glyph-name="three" unicode="3" horiz-adv-x="855" 
d="M171 32q-36 0 -40 17q-13 117 -13 161q0 38 12 38q8 0 18 -6t21.5 -10.5t25.5 -4.5q38 0 165 49q91 35 165 77t74 73q0 40 -156 40q-187 -4 -284 -26q-38 -7 -59 -7q-27 0 -34 21t-11 80q-2 35 -8 87q0 20 62 60q93 59 318 174q144 72 158 86q-246 -28 -280 -28
q-11 0 -28 -14q-12 -10 -18 -10q-8 0 -14.5 13.5t-13.5 50t-15 104.5q-2 15 -2 23q0 15 10 15q351 43 537 43q260 0 260 -76q0 -65 -184 -180q-110 -69 -313 -174q-92 -47 -101 -56q11 0 54 -7t101.5 -21t115.5 -35.5t95.5 -52t38.5 -69.5q0 -25 -20 -54
q-93 -127 -218.5 -211.5t-242.5 -127t-176 -42.5z" />
    <glyph glyph-name="four" unicode="4" horiz-adv-x="804" 
d="M414 -58q-7 0 -12 10l-28 67q-36 83 -36 105q0 12 4 27q37 170 105 280q15 24 15 32q0 5 -6 5q-13 0 -55 -14q-75 -27 -299 -76q-42 -8 -65 -8q-36 0 -36 19q0 11 7 23q3 5 25 70q18 55 32.5 84.5t44 61.5t93.5 93q109 101 423 424q21 23 30 35q10 16 17 16t21 -18
q42 -45 77 -70q25 -14 25 -26q0 -18 -322 -337q-139 -137 -139 -141q89 22 132.5 29t62.5 14.5t29.5 27t24.5 61.5q5 17 13 39q3 12 3 28.5t2 31.5t10.5 25t30.5 10l44 -1l82 3q25 0 25 -15t-10 -43q-21 -59 -35 -90q-17 -34 -17 -52q0 -15 13.5 -28.5t43.5 -37.5
q54 -42 59 -50q0 -14 -141 -56q-58 -16 -60 -20q-56 -116 -91 -207q-39 -97 -39 -123l7 -1q5 0 9 1t6 1q3 0 4 -3q0 -5 -8 -22q-90 -184 -121 -184z" />
    <glyph glyph-name="five" unicode="5" horiz-adv-x="822" 
d="M225 -34q-133 0 -176 50q-34 51 -58 85q-56 82 -56 95q0 8 10.5 11t29.5 6q33 2 90 18q24 8 32 8q6 0 8 -6q37 -80 145 -80q70 0 151 32.5t152.5 88.5t118 129t46.5 155q0 11 -28 21t-75 10q-109 0 -228 -56q-172 -85 -209 -158q-6 -12 -11 -12t-28 38l-38 54
q-33 45 -33 61q0 19 42 73q102 129 185 294l-1 5q-8 -2 -13 -14.5t-11 -12.5q-4 0 -11 10q-44 64 -76 95q-30 27 -30 41q0 13 35 21.5t119 23.5q50 8 52.5 12t2.5 15.5t4 14t18 4.5q24 0 109 22q17 5 26 5q8 0 10.5 -3t2.5 -16q0 -9 4 -9q10 0 29 4q245 45 335 45
q18 0 28 -2q0 -5 -76 -146q-14 -24 -36 -24q-9 0 -16.5 1.5t-13.5 1.5q-28 -3 -156 -23q-139 -24 -148 -39q-37 -102 -59 -144q-14 -27 -14 -35l62 10q140 25 218 25q57 0 101.5 -14.5t70 -51.5t25.5 -103q0 -76 -39 -197q-80 -233 -277 -345q-164 -94 -345 -94z" />
    <glyph glyph-name="six" unicode="6" horiz-adv-x="709" 
d="M288 180q29 0 68 26q24 17 74 64.5t93.5 102.5t43.5 92q0 38 -59 38q-58 0 -185 -41q-68 -23 -94 -45q-12 -11 -19 -25v-2q-1 0 -2 2q-5 5 -6 9t-5 4q-7 -7 -7 -40q0 -32 9 -75.5t30.5 -76.5t58.5 -33zM268 -27q-41 0 -76 20t-60 64q-48 85 -76.5 161.5t-28.5 158.5
q0 138 101.5 326t345.5 490q35 49 66 55q18 4 57 9q71 8 99 13q7 0 8.5 -7.5t1.5 -29.5t1 -64q0 -34 -16 -84.5t-36 -90t-30 -39.5q-3 0 -5 3q-44 79 -49 79q-3 0 -6 -6q-2 -1 -3 -3q-144 -189 -258 -372q0 -1 -1 -2t-1 -5q173 38 272 38q68 0 107 -15t55 -42t16 -62
q0 -63 -54 -196q-69 -168 -194 -283.5t-236 -115.5z" />
    <glyph glyph-name="seven" unicode="7" horiz-adv-x="788" 
d="M47 -139q-5 0 -95 163v1h-2v18q2 2 9 17q21 51 152.5 255.5t438.5 560.5q-6 3 -27 3l-88 -2q-138 0 -219 38q-16 8 -66 99q-28 51 -32 73q0 7 10 7q12 0 42 -8q113 -29 254 -29q165 0 361 45q11 3 23 13.5t55 33.5q8 5 21 5q17 0 116 -15q49 -8 61 -10.5t12 -7.5
q0 -4 -7 -13q-1 0 -1 -1q-47 -67 -60 -99q-16 -37 -38 -49q-156 -90 -325.5 -272.5t-302 -362t-178.5 -261.5q-84 -153 -89 -158q0 -2 -0.5 -2t-0.5 -1.5t-2.5 -5t-4.5 -8.5q-11 -27 -17 -27z" />
    <glyph glyph-name="eight" unicode="8" horiz-adv-x="808" 
d="M352 127q14 0 57 37t84 100t53 143q0 16 -16 28q-48 41 -48 58l1 7q0 9 -1 12q-6 6 -48 21q-31 15 -37 15q-4 0 -9 -5q-97 -92 -146 -235q-6 -17 -6 -37q0 -40 27.5 -82t88.5 -62zM553 667q35 0 137 202q36 73 49 107q8 23 8 44q0 40 -45 40q-56 0 -154 -52t-180 -113.5
t-83 -85.5q0 -3 2 -5q32 -36 87 -57q17 -10 24 -10q6 0 67 12l12 1q51 0 71 -73q1 -8 2.5 -8.5t2.5 -1.5zM372 -50q-67 0 -124 43q-86 68 -124.5 104.5t-57.5 75.5q-16 34 -16 80q0 73 35 178q47 138 110 201q16 15 16 25q0 4 -4 7q-63 48 -97 89.5t-34 83.5q0 74 115 168
q130 108 252 155.5t285 69.5q39 0 86 -9q107 -22 119 -97q2 -19 2 -36q0 -43 -10.5 -76t-15.5 -88q-8 -78 -52.5 -164t-105.5 -181q-31 -50 -32 -55q0 -6 3.5 -13.5t6 -19t2.5 -26.5q0 -38 -15 -96q-11 -32 -12 -62q-6 -91 -57 -173.5t-128 -134.5q-73 -49 -147 -49z" />
    <glyph glyph-name="nine" unicode="9" horiz-adv-x="769" 
d="M256 597q25 0 67.5 36.5t121.5 138t210 287.5q8 7 10 16q-13 0 -74 -31.5t-144 -102.5q-109 -92 -188 -219q-46 -71 -47 -98q0 -6 2 -9q19 -18 42 -18zM404 -266l-1 2q-42 30 -70 48q-34 22 -48.5 36.5t-14.5 34.5q0 23 44 118q120 239 256 655l-1 3
q-114 -133 -180.5 -184.5t-114.5 -51.5q-36 0 -70 24q-16 10 -116 88q-57 44 -57 118q0 137 163 327q62 73 116 116q58 46 141 101q196 129 298 129q75 0 78 -77q0 -1 2 -3q13 8 23 8q24 -1 24 -58q0 -198 -221 -841q-85 -245 -157.5 -419t-93.5 -174z" />
    <glyph glyph-name="colon" unicode=":" horiz-adv-x="478" 
d="M101 120q-5 0 -5 12t-1 27q-2 30 -2 57q0 140 72 238q2 2 5 2q6 0 113 -88q28 -23 28 -30q0 -5 -8 -13q-26 -35 -50 -110q-2 -7 -5 -11t-21 -13q-23 -10 -112 -63q-10 -8 -14 -8zM224 625q-5 0 -5 12t-1 27q-2 30 -2 57q0 140 72 238q2 2 5 2q6 0 113 -88q28 -23 28 -30
q0 -5 -8 -13q-26 -35 -50 -110q-2 -7 -5 -11t-21 -13q-23 -10 -112 -63q-10 -8 -14 -8z" />
    <glyph glyph-name="semicolon" unicode=";" horiz-adv-x="492" 
d="M81 -51q-4 0 -4 4q0 7 2 24q1 1 7 39q17 105 26 118q5 8 17 16q17 11 60 56q36 41 36 47l-1 4q-20 19 -33 19q-8 0 -15.5 -5t-21 -10.5t-24.5 -5.5q-13 0 -13 18q19 123 25 151q5 23 13 31q12 11 44 11q31 0 56 -21q54 -42 94 -60q29 -14 48 -29q26 -21 26 -67
q0 -52 -34 -106q-69 -107 -197 -184q-71 -43 -111 -50zM261 625q-5 0 -5 12t-1 27q-2 30 -2 57q0 140 72 238q2 2 5 2q6 0 113 -88q28 -23 28 -30q0 -5 -8 -13q-26 -35 -50 -110q-2 -7 -5 -11t-21 -13q-23 -10 -112 -63q-10 -8 -14 -8z" />
    <glyph glyph-name="less" unicode="&#x3c;" horiz-adv-x="1031" 
d="M777 292q-10 0 -29 7q-32 13 -117 24q-75 5 -153 5l-84 -1q-66 2 -82 5q-21 3 -45 25q-19 23 -104 82q-12 8 -12 23q0 47 95.5 140.5t223.5 192t240.5 169t146.5 70.5q11 0 12 -9l-14 -64q-8 -45 -21.5 -73t-56.5 -67t-140 -117q-224 -183 -229 -193q6 -2 64 -2
q64 0 148 -2.5t150 -13t66 -33.5l-1 -4q-19 -65 -27.5 -101t-14 -49.5t-16.5 -13.5z" />
    <glyph glyph-name="equal" unicode="=" horiz-adv-x="969" 
d="M147 367q-20 0 -20 9q0 10 15 48q26 79 42 103t54.5 31t123.5 11q64 4 168 12q40 4 131 4q92 0 99 -11q32 -59 52 -91q26 -40 26 -53q0 -8 -10 -10t-31 -3q-36 0 -112 -14q-8 -2 -16 -2q-286 -3 -460 -28q-42 -6 -62 -6zM474 638q-103 0 -186.5 14.5t-166.5 59.5
q-3 2 -3 5q0 9 17 27q35 35 81 69q54 40 82 40q16 0 27 -16q2 -4 5 -6q4 -6 97 -6q94 0 207 5q96 3 157 3q60 0 66 -6q1 -7 1 -13t3 -107q0 -50 -1 -55.5t-14 -5.5q-119 -1 -212 -5q-87 -3 -160 -3z" />
    <glyph glyph-name="greater" unicode="&#x3e;" horiz-adv-x="968" 
d="M218 117q-3 0 -6 3q-55 38 -114 64q-27 11 -27 17q7 7 412 297q91 63 183 123l-20 4q-168 20 -329 128q-15 10 -51 28q-40 21 -78.5 44t-38.5 38q0 5 5 8q22 13 40 25q107 67 124 67q9 0 19.5 -14t46.5 -35q167 -85 271 -105q94 -18 146 -18t68.5 -7t16.5 -46
q0 -44 -17 -148q-1 -2 -1 -5q-6 -12 -101 -82q-197 -145 -440 -313q-2 -2 -6 -4t-5 -3t-3 -2t-4 -3t-4.5 -4t-6.5 -4t-7.5 -5t-6.5 -5t-5 -3.5t-3 -1.5v-1h-2v-1q-3 -1 -4.5 -2.5t-2.5 -2t-2.5 -2t-17.5 -12.5t-17 -11q-7 -6 -12 -6z" />
    <glyph glyph-name="question" unicode="?" horiz-adv-x="1405" 
d="M465 -464q-17 0 -17 43q0 112 19 175q15 50 33 88q6 17 9 17q15 0 76 -57q57 -54 57 -57q7 -7 7 -10t-5 -9t-15.5 -28t-22.5 -73q0 -4 2 -7t5 -6t3 -6t-8 -6q-69 -24 -104 -47q-27 -17 -39 -17zM508 -95q-13 0 -26 5q-56 24 -56 104q0 129 137 370t393 525l192 215
q144 162 144 177q0 20 -44.5 32.5t-117.5 12.5q-99 0 -231.5 -29t-265.5 -98.5t-238 -189.5q-7 -7 -7 -12q0 -4 10 -16q27 -31 27 -37q0 -8 -46 -16q-10 -2 -31 -10q-75 -27 -107 -27q-33 0 -33 24l8 49q10 71 27 123t63 97q149 137 373.5 231t415.5 107l9 2q105 0 121 -3
q84 -10 124 -55q89 -109 106 -133q24 -36 24 -70q0 -46 -48 -108t-153 -177q-326 -355 -527 -638q-152 -214 -152 -284q0 -13 6 -21l40 -47q36 -37 36 -49q0 -6 -8 -8q-4 -2 -45 -9q-37 -9 -64 -21q-34 -16 -56 -16z" />
    <glyph glyph-name="at" unicode="@" horiz-adv-x="1124" 
d="M495 539q33 22 95 92.5t62 75.5q-15 -3 -48 -33.5t-64.5 -69t-44.5 -65.5zM350 65q-64 0 -117 21q-91 36 -119 133q-11 34 -12 51q-1 5 -4 9v79q61 304 203 540q158 265 393 290h26q90 0 147 -51q126 -108 161 -179q21 -44 21 -104q-5 -110 -58 -221q-65 -136 -139 -169
q-79 -38 -131 -38q-58 0 -68 61l-2 7q-5 0 -16.5 -12.5t-36 -32.5t-84.5 -41q-93 -37 -140 -37q-54 0 -54 47q0 34 18.5 88t52 112.5t77.5 110t94.5 84.5t105.5 33q17 0 34 -4q12 -4 99 -81l17 -14q11 -12 11 -36q0 -13 -2 -42q0 -16 1 -23t1 -11q0 -10 -9 -14l-11 -4
q-16 -5 -16 -14l2 -22q43 18 71.5 83.5t28.5 142.5q0 53 -17 103t-54.5 86.5t-100.5 49.5q-12 3 -23 3q-59 0 -121.5 -47t-121.5 -123t-107 -166.5t-76 -182t-28 -165.5q0 -50 14.5 -87.5t46.5 -59.5t84 -22q54 0 132 27q184 69 292 190q34 36 45 36q6 0 10 -5
q43 -46 66 -60q18 -11 18 -20q0 -13 -42 -48q-65 -62 -160 -119t-201.5 -94.5t-200.5 -37.5z" />
    <glyph glyph-name="A" unicode="A" horiz-adv-x="775" 
d="M258 526q113 36 168 49q47 11 69 21.5t35 34t31 76.5q42 121 230 505q4 4 4 9l-1 4q-282 -268 -538 -697zM-96 -212q-17 0 -26.5 36.5t-22.5 113.5q-6 39 -7 50q0 36 19 88q52 140 52 152q0 7 -4 10q-204 34 -204 54q0 6 11 14l66 53q172 95 206 95q11 0 13 -11
q0 -7 2 -10q99 155 212 327q496 740 673 740q10 0 19 -3q86 -22 126 -22q21 -1 30 -3.5t9 -14.5q0 -11 -6 -32l1 -4q0 -18 -27.5 -78.5t-69.5 -148.5q-82 -166 -188.5 -403.5t-113.5 -359.5q0 -18 -7 -18l-11 1q-6 0 -9 -9q-35 -133 -35 -183q0 -22 4 -32.5t10 -13.5t12 -3
l12 1q3 0 3 -3t-6 -13q-24 -38 -42 -69q-28 -47 -46.5 -74t-31.5 -27q-8 0 -14 12q-36 64 -63 91q-19 21 -30.5 41t-11.5 56q0 60 38 201q0 4 -8 4q-33 0 -172 -51q-130 -48 -140 -61q-104 -261 -104 -310q0 -24 15 -24q7 0 7 -2t-7 -11q-71 -92 -95 -119t-38 -27z" />
    <glyph glyph-name="B" unicode="B" horiz-adv-x="979" 
d="M539 913q215 138 434 274q-4 2 -7 2q-195 -11 -250 -25q-45 -11 -47 -34v-15q-3 -28 -34 -58q-21 -19 -42 -51q-51 -75 -54 -93zM168 150l96 53q515 287 536 363q-1 13 -39 13q-90 0 -356 -64q-42 -8 -61 -8l-22 3q-5 0 -7 -5q-92 -182 -121 -293q-11 -43 -26 -62z
M-96 -225q-3 1 -10.5 5t-81.5 35q-62 24 -62 35q1 11 26.5 30t70.5 67q39 37 106 72q38 22 66.5 41t30.5 36l-1 5q-22 77 -22 121q0 63 41 168q35 89 119 254q119 235 232 415q27 42 28 48q-2 -1 -31 -6t-67 -13q-98 -21 -98.5 -30t-18.5 -9q-27 0 -54 11q-60 27 -93 40
q-49 21 -49 29q0 9 25 27q28 21 78 75q5 5 9 8t37 9q37 6 159 32q471 99 627 99q15 0 28 -1q6 -2 113 -10q34 -19 57 -85q19 -57 19 -104q0 -41 -16 -61q-55 -55 -389 -262q-148 -92 -153 -100l33 1q48 4 85 4q157 0 176 -80q36 -117 36 -163q0 -90 -105 -165
q-99 -71 -347 -213q-206 -119 -543 -324q-8 -5 -15 -13t-26 -18q-15 -10 -20 -10z" />
    <glyph glyph-name="C" unicode="C" horiz-adv-x="841" 
d="M198 -93h-7q-81 0 -126 70q-50 77 -50 215q0 115 38 264q90 356 359 713q89 119 209 218q81 65 129 65q46 0 119.5 -25.5t109.5 -46.5q55 -32 55 -117q0 -64 -35 -136.5t-89 -111.5q-79 -57 -116.5 -81t-53.5 -24q-17 0 -19 48q-3 31 -15 78q-8 28 -9 39q0 4 7 7
q34 7 84 73q46 69 46 99t-34 30q-31 -1 -54 -24q-98 -94 -194 -227.5t-199 -339.5q-85 -174 -118 -310q-31 -129 -31 -205q0 -88 31 -91q5 0 11 4q62 44 159 154q165 186 289 358q4 6 7 6q9 0 87 -24q96 -28 96 -49q0 -15 -23 -37l-189 -234q-288 -353 -474 -358z" />
    <glyph glyph-name="D" unicode="D" horiz-adv-x="975" 
d="M227 172l5 5q23 20 102.5 94.5t185.5 184t208 233t171 241.5t69 206q0 96 -95 134q-7 2 -22 2q-30 0 -79.5 -7t-90.5 -15t-52 -12q22 -6 32.5 -13t10.5 -20q0 -16 -13.5 -44.5t-39.5 -78.5q-172 -321 -392 -910zM-5 -250q-65 0 -161 18h-3v5q3 2 123.5 127.5t120.5 133.5
q-11 31 -23 53q-24 43 -24 82q0 68 72 251.5t278 616.5q6 8 6 17q0 5 -4 12q0 11 33 69q26 40 26 50q-10 -2 -72 -24q-108 -38 -108 -51q0 -7 6 -13t6 -10q0 -7 -31 -7q-41 0 -162 12q-58 5 -58 20q0 4 4 9q51 62 102 106q109 93 404 163q203 46 319 46q94 0 144 -23.5
t75.5 -61t42.5 -80.5q15 -33 33 -65q27 -48 27 -99q0 -125 -150 -320l-14 -22q-5 0 -36 -41q-223 -304 -932 -966q-12 -8 -44 -8z" />
    <glyph glyph-name="E" unicode="E" horiz-adv-x="830" 
d="M-138 -84q-9 0 -13 3q-135 124 -135 139q0 9 11 13q239 67 337 73q23 2 35.5 6t14.5 35q5 108 112 343q3 5 3 12q-88 -8 -136 -17q-40 -6 -60 -6q-25 0 -25 18q0 21 18 70q11 34 27 89q10 16 237 36q28 0 39 14q5 7 19 38l105 206q60 110 64 136q-1 1 -5 1q-11 0 -35 -4
t-50.5 -8t-45.5 -7.5t-21 -3.5q-19 -3 -26 -10.5t-58 -8.5q-33 0 -39 45q-4 28 -4 133q8 28 150 54.5t330 44.5t315 18q97 0 124 -13q47 -33 79.5 -54t49.5 -34.5t17 -24.5q0 -13 -30 -28q-103 -56 -127 -82q-13 -12 -18 -12q-7 0 -9 24l-1 5q-8 8 -63 8q-81 0 -220 -10
q-47 -4 -55 -4q-16 0 -120.5 -194t-104.5 -203q3 -1 25 -1q53 0 63 -7q64 -59 99 -78q36 -22 36 -29q0 -27 -140 -75q-66 -23 -82 -23q-4 0 -4 2l2 12q0 8 -30 8q-51 0 -61.5 -2.5t-12.5 -9.5l-84 -174q-75 -146 -75 -178q0 -25 31 -25q36 0 79 5q94 12 175 12
q154 0 216 -42q24 -18 24 -32q0 -15 -9 -38q-12 -29 -24.5 -91.5t-37.5 -62.5q-18 0 -56 43q-13 16 -26 28q-25 21 -181 21q-250 0 -524 -82q-64 -21 -89 -21z" />
    <glyph glyph-name="F" unicode="F" horiz-adv-x="768" 
d="M60 -265q-49 43 -81.5 68t-51 44t-18.5 47q0 21 11 49q4 8 10 8q52 15 168 316q0 3 1 3v2h1q0 2 1 2l-1 2h1l1 5h1v2h1q0 2 1 3.5t1 3.5l12 31q-57 -15 -77 -15q-11 0 -16 4l-28 49q-47 78 -47 101q0 21 28.5 32t99.5 27q51 12 129 32q17 14 221 498q0 5 2 7t2.5 3.5t2 4
t1.5 4.5t0.5 2.5t1 2t2 2.5t1.5 3t1 3.5t2 4.5q1 7 3 7v2h1q0 3 1 4t2 6t5 9q8 22 9 22l-1 1q-316 -98 -403 -98l-13 1q-65 16 -132 19q-18 1 -18 6t45 68q62 87 96 90q145 17 438 118q60 21 63 25q15 26 25 40q14 21 38 25q131 26 149 26q12 0 13 -5l-5 -27q1 -6 11 -6
q14 0 67 15q350 87 453 87q31 0 43.5 -14.5t20.5 -64.5q7 -40 28 -116l1 -12q0 -19 -26 -45q-6 -4 -10.5 -9t-11.5 -5q-6 0 -18.5 3.5t-54.5 9.5t-66.5 7t-25.5 7q0 3 4 7q13 19 16 22t3 6q0 4 -7 4q-79 -15 -132 -23q-255 -52 -301.5 -71.5t-80.5 -83.5t-89 -206
q-47 -119 -131 -316l-1 -4q0 -4 7 -4q51 6 61 6q67 0 224 -36q24 -6 25 -12q0 -3 -4 -8q-59 -78 -73 -111q-12 -24 -20 -25q-3 0 -7 3q-8 7 -37 7q-81 0 -197 -29q-70 -17 -81 -34l-62 -147q-169 -409 -218 -491z" />
    <glyph glyph-name="G" unicode="G" horiz-adv-x="1024" 
d="M427 -327q-43 0 -43 53q0 85 102 384q4 12 4 22q-147 -172 -246 -192l-49 -7q-82 -15 -136 -15q-43 0 -77 13q-41 15 -58 65l-10 29v88q4 7 7 31q7 117 103 337q109 244 266.5 463t327.5 366.5t317 174.5q3 0 5 1q6 0 11 2h23q2 -1 9 -2q44 0 74 -42q83 -114 91 -126
q17 -29 17 -62q0 -60 -77 -161q-9 -14 -10.5 -19t-5 -7.5t-28.5 -4.5q-30 -3 -122 -16q-13 -2 -22 -2q-19 0 -19 12q0 18 62 111q21 39 21 74q0 27 -8.5 45t-20.5 18l-6 -1q-170 -85 -318 -239t-260 -331t-175.5 -334t-63.5 -240q0 -68 43 -68q70 0 235 182q176 199 304 360
q-41 0 -172 -42q-84 -26 -115 -28q-9 0 -14.5 1.5t-13.5 1.5l-20 -2q-7 0 -7 7q0 16 58 156q5 7 52.5 20t235.5 53q148 29 198 29q28 0 40.5 -8t25.5 -24q18 -24 53 -51q21 -17 39.5 -34t18.5 -30q0 -9 -13 -14q-93 -32 -126 -40l-30 -10t-32 -43q-103 -199 -180.5 -433
t-105.5 -407q0 -14 1.5 -19t1.5 -10q0 -9 -14 -11q-48 -5 -85.5 -14.5t-62.5 -9.5z" />
    <glyph glyph-name="H" unicode="H" horiz-adv-x="1007" 
d="M536 -384q-32 0 -65 170q-6 27 -6 62q0 173 145 545l18 50q-1 18 -79 18q-77 0 -170 -12q-129 -18 -137 -34l-48 -121q-29 -77 -29 -94q0 -7 6 -15q41 -48 42 -71q0 -9 -4 -16q-18 -30 -42 -31q-32 0 -129 -4q-29 0 -55.5 5t-26.5 46q0 52 60 214q0 1 1.5 2.5t1.5 3.5
l-1 3q-10 -1 -16.5 -3.5t-10.5 -2.5q-7 0 -10 8l-35 94q-22 55 -23 69q0 9 13 14q103 52 156 61q15 3 24.5 7.5t33.5 62.5q71 168 212 431q186 347 222 349q3 0 24 -25q55 -67 72 -91.5t17 -43.5q0 -16 -24 -54q-32 -42 -85 -166q-2 -9 -10 -9h-10q-25 0 -128 -201
q-99 -192 -99 -207q96 4 164 4q75 0 114 -5q27 -2 45 -2q37 0 49 17t29 62q52 144 232 473q131 240 146 249q5 7 9 7q11 0 148 -59q7 -3 7 -13q0 -34 -109 -218q-73 -125 -168 -304q-232 -439 -345 -894q-23 -84 -23 -112q0 -15 6.5 -20t18.5 -8q33 -10 34 -22
q0 -14 -46 -57q-34 -32 -81 -86q-19 -25 -35 -26z" />
    <glyph glyph-name="I" unicode="I" horiz-adv-x="644" 
d="M-68 -164h-12q-43 0 -125.5 11.5t-83.5 24.5q0 9 20 24q164 164 266 178q14 4 22.5 7.5t12.5 13.5q26 74 137 318q232 513 373 802l32 69q7 8 10 19q-197 -62 -230 -64l-27 -1q-30 -1 -64 -13q-8 -3 -12 -3q-2 0 -2 3q0 5 2 17q8 51 8 121q0 25 3 35.5t15.5 15.5t40 11.5
t71.5 18.5q192 57 310 57q49 0 90 -11q17 -6 67.5 -37.5t99.5 -68t50 -55.5q0 -6 -9 -9q-159 -49 -172 -50q-11 0 -18.5 8t-23.5 16.5t-24 8.5l-3 -2q-29 -108 -103 -271t-183 -393q-89 -191 -152 -330t-63 -163q0 -5 3 -5q37 6 60 6q32 0 42 -11.5t15 -34.5q18 -62 44 -123
q11 -23 11 -32q0 -4 -5 -5q-5 0 -19 4q-35 8 -83 8q-149 0 -360 -94q-10 -5 -10 -12.5t-21 -8.5z" />
    <glyph glyph-name="J" unicode="J" horiz-adv-x="859" 
d="M29 -386q-55 0 -84 202q-33 221 -33 438q0 269 60 499q3 19 9 19q5 0 18 -12q21 -19 92 -59q32 -17 32 -26l-1 -4q-28 -90 -28 -324q0 -139 10.5 -273.5t28.5 -207.5q17 0 154 302t431 1031q3 5 3 14q-18 0 -50.5 -8.5t-95 -18.5t-165.5 -10q-196 0 -196 26q0 10 14 25.5
t38 40t56 59.5q14 14 55 28t72 14q22 0 27 -12q3 -8 25 -8q45 0 248 43q377 83 540 83q51 0 65.5 -13t22.5 -42q15 -46 44 -93q16 -22 16 -34q0 -10 -13 -20t-50 -32q-4 -1 -26 -1q-35 0 -89 4q-83 5 -83 17q0 6 18 24q14 12 16 19q-11 0 -41 -4q-129 -21 -156 -23
q-43 -2 -68 -18.5t-55 -83.5t-89 -220q-135 -351 -304 -739q-104 -238 -171 -369q-77 -184 -289 -232z" />
    <glyph glyph-name="K" unicode="K" horiz-adv-x="859" 
d="M627 -288h-21q-147 135 -222.5 245.5t-117.5 197.5q-27 51 -53 94q-6 -1 -18 -43q-16 -60 -29 -63q-26 -5 -56 -12q-63 -16 -101 -16q-27 0 -29 16l1 8q43 126 92 233q34 68 34 84q0 14 -19 14q-32 0 -75 -12q-35 -10 -52 -10q-10 0 -11 6q40 127 63 168q4 8 4 13
q0 8 -6 16.5t-12 25t-6 48.5q0 44 21 134q4 27 11 27q10 0 79 -76q43 -47 50.5 -57.5t14 -18.5t14.5 -8q3 0 6 2q19 12 32 19q20 12 31 21q17 13 46 76q39 80 80 159q228 454 236 454q5 0 18 -20q18 -27 86 -102q4 -4 4 -9q0 -6 -17 -74q-3 -14 -12 -14t-17 -14
q-134 -260 -134 -266q15 8 393 262q278 190 353 235q21 12 34 12q15 0 26 -15.5t28 -48.5q15 -29 42 -74q7 -11 7 -16q0 -6 -14 -16q-18 -11 -61 -54q-8 -8 -12 -14q-10 -13 -22 -15q-33 -2 -53 -7q-31 -8 -105.5 -64t-316.5 -212q-399 -242 -483 -339q-47 -54 -47 -111
q0 -53 34 -119.5t112 -196.5q7 -14 67.5 -110.5t71.5 -102.5q4 6 6 17q6 17 9 17t7 -4q87 -86 124 -130t37 -64q0 -14 -15 -21t-40 -14q-30 -8 -72 -27q-16 -5 -25 -14z" />
    <glyph glyph-name="L" unicode="L" horiz-adv-x="641" 
d="M-270 -260h-1q-6 0 -11 6q-29 44 -51 73q-42 54 -42 72v2q0 25 48 41q41 15 288 75v1q0 43 116 316q35 78 286 616q271 580 278 581q19 -1 37 -1h19q33 2 71 7q13 1 23 1q11 0 22.5 -1.5t12.5 -18.5v-2q0 -23 -27 -84t-91 -189q-130 -264 -359 -759q-169 -365 -169 -412
v-1q0 -4 3 -4h2l43 6q261 49 390 54q19 1 35 1q95 0 98 -30l-1 -9q-3 -10 -6 -26q-41 -158 -74 -173q-2 0 -5 5t-24 16q-34 18 -106 18q-13 0 -28 -1q-223 -9 -661 -134q-13 -5 -18 -18q-6 -17 -32 -22z" />
    <glyph glyph-name="M" unicode="M" horiz-adv-x="1045" 
d="M631 -388q-13 0 -70 37l-84 49q-15 10 -15 44q0 140 372 1067l35 81q-11 -1 -85 -103q-36 -50 -75 -101q-96 -125 -137 -125q-6 0 -11 3q-43 25 -75 41q-54 25 -78 48t-24 77q0 49 17 141q-16 -23 -155 -406q-38 -100 -79 -204q-98 -249 -128 -249q-4 0 -7 4
q-64 93 -82 113q-13 17 -13 21q17 69 264 716q168 410 232 428q17 4 82 59q22 22 32 22q12 0 14 -30q5 -35 19 -36q19 -2 19 -7t-4.5 -12.5t-9.5 -20.5t-5 -32q0 -12 3 -26q9 -48 9 -109q0 -92 -17 -238q-4 -36 -4 -47q27 27 74 91q189 270 512 548q30 30 41 30
q13 0 21.5 -33.5t15.5 -125.5q0 -64 -45.5 -175t-112.5 -256q-98 -209 -255.5 -635t-181.5 -635q0 -14 -9 -14z" />
    <glyph glyph-name="N" unicode="N" horiz-adv-x="1045" 
d="M427 -240q-12 0 -16.5 5t-6 24t-1.5 47q0 112 13 379q16 381 16 478q0 125 -12 145l-55 -126q-162 -362 -245 -606q-2 -6 -2 -10q0 -8 11 -12.5t11 -19.5q0 -22 -31 -86q-5 -6 -38 -20q-99 -42 -152 -42q-28 0 -32 16q6 89 92.5 306t221.5 527q99 231 209 495q7 17 12 17
t10 -7q54 -61 63 -61l7 2q2 0 3 -3q4 -15 35 -42q11 -9 11 -16q0 -5 -2.5 -10t-2.5 -12q0 -6 4 -13q63 -133 63 -535q0 -91 -4 -194l-1 -79l10 19q34 78 148 309q310 632 572 921h5l41 -85q39 -76 39 -97q0 -8 -3.5 -15.5t-10.5 -19.5t-17 -30q-14 -27 -24 -40.5t-17 -17.5
t-11 -5l-11 1q-8 -1 -19 -16q-553 -874 -686 -1383q-23 -76 -33 -77l-38 1q-58 0 -103 -8q-13 -3 -23 -4z" />
    <glyph glyph-name="O" unicode="O" 
d="M169 115q44 0 122.5 50.5t168.5 139t171.5 206t134 254t52.5 280.5q0 61 -8 95q-12 48 -28 48q-4 0 -7 -3q-99 -76 -179 -187.5t-128 -208t-48 -115.5q1 -1 2.5 -3.5t4.5 -2.5q4 0 8.5 2.5t9.5 2.5q6 0 11 -10l30 -62q36 -72 36 -90q0 -17 -22 -17q-30 3 -58 3
q-37 0 -69 -4q-27 -4 -49 -4q-32 0 -55 15t-37 60q-92 -224 -99 -409q0 -40 36 -40zM108 -45q-37 0 -71.5 13t-56.5 51.5t-22 116.5q0 91 40 248q64 220 165 432q189 406 232 406q17 0 27 -53q6 -25 14 -46t25 -27l3 4q45 70 136 168q127 139 212 139q54 0 84 -62
q42 -86 63 -132q32 -73 32 -124q0 -160 -65.5 -335t-167.5 -338.5t-216.5 -283t-216.5 -161.5q-33 -10 -68 -10q-75 0 -149 -6z" />
    <glyph glyph-name="P" unicode="P" horiz-adv-x="845" 
d="M349 552q16 0 76.5 49t139 126t153.5 165.5t125.5 172t50.5 140.5q0 81 -116 81q-25 0 -107 -9q-11 -3 -13 -10q-18 -46 -42 -85q-84 -139 -269 -630h2zM-45 -270q-6 0 -6 9l1 26q3 25 4 73q4 104 63 280q31 95 31 119q0 12 -5 17q-119 119 -119 155q0 25 63 25
q94 4 130 4l305 765q-27 0 -162 -75q-130 -72 -136 -89q29 -5 48 -5l22 1q11 0 11 -6q0 -8 -11 -33q-12 -32 -37 -109q-3 -9 -5.5 -12.5t-12.5 -3.5q-36 3 -55 3q-25 0 -40 5q-27 7 -89 82q-34 38 -61 82q-3 5 -6 7v28q120 139 279.5 221.5t325 118t295.5 35.5
q145 0 213 -35q80 -45 80 -157q0 -140 -113.5 -337.5t-300 -376t-413.5 -276.5q-10 -4 -13 -13q-12 -33 -32 -96q-45 -139 -45 -172q0 -8 10 -11q26 -9 26 -15q-17 -34 -44 -76q-72 -111 -195 -157z" />
    <glyph glyph-name="Q" unicode="Q" horiz-adv-x="964" 
d="M253 122q4 0 9 3q59 37 141.5 112t171 180t165 232t124.5 267.5t48 285.5q0 52 -7 104q-1 7 -15.5 15.5t-42.5 8.5q-75 0 -178 -81q-80 -62 -172 -184q-60 -80 -71 -103q103 -6 133 -10.5t30 -13.5q0 -3 -1.5 -7.5t-1.5 -11.5q0 -19 21 -38q7 -6 7 -14q0 -10 -17 -36
q-33 -63 -41 -91q-5 -24 -13 -24q-7 0 -50 60q-1 1 -3 1q-6 0 -18.5 -13.5t-25 -31t-21.5 -31.5t-10 -15q6 -5 13 -5.5t12 -4.5q-2 -7 -13.5 -25.5t-22.5 -42.5q-23 -57 -29.5 -71.5t-11.5 -14.5q-11 2 -19 5q-13 5 -19 5q-4 0 -9 -10q-88 -186 -88 -325q0 -70 25 -75z
M39 -255h-66q-14 12 -76 24q-40 9 -73.5 19.5t-33.5 26.5q0 6 6 13q62 70 89 110q6 10 10.5 15.5t30.5 10.5q62 13 195 61q-36 47 -60 94q-22 43 -22 105q0 139 148 435q13 26 13 31l-1 4q-27 54 -27 96q0 63 36 142q86 198 191.5 325t216.5 188t208 61q80 0 144 -39.5
t100.5 -115.5t36.5 -186q0 -124 -55 -287.5t-180.5 -362.5t-333.5 -430q3 -4 19 -4q24 0 54.5 -11t64 -58.5t61.5 -166.5q0 -4 -6 -4q-11 0 -59 16q-114 36 -133 36q-82 0 -293.5 -44.5t-211.5 -64.5q7 -19 7 -39z" />
    <glyph glyph-name="R" unicode="R" horiz-adv-x="974" 
d="M425 664q2 0 33.5 21.5t74 52t80.5 57.5t55 40q197 142 299 225t102 121t-107 38q-118 0 -318 -21q0 -6 18 -22q10 -10 10 -14q0 -24 -43 -105t-95 -173q-110 -197 -110 -217zM-31 -143q-14 0 -14 10q0 21 61 233q0 10 -8 11q-67 -5 -93 -5q-12 0 -19 2t-7 12
q-4 77 -14 109q-6 19 -6 32q0 15 11 28.5t41 34.5q51 34 184 120q14 14 66 138q133 311 274 558q8 13 8 29q-222 -23 -339 -95q-25 -16 -37 -16q-11 0 -15 17t-20 121q-2 9 -5 17t-3 16q0 25 77 48q90 26 373 74q181 30 335 30q171 0 294.5 -33t176.5 -93q16 -19 16 -44
q0 -99 -250 -304q-151 -123 -481 -352q-135 -92 -224 -157.5t-89 -86.5q0 -8 16 -8q161 -1 340.5 -26t251 -47t104.5 -44t33 -33q0 -5 -4 -7q-157 -91 -170 -91q-7 0 -7 7q0 17 -55 28t-199.5 26t-217.5 15q-151 0 -157 -18q-4 -19 -28.5 -90.5t-24.5 -76.5q0 -6 6.5 -12.5
t6.5 -13.5q0 -9 -6 -15.5t-12 -7.5q-53 -13 -88 -23q-61 -17 -82 -17z" />
    <glyph glyph-name="S" unicode="S" horiz-adv-x="961" 
d="M284 -255q-34 0 -65 7q-90 11 -179 42q-70 27 -70 99q0 48 30 103q22 41 62 75q112 94 116 94q5 0 8 -20q4 -31 45 -133l1 -6q0 -9 -9 -18q-12 -13 -33 -53q-5 -10 -5 -14q0 -7 49 -7q108 0 234 73q46 27 60 42q92 103 92 198q0 57 -31.5 92t-76.5 39q-488 35 -488 181
q0 56 43.5 128t111 149t142 148.5t139.5 128t101.5 87.5t93 75t123 87.5t131.5 73.5t116 30q32 0 53.5 -13.5t27.5 -35.5q0 -11 6 -17l29 31q57 68 119 110h17q17 -11 41.5 -15.5t50.5 -6.5t45.5 -6.5t19.5 -18.5q0 -13 -20 -36q-48 -56 -75.5 -87t-39.5 -43t-17 -12
q-3 0 -4.5 8.5t-5.5 12.5q-55 -55 -126 -152q-68 -93 -125 -194.5t-57 -158.5q0 -10 2.5 -12t8.5 -2q15 0 15 -7q0 -22 -80 -103q-48 -49 -63 -49q-35 0 -55 208q0 53 30 111.5t64 110.5q29 46 29 50t-10 6.5t-10 9.5q0 6 24 45q28 42 34 63q-53 -8 -201.5 -122t-299 -267
t-208.5 -278l-1 -6q0 -17 39.5 -23t100.5 -10q75 -4 158 -16t146 -46t79.5 -103.5t34.5 -108.5t21 -85q0 -66 -45 -132q-90 -133 -262 -229q-130 -72 -231 -72z" />
    <glyph glyph-name="T" unicode="T" horiz-adv-x="735" 
d="M172 -210h-4q-45 0 -156 73q-20 12 -20 34q0 61 79 270q221 548 455 989q1 0 1 6l-151 -45q-195 -59 -243 -59q-47 0 -76 25.5t-74 90.5q-14 18 -14 21q0 12 57 30q42 11 93.5 34t70.5 23q4 0 6 -2t3 -18q20 2 198 53q823 232 1004 232q21 0 40.5 -3t20.5 -21
q-23 -221 -63 -221q-12 0 -25 22q-8 12 -18 18q-6 3 -20 3q-45 0 -192 -29q-119 -23 -230 -51q-50 -14 -106 -27q-13 -3 -15 -19l-4 -14v5q-4 -1 -62 -106q-229 -420 -469 -1011q-63 -168 -63 -187q0 -12 3 -30q4 -29 4 -39q0 -44 -30 -47z" />
    <glyph glyph-name="U" unicode="U" horiz-adv-x="1151" 
d="M759 -207q-6 0 -41 25q-18 14 -65 45q-28 20 -42 32.5t-14 29.5q0 26 24 90q84 263 126 370q30 77 30 92q-225 -283 -331 -397q-110 -118 -175 -118q-31 0 -60.5 19.5t-70.5 52.5q-28 23 -64 50q-26 20 -35 50q-2 9 -7 13l-4 80q4 2 4 29q0 185 211 729q139 340 232 425
q40 36 70 50.5t49.5 31t28.5 16.5q6 0 7 -10q8 -107 8 -128q0 -80 -25 -131q-7 -13 -14 -13q-3 0 -10 6l-4 1q-4 0 -10 -9q-136 -244 -239 -529q-122 -339 -131 -460q0 -59 45 -59q32 0 287 320q432 540 536 708q16 24 26 36q15 20 46 37t120 77q10 8 17 8q3 0 4 -9
q9 -107 9 -124q0 -34 -5 -69l-8 -18q-134 -284 -270 -596q-215 -495 -215 -601l1 -43q0 -34 -5 -58t-29 -48q-3 -3 -7 -3z" />
    <glyph glyph-name="V" unicode="V" horiz-adv-x="1035" 
d="M241 -249h-5q-27 0 -51.5 22t-53.5 60q-26 30 -58 65q-23 27 -23 116q0 105 31 274q80 421 231 956q40 141 66 159q13 9 32 11q27 2 87 30q27 12 36 13q7 0 7 -12q0 -35 -28 -159.5t-78.5 -305t-84.5 -332t-67 -307.5q-29 -136 -29 -208q0 -55 21 -64q29 2 155 171
q285 419 702 1081q187 297 208 309q11 7 29 10q41 9 103 36q21 12 31 12q8 0 8 -13l-13 -90q-12 -46 -128 -238q-212 -351 -543 -861q-309 -474 -434 -618q-97 -113 -151 -117z" />
    <glyph glyph-name="W" unicode="W" horiz-adv-x="1394" 
d="M815 -131h-33q-38 15 -54 54q-26 52 -49 81.5t-37 61.5t-14 96q0 133 89 518q-25 -13 -286.5 -353t-314.5 -390q-27 -23 -47 -23q-22 0 -31 23q-28 59 -64 107l-16 24q-13 20 -13 57q0 140 169 503q122 263 219 433q51 94 56 113q7 23 137 23q63 0 69 -9q2 -5 2 -31
q0 -21 -3 -27q-14 -22 -81 -111q-15 -21 -85 -156q-198 -385 -251 -593l232 297q349 444 418 462q61 2 98 6q26 3 42 3q33 0 33 -25q0 -34 -29 -125q-40 -129 -110 -458q-30 -154 -30 -266q0 -23 2 -27q35 26 379 682q320 610 363 700q5 7 44 12.5t80 5.5q77 0 77 -18
q-207 -424 -483 -930q-360 -658 -478 -720z" />
    <glyph glyph-name="X" unicode="X" horiz-adv-x="889" 
d="M519 -372q-17 0 -27 23q-38 82 -115 644q-17 124 -21 132q-18 -5 -322 -358q-152 -177 -163.5 -188.5t-33.5 -11.5q-9 1 -17 4q-66 24 -122 31q-32 6 -43 11v5q29 26 348 378q323 360 323 370q-51 396 -97 553q-14 45 -14 66q0 22 23 96q28 123 53 123q13 0 43 -50
q12 -21 29 -46q96 -155 125 -477q7 -76 14 -85q10 6 124 124q445 466 661 636h5q7 -37 14 -66q14 -63 14 -99q0 -35 -22.5 -61.5t-77.5 -73.5t-152 -139q-118 -114 -208 -197q-180 -163 -253.5 -255.5t-73.5 -219.5q0 -66 16 -156t41 -217q25 -120 56 -286q6 -23 20 -40
t25 -41t11 -75q0 -15 -9.5 -17.5t-54.5 -7.5q-54 -8 -83 -20q-22 -9 -36 -9z" />
    <glyph glyph-name="Y" unicode="Y" horiz-adv-x="799" 
d="M95 -263q-31 0 -74.5 19.5t-77 43.5t-33.5 37q7 76 69 195t144 245t149 223q88 123 88 137q-22 78 -45 170q-36 149 -82.5 292t-116.5 232q-13 16 -13 37q5 59 8 105q2 37 4.5 52t9.5 15q9 0 27 -12q23 -16 70 -38q33 -13 61 -36t58 -84q61 -125 167 -541q0 -6 4 -11
q21 14 105 121q77 98 185.5 224t226 231t222.5 142l9 2q9 0 12 -9l4 -107q4 -26 4 -48q0 -36 -15 -36l-7 2q-49 0 -334 -334q-292 -345 -522 -680q-273 -400 -273 -539l1 -20q0 -30 -35 -30z" />
    <glyph glyph-name="Z" unicode="Z" horiz-adv-x="1098" 
d="M-354 -82q-8 0 -8 9q0 6 2 18t2 37q0 34 -8 74q-3 14 -3 24q0 12 7 23q12 15 84 67q99 70 330 250q407 324 884 665q48 32 96 66q-389 0 -638 -35q-59 -8 -86 -8q-32 0 -39 15t-7 54q0 59 -10 97q-3 7 -3 11q0 12 35 15l158 10q138 5 446 22q52 4 153 4q114 0 160 -9
q1 0 1 -2q25 -5 106 -44q106 -53 106 -91q0 -7 -5 -15q-1199 -855 -1282 -948q218 35 369.5 54.5t256.5 19.5q114 0 192 -25t143 -79q2 0 2 -1q14 -9 14 -15q0 -9 -144 -70q-46 -20 -72 -20q-20 0 -22 16q-5 12 -61 12q-79 0 -223 -16q-233 -25 -433 -57q-330 -60 -465 -116
q-29 -12 -38 -12z" />
    <glyph glyph-name="bracketleft" unicode="[" horiz-adv-x="881" 
d="M-8 -425q-31 0 -33 25q0 58 61.5 209.5t155.5 352.5t199 417q99 204 185.5 389t142 320t55.5 184q0 23 -12.5 23.5t-18 1.5t-5.5 7q0 9 13 36q32 76 38.5 100.5t14.5 24.5q4 0 9 -2t12 -2q24 0 79 10q43 7 94 14t120 7q25 -4 100 -99q31 -41 40 -64q0 -9 -50 -9
q-62 0 -225 -18q-20 -8 -113 -257q-141 -354 -338 -761q-231 -475 -319 -629q-16 -27 -16 -35q0 -4 5 -4q8 0 28 7q89 25 120 25q5 0 81 -75q45 -41 45 -52q0 -10 -43 -26q-36 -12 -103 -44q-6 -3 -9 -3q-103 -15 -225 -53q-63 -20 -88 -20z" />
    <glyph glyph-name="backslash" unicode="\" horiz-adv-x="800" 
d="M995 -530l-142 2q-35 10 -140.5 233t-248.5 549q-138 314 -281 623q-165 356 -278 540q-19 25 -19 39q0 5 3 10q15 30 24 67q15 63 34 63q24 0 81 -84.5t174 -311t316 -641t504 -1069.5q5 -9 5 -13q0 -7 -32 -7z" />
    <glyph glyph-name="bracketright" unicode="]" horiz-adv-x="928" 
d="M-21 -399q-19 0 -26 39q-2 8 -17 8q-18 0 -51 -7q-60 -13 -109 -13q-32 1 -35 3q-9 4 -20 36q-51 129 -51 140q0 19 31 19l57 -5l172 3l23 -1q17 0 138 237t268 546.5t259.5 563t112.5 285.5q0 4 -2 4l-32 -1q-23 0 -109 8q-15 0 -22 -3t-11.5 -6.5t-7.5 -3.5
q-4 0 -21 103q-11 48 -11 70q0 16 7 21.5t24 5.5q15 0 38 -3q40 -6 113 -6q49 0 115 6q22 3 37 3q13 0 27 -5q91 -29 124 -31q24 0 24 -8q0 -6 -13 -23q-16 -21 -45 -72q-53 -101 -203 -434q-256 -570 -447 -954q-261 -525 -337 -525z" />
    <glyph glyph-name="asciicircum" unicode="^" horiz-adv-x="694" 
d="M131 1413q-7 0 -18 3q-32 7 -68 7q-18 0 -23 2t-5 14q2 57 6 79q-3 0 -76 -61q-6 -6 -14 -6q-6 0 -15 2q-16 5 -55 7q-37 0 -37 6l13 21q42 66 68 81q4 2 68 55q113 98 124 98q6 0 11 -13l26 -95q4 -15 4 -35q0 -35 -6 -74q-4 -30 -4 -48q0 -8 1 -13q6 -17 6 -24
q0 -6 -6 -6z" />
    <glyph glyph-name="underscore" unicode="_" horiz-adv-x="1372" 
d="M425 0q-95 0 -137 10.5t-79 28.5q-17 8 -38 16q-100 37 -100 51q0 13 154 49q81 21 99 21q40 -2 83 -2q77 0 360 18q206 16 290 16q53 0 69.5 -8t16.5 -26q0 -12 -3 -27q-5 -22 -5 -61l3 -47q0 -15 -17 -15q-10 0 -27 2q-32 5 -113 5q-61 0 -156 -7q-274 -24 -400 -24z
" />
    <glyph glyph-name="grave" unicode="`" horiz-adv-x="553" 
d="M122 1426h-37q-43 0 -62.5 3.5t-30 16t-23.5 38.5q-17 43 -88 143l-2 5q0 3 2 5q80 93 84 93q2 0 6 -3q5 -5 10 -8q11 -5 14 -13q16 -38 56 -111q28 -52 52 -99t24 -64q0 -6 -5 -6z" />
    <glyph glyph-name="a" unicode="a" horiz-adv-x="744" 
d="M443 559q9 0 15.5 22t20.5 85q17 88 67 292q0 3 -1 4.5t-1 2.5q-151 -173 -267 -378l57 3q56 0 89 -22q12 -9 20 -9zM469 0q-10 0 -15 25q-27 122 -32 241q1 33 6 81q2 28 2 44q-7 -4 -11 -4q-6 1 -11 9q-14 17 -33 19q-12 1 -28 1q-53 0 -147 -12q-9 -1 -13 -6.5
t-27 -62.5q-2 -4 -2 -7q0 -8 12 -11.5t12 -8.5q0 -9 -37 -37q-13 -10 -35 -29q-70 -64 -90 -64q-6 0 -8 6q-25 80 -26.5 127t-15.5 48t-14 4v13q2 30 2 51q0 33 -5 67q-2 12 -2 20q0 14 10 19l79 16q317 567 510 671q10 6 20 6q16 0 77 -34l68 -37q44 -20 44 -74
q0 -53 -35 -165q-85 -274 -133 -681l-1 -29q0 -31 6 -65q2 -13 2 -23q0 -16 -9 -23q-60 -42 -86 -70q-23 -25 -34 -25z" />
    <glyph glyph-name="b" unicode="b" 
d="M374 771q164 127 251 186q89 63 89 73q0 6 -18 6q-27 0 -134 -14q-25 -3 -42 -3q-30 -2 -45 -8t-26 -29.5t-28 -75t-47 -135.5zM111 221q141 59 280.5 127.5t236 121.5t96.5 58q-82 -1 -189 -19q-100 -18 -151 -18q-34 0 -67 15q-16 8 -29 8q-42 0 -97 -198
q-9 -12 -81 -93zM10 -8q-89 24 -130 26q-23 0 -23 6q0 8 55 71q87 100 114 100q5 0 7.5 -2t8.5 -2q11 0 11 15q-38 84 -54 102q-11 19 -11 25q1 9 8 23.5t16 40.5q122 331 179 446q41 85 41 112q0 13 -12.5 18t-39.5 8q-41 4 -115 26q-3 1 -3 5q1 12 28 44q54 64 96 99
q1 0 2.5 1.5t7.5 1.5q32 3 117 18q267 47 391 47q84 0 121 -23q31 -20 40.5 -55t13.5 -84q1 -30 6 -64q-1 -40 -55 -92q-84 -80 -250 -192q-6 -3 -7 -8q125 13 197 13q101 0 123 -38.5t30 -124.5q8 -58 8 -63q-2 -68 -311 -231q-253 -133 -496 -230q-96 -39 -114 -39z" />
    <glyph glyph-name="c" unicode="c" horiz-adv-x="687" 
d="M268 64q-29 0 -54 11q-30 13 -83 41q-136 70 -136 222q0 117 69.5 252.5t172 255.5t210 197.5t183.5 77.5q55 0 65 -45q6 -30 6 -78q0 -38 2 -73l1 -52q0 -43 -10.5 -88t-49.5 -89q-1 -1 -5 -1q-27 0 -116 51q-55 30 -55 40q0 9 14 24q21 23 32 64q-72 -61 -147.5 -176.5
t-129 -231t-53.5 -167.5q0 -14 5 -21q26 -37 51 -37q9 0 17 7q173 147 206 214q5 11 12 19q10 13 75 43q90 42 105 47q5 0 5 -8l-1 -56q0 -58 6 -75q2 -12 2 -20q0 -16 -21 -42q-110 -131 -188 -202q-115 -104 -190 -104z" />
    <glyph glyph-name="d" unicode="d" horiz-adv-x="819" 
d="M374 517q77 72 206 211q180 196 180 234q0 3 -1 5q-27 32 -78 32q-31 0 -61.5 -9t-50 -20.5t-19.5 -17.5l4 -43q0 -8 -15 -38q-46 -77 -166 -353zM-186 -87q-9 0 -9 7l3 11q32 97 32 128q1 7 2.5 7.5t4.5 2.5q32 7 170 116q97 78 97 97l-1 4q-24 14 -24 22l2 7
q134 352 202 483q20 37 24 56q-5 0 -38 -15q-37 -17 -37 -27l3 -10q0 -3 -4.5 -4t-15 -2t-26.5 -4q-136 -24 -167 -24q-16 0 -16 6l3 8q30 100 31 125q8 13 19 25q131 67 208 104q266 127 413 127q67 0 107 -34l47 -42q44 -36 73 -70t29 -79q0 -52 -51.5 -132.5t-174.5 -212
t-336 -331.5q-171 -162 -259.5 -233t-137 -89.5t-102.5 -19.5q-26 -1 -59 -6z" />
    <glyph glyph-name="e" unicode="e" horiz-adv-x="672" 
d="M230 70q-22 0 -64 13t-86.5 37.5t-76 56t-32.5 70.5q3 94 72 218l3 7l-1 6h-23q-53 0 -53 12q0 10 22 34q10 10 34 41q46 64 62 71l48 14q19 6 119 172q5 5 18 28v2q-27 -5 -27 -19q0 -6 -7 -6q-20 2 -100 39q-89 41 -90 63q0 6 8 10q138 66 313 100q197 38 342 38
q182 0 184 -49q-2 -23 -2 -45q1 -34 5 -60.5t4 -49.5q0 -37 -27 -37q-35 0 -139 61q-6 4 -21 4q-22 0 -53 -3q-41 -4 -113 -8q-51 -2 -51 -19q0 -6 3.5 -16.5t3.5 -32.5q0 -16 -8 -39q-6 -17 -10 -18q-3 0 -7.5 3t-12.5 5q-5 0 -22 -25q-14 -20 -19 -29q0 -2 11 -2
q25 3 38 3q22 0 32.5 -12.5t19.5 -35.5q18 -40 52 -84q16 -21 16 -31t-34 -11l-18 1q-61 -1 -120.5 -2.5t-96 -19t-71 -78t-82.5 -185.5l-1 -4q2 -15 27 -15q18 0 29 6q150 94 202 124q37 21 53 21q15 0 16 -30q0 -79 6 -113l1 -14q0 -9 -6 -17q-13 -17 -141 -92
q-85 -51 -129 -58z" />
    <glyph glyph-name="f" unicode="f" horiz-adv-x="697" 
d="M130 -31l-2 1q-34 41 -57 64t-36 41t-14 45q0 64 81 264v9q-26 -7 -47 -14q-71 -23 -97 -25q-19 0 -20 15q0 16 4 40q9 44 9 94q0 23 34 41q49 24 201 64q22 11 109 208q0 1 1 1v2h1v2h1v2l1 1v2h1v2h1v2h1v2h1l-1 2h1v2h1v2h1l7 15q-35 0 -37 -25q-1 -5 -3 -9t-17 -5
q-16 0 -27 8q-131 119 -132 143q0 21 132 45.5t179 26.5q7 0 14 10q9 17 26 21q55 11 93 21q45 13 66 14q18 0 19 -11q0 -7 -6 -23q-2 -5 -2 -9q103 11 193 11q129 0 131 -33q0 -13 -9 -34t-17 -54t-11.5 -51.5t-6.5 -28.5t-11 -17q-4 -3 -8 -3q-14 0 -36 25t-35 27
q-51 2 -91 2q-147 0 -176 -24q-23 -19 -35 -59q-7 -21 -20 -48.5t-20 -36.5l-12 -9q-3 0 -5 4t-6 6l-2 -1q-4 -5 -18 -35q-21 -45 -21 -50q0 -1 6 -1q18 5 40 6q102 0 216 -118q14 -17 15 -30q0 -11 -14 -16q-155 -47 -167 -48l-6 4l2 16q0 20 -30 20q-24 0 -42 1
q-19 0 -35 -1q-35 -1 -59 -21.5t-48 -84t-57 -194.5q0 -5 3.5 -5t3.5 -4q0 -22 -43.5 -114t-55.5 -92z" />
    <glyph glyph-name="g" unicode="g" horiz-adv-x="800" 
d="M491 -139q-4 0 -12 11q-78 84 -94.5 109t-16.5 58q0 28 9 75q5 28 10 66l-2 2q-125 -121 -200 -121q-38 0 -69 33q-83 89 -113 133.5t-30 106.5q0 68 47 178q93 210 224.5 353t265.5 217q127 69 215 69q125 0 125 -112q0 -69 -50 -173q-35 -77 -43 -115q-6 -29 -13 -29
q-3 0 -7 4q-117 126 -117 161q0 17 9 32l4 12q-11 0 -40 -21q-58 -42 -92 -73q-234 -213 -308 -406q-32 -84 -32 -131q0 -30 13 -32q15 0 137 122q86 87 87 95q-4 2 -11 3q-13 0 -31.5 -2t-32.5 -2q-15 1 -16 7q1 3 46 85q22 39 35.5 56.5t34.5 24t65 12.5q32 5 81 14
q115 27 285 31q39 -2 54 -28t33 -87q24 -74 24 -78q0 -5 -6 -5t-17.5 2.5t-47.5 3.5q-47 -2 -128.5 -4t-91.5 -4t-14 -12q-92 -285 -98 -435q-3 -39 -9 -52q-42 -92 -50 -127q-5 -27 -12 -27z" />
    <glyph glyph-name="h" unicode="h" horiz-adv-x="811" 
d="M408 -90q-8 0 -9.5 2.5t-1.5 10.5q0 44 9 110q41 313 92 446v4q-6 0 -15 11q-13 17 -52 17q-68 0 -153 -36q-30 -13 -33 -19l-9 -20q-55 -146 -55 -158l1 -1q5 -1 6 -14q0 -49 -24 -148q-15 -64 -29 -65q-7 0 -24 13q-23 18 -90 55q-27 12 -33.5 17.5t-7.5 26.5
q0 47 40 174q4 10 5 20q-29 -4 -53.5 -9t-39.5 -5t-16 7l22 76q16 73 43 101.5t117 52.5q9 4 77 144q123 270 176 308q129 82 157 83q10 0 11 -13q-18 -122 -31 -185q-24 -107 -45 -108q-5 0 -12 6.5t-11 6.5q-5 0 -42.5 -74.5t-37.5 -83.5q11 0 36 7q72 22 116 22t58 -25
q4 -8 8 -8q5 0 25 49q25 67 135 302q68 147 112 245q11 24 16 24q3 0 71 -50q44 -29 63 -45.5t20 -34.5q0 -25 -22 -62q-395 -791 -395 -1053q0 -49 7 -64q2 -6 2 -9q0 -5 -42 -16q-120 -34 -142 -35z" />
    <glyph glyph-name="i" unicode="i" horiz-adv-x="470" 
d="M-76 7q-9 0 -16 15q-32 88 -49 118q-12 20 -12 30q0 9 18 20q105 63 150 63q11 0 17 -3l2 1q0 104 255 623q4 6 4 15q-18 -9 -34 -13q-23 4 -44 4q-14 0 -18 1t-5 15l1 45l-1 41q0 44 5.5 64.5t33.5 31.5t124 32q107 26 135 26q21 0 52 -17q25 -17 108 -48q26 -8 27 -15
q0 -3 -6 -8q-56 -43 -84 -61q-23 -15 -39 -29t-33 -41q-24 -39 -179 -388q-113 -245 -113 -261q0 -11 28.5 -12t84.5 -20q15 -5 15 -13q0 -14 -89 -98q-37 -38 -42 -38q-2 0 -5 6q-6 10 -18 10q-16 0 -19 -10q-6 -19 -14 -19q-4 0 -11 9q-11 12 -21 12q-139 -24 -171 -61
q-25 -26 -37 -27z" />
    <glyph glyph-name="j" unicode="j" horiz-adv-x="563" 
d="M61 -194q-11 0 -26.5 20.5t-48.5 69.5q-14 21 -34 50t-36 102q-28 123 -28 257q0 166 59 173q40 5 130 35q3 0 3 -7q0 -5 -2 -14q-17 -55 -17 -164q0 -115 8 -133q9 11 150 371q121 308 149 370q19 39 19 52q0 8 -9 8q-13 -1 -37.5 -8t-59.5 -16q-45 -12 -57 -30
q-2 0 -5 6q-18 38 -69 103l-9 10q-17 15 -17 27t34 24q53 18 416 84q134 24 236 24q71 0 72 -19q0 -4 -51 -82q-43 -66 -51 -67q-3 0 -6 2.5t-8.5 4t-17.5 1.5q-127 -14 -154 -23q-12 -4 -14 -13q-13 -15 -178 -437q-94 -239 -183 -457q-131 -322 -158 -324z" />
    <glyph glyph-name="k" unicode="k" horiz-adv-x="718" 
d="M52 45q-6 0 -80 74q-42 42 -42 52q0 6 32 100q0 10 -51 16q-6 0 -11 -2t-11 -2q-29 0 -52 128q-2 8 -11 11.5t-9 8.5q0 1 1.5 1.5t3.5 2.5t5 6t3 10l-1 7q-3 10 -3 16q0 9 6 9q7 0 15 -3.5t16 -3.5q5 0 8 3q82 85 198 149q54 29 70 52l94 160q196 344 220 347
q58 19 90 38q26 16 39 16q11 0 11 -20q0 -32 -17 -117q-5 -39 -104 -208q-12 -19 -23 -39q8 1 134 70q435 243 460 243q3 0 4 -2q15 -56 25 -90q16 -50 16 -69q0 -12 -7 -18t-20.5 -13t-34.5 -20l-414 -224q-335 -176 -366 -212q-56 -99 -56 -107q0 -6 15 -8
q178 -51 235 -74q43 -18 184 -88q41 -21 41 -37q0 -10 -9.5 -18t-31.5 -24q-17 -13 -32 -28q-54 -60 -77 -60q-12 0 -15 29q-2 16 -8.5 26.5t-31.5 21.5q-44 16 -332 91q-17 -8 -35.5 -66.5t-22.5 -83.5q-7 -51 -18 -51z" />
    <glyph glyph-name="l" unicode="l" horiz-adv-x="523" 
d="M590 75l-11 1q-167 26 -167 35q0 4 2 6q-1 7 -23 7q-26 0 -79 -9q-221 -23 -334 -23q-122 0 -233 21q-16 2 -16 7q0 6 12 21q20 22 58 89q8 21 18 32t53 11l28 -1q22 -2 39 -2q36 0 41 13q0 65 42 165t144 306q231 476 236 490q17 34 21 34q10 0 113 -49q62 -31 63 -44
q0 -7 -6 -13q-10 -17 -10 -39l-51 -100q-346 -670 -346 -731q0 -6 3 -6q226 11 250 11q29 0 53.5 -3.5t34.5 -21.5q86 -139 86 -183q0 -20 -21 -24z" />
    <glyph glyph-name="m" unicode="m" horiz-adv-x="827" 
d="M434 -206q-4 0 -8 5q-62 92 -76 117q-16 30 -16 64q0 40 21.5 101.5t65.5 172.5q39 99 97 251q-13 -5 -48.5 -52t-74 -104t-59.5 -91l-14 -20l-4 -2q-12 0 -35 34.5t-43 72t-25.5 52t-5.5 38.5q0 29 3.5 65t3.5 64q-5 -5 -40 -82q-28 -62 -34 -77q0 -1 -1 -1
q-42 -99 -54 -147q-1 -4 -7 -6q-37 -22 -100 -85q-19 -20 -26 -20q-5 0 -12 37q-21 85 -24 136q0 83 215 510q75 148 102 193q2 3 4 7.5t7 4.5q7 0 112 -56q52 -29 52 -37q0 -3 -2 -5.5t-3.5 -5t-1.5 -7.5t3 -12q15 -35 15 -110l-1 -91q0 -14 1 -16l110 135
q80 100 126.5 153.5t75.5 73.5t61 20q27 0 99 -14q50 -7 50 -16q0 -5 -5 -14q-50 -103 -145.5 -331.5t-178 -446t-82.5 -256.5q0 -5 6.5 -6.5t6.5 -7.5q0 -9 -19 -36q-31 -44 -52 -92q-28 -60 -40 -60z" />
    <glyph glyph-name="n" unicode="n" horiz-adv-x="747" 
d="M-76 -39q-8 0 -11.5 14t-12.5 64q-6 35 -6 50q0 77 84.5 280.5t153 348.5t128.5 247.5t78 102.5q57 -19 102 -19q12 0 20 3q3 -9 17.5 -9t14.5 -15t14 -18q9 -3 9 -34q0 -18 -5.5 -69t-10.5 -94.5t-30 -142.5t-30 -165q36 62 173 329q169 332 177 386q1 8 7.5 15t14.5 7
q4 0 8 -3q100 -88 117 -105q20 -21 20 -37q0 -15 -13 -35q0 -5 -335 -663q-133 -262 -155 -273q-7 -4 -51 -11q-91 -20 -126 -20q-32 0 -48 19t-16 72q0 99 74 453h-3q-173 -350 -173 -359q0 -3 9.5 -4.5t9.5 -7.5q0 -4 -4 -12q-27 -53 -42 -90q-19 -46 -36 -68
q-25 -30 -43 -53q-68 -84 -80 -84z" />
    <glyph glyph-name="o" unicode="o" horiz-adv-x="659" 
d="M133 242q34 0 109 85t151 214.5t121 269.5q1 4 1 11q0 17 -6 48t-15 56t-17 25l-3 -1q-36 -29 -36 -41q0 -7 14 -15q21 -13 21 -39q0 -11 -4 -15t-47 -15q-47 -10 -53 -13q-6 0 -20 -19q-21 -27 -21 -36q0 -7 4 -13.5t4 -9.5q-3 -6 -6 -6l-7 1q-11 0 -27 -22
q-20 -26 -65 -116q-117 -240 -117 -318q0 -31 19 -31zM75 38q-42 0 -74 17q-71 38 -71 157q0 90 33.5 211t89 247t123.5 233.5t139.5 175t134.5 67.5q32 0 60 -20q87 -60 133 -101t57 -90q0 -158 -43 -295.5t-112.5 -248.5t-152.5 -190t-166.5 -121t-150.5 -42z" />
    <glyph glyph-name="p" unicode="p" horiz-adv-x="738" 
d="M241 594q13 0 102.5 42t194.5 118t175 179l2 5q0 17 -90 17q-92 0 -152 -10l-72 -11q-13 -3 -17 -17l-7 -19q0 -1 -1 -1q-2 -6 -19 -43q-112 -241 -116 -260zM-29 -56l-2 1q-36 28 -64 45q-32 20 -50.5 38.5t-18.5 54.5q0 60 61 209t204 468q18 42 21.5 49t4.5 13
q-6 7 -6 17q0 17 30 72q28 48 28 65l-2 8q-15 34 -17 48q0 28 73 50.5t181 36t213 13.5q178 0 242 -36q47 -29 47 -83q0 -76 -76 -184t-190.5 -210.5t-237.5 -171.5t-216 -69q-15 0 -29 2q-20 0 -53.5 -82t-67.5 -178q-26 -72 -46 -124t-29 -52z" />
    <glyph glyph-name="q" unicode="q" horiz-adv-x="771" 
d="M192 281q21 0 55 22q117 64 217.5 187.5t163.5 259.5t63 226q0 99 -80 99q-38 0 -97 -26q-18 -9 -34 -25q-26 -27 -29 -36q0 -5 8 -10q14 -10 21 -12q13 -6 23 -20.5t10 -27.5q0 -9 -7 -15q-81 -61 -103 -83q-14 -14 -19 -14q-3 0 -7 14q-1 1 -3 1t-6 -7
q-51 -84 -58 -100q-11 -22 -11 -46q2 -27 4 -28q4 -6 63.5 -38.5t62.5 -38.5q-3 -4 -13 -10q-21 -9 -105 -85q-12 -12 -30 -12q-31 3 -46.5 8t-21 8t-7.5 3q-3 0 -4 -5q-32 -111 -32 -153q0 -36 22 -36zM-139 -108q-21 0 -25 22q-18 70 -34 103q-12 23 -12 36q0 14 22 21
t79 17t164 34q-18 36 -25 90q-21 94 -21 164q0 77 16 141q23 94 81 206q27 49 34 78q10 51 50.5 132.5t113.5 166.5q144 162 252 162q46 0 89.5 -21t89.5 -50l49 -28q84 -49 84 -189q0 -137 -77.5 -312.5t-208.5 -320.5q-57 -57 -185 -157l-34 -28q6 -2 29 -5
q175 -29 175 -62q0 -14 -27 -34q-122 -104 -137 -104q-5 0 -5 7l1 14q0 22 -23 22q-258 -12 -442 -84q-49 -21 -73 -21z" />
    <glyph glyph-name="r" unicode="r" horiz-adv-x="730" 
d="M321 701l72 45q104 57 198 131q-2 2 -5 2q-141 -14 -168 -24q-19 -7 -26 -21q-72 -114 -72 -129zM-12 -21q-10 0 -39 79.5t-29 107.5q68 189 80 217q10 23 10 31q-1 6 -10 14q-39 32 -39 46q0 9 11 19q54 47 78 52q11 2 16.5 12.5t31.5 63.5q81 165 97 190q5 7 5 12
q0 6 -72 71q-5 4 -24 24q-3 2 -3 7q0 23 87.5 58.5t211.5 64.5q160 37 272 37q133 0 140 -57q2 -35 2 -65q0 -55 -9.5 -101t-53.5 -92.5t-131 -101t-243 -143.5q-16 -10 -20 -11q-12 -6 -23 -16l136 -4q98 -1 164 -7t101 -27.5t35 -79.5q0 -48 -25 -126q-2 -6 -9.5 -12.5
t-17.5 -6.5t-23 14q-9 10 -20 16q-24 14 -113 18q-193 13 -281 21q-70 7 -102 7q-27 0 -33 -9t-48 -129q-3 -22 -25 -63q-52 -100 -85 -131z" />
    <glyph glyph-name="s" unicode="s" horiz-adv-x="600" 
d="M-237 -81q-15 0 -15 7q0 14 24 67l37 94q5 13 16 27.5t22 14.5q4 0 8.5 -4.5t17.5 -4.5q43 0 147.5 57t218 138.5t195.5 162.5q4 4 4 8q0 16 -47 27q-24 4 -141 4q-143 0 -197 16.5t-54 59.5q0 36 42 131l28 70q33 76 125.5 166t193.5 160q128 89 172 89q12 0 20.5 -7.5
t19.5 -19.5q15 -22 53 -53q51 -39 51 -51q0 -6 -4 -13q-25 -42 -71 -59.5t-90.5 -25.5t-64.5 -21q-116 -90 -184.5 -163t-68.5 -90q0 -5 5 -5q159 0 204 -2t64.5 -13t40.5 -36q24 -28 87 -82q32 -28 32 -65q0 -99 -210 -260q-231 -177 -416 -250q-192 -74 -265 -74z" />
    <glyph glyph-name="t" unicode="t" horiz-adv-x="574" 
d="M145 45q-4 0 -9 2q-42 28 -123 63q-5 1 -5 12q0 44 64 224t127.5 319t106.5 214q2 4 4 11q-26 -1 -170 -30l-59 -10q-9 0 -18 6q-16 11 -83 85q-39 41 -39 45q0 6 19 10t57 19q110 45 470 100q178 28 261 28q51 0 57 -13q-4 -34 -14 -103q-17 -108 -49 -110q-11 0 -23 14
q-7 9 -24 9q-19 0 -54 -4q-9 -2 -64.5 -8t-60 -10.5t-4.5 -12.5q-3 -19 -18 -46q-190 -331 -301 -710q-16 -51 -26 -77.5t-22 -26.5z" />
    <glyph glyph-name="u" unicode="u" horiz-adv-x="807" 
d="M596 107l-10 2q-48 18 -81 29q-44 12 -62 22t-18 31q0 32 40 133q22 57 29 91l-37 -40q-160 -189 -236 -189q-20 0 -184 64q-34 14 -34 91q0 155 103 427q93 249 185 360q22 24 34 40q14 23 23 23q8 -1 29 -68q28 -72 28 -113q0 -28 -14 -52q-17 -32 -38 -133
q-2 -13 -8 -13q-2 0 -5.5 2t-6.5 2q-14 0 -103 -271q-34 -104 -34 -142q0 -17 10 -17q22 0 92 77q59 66 371 438q23 31 51 86l19 19q94 106 107 114q22 -1 51 -115q14 -60 14 -71q-1 -11 -14 -28q-54 -70 -143 -329q-81 -238 -100 -286q-14 -33 -14 -41q0 -3 2.5 -8t3.5 -38
q0 -14 -36 -82q-8 -15 -14 -15z" />
    <glyph glyph-name="v" unicode="v" horiz-adv-x="698" 
d="M140 -3q-18 0 -33 17q-37 48 -63 78q-35 42 -50.5 67.5t-15.5 61.5q0 68 57 292q64 256 110 449q3 3 3 7t2 10q5 15 5 18t0.5 4.5t3.5 14.5l2 1v3q1 2 1 5.5t2 3.5v4l1 1v3l1 1v3l1 1q0 57 47 63q48 9 102 31q26 12 39 12q12 0 12 -18q0 -37 -48 -191q-58 -189 -141 -544
q-11 -51 -16 -103q0 -2 1 -3q74 67 393 560q192 296 200 300q77 18 115 35q23 9 35 11q26 0 26 -23q0 -64 -96 -234q-178 -315 -374 -577q-154 -218 -218 -291t-104 -73z" />
    <glyph glyph-name="w" unicode="w" horiz-adv-x="1059" 
d="M651 84q-85 0 -139 4.5t-80 25.5t-26 70q7 130 48 281q9 29 9 40q-161 -164 -230 -259q-54 -72 -93 -107t-103 -35q-50 0 -127 21q-15 5 -15 34q0 58 48 185.5t113 268.5t121 248.5t77 132.5q34 39 56 65t34.5 39t20.5 13q11 0 27 -39q14 -35 49 -97q7 -14 7 -34
q0 -23 -5 -42q-1 -9 -4 -13t-13 -4l-19 2q-17 0 -112 -207t-95 -216q286 315 442 463q17 18 25 18q10 0 20 -30q22 -57 51 -100q9 -16 9 -24q0 -9 -14 -55q-23 -63 -95 -352l-14 -65q38 0 327 723v2l1 1l6 16q1 1 1 2t1.5 3.5t2.5 6t2.5 5.5t1.5 4t1.5 4t2 5.5t2.5 7
t2.5 5.5t1.5 5q13 31 15 38q1 0 1 1q38 43 61 71q46 57 57 57q10 0 22 -33q17 -47 57 -109v-18q-12 -39 -53 -139q-154 -381 -272 -608q-147 -282 -214 -282z" />
    <glyph glyph-name="x" unicode="x" horiz-adv-x="708" 
d="M564 -98q-6 0 -15 13q-134 180 -186 327q-61 168 -71 168q-12 0 -55 -61q-39 -58 -132 -173q0 -1 -1 -1q-7 -9 -12 -9q-8 0 -61 53q-78 74 -78 107q0 15 10.5 22.5t22.5 12.5t17 10q92 117 143 176q44 51 63.5 79t19.5 56q0 34 -22 92q-11 32 -25 80q-3 11 -18 32l-59 80
q-38 54 -38 79q0 21 18 27.5t41 9.5q37 7 62.5 18t43.5 11q21 0 39 -23t41.5 -87t59.5 -182l2 -2q9 7 44 47q166 184 222 238.5t101.5 73t113.5 18.5q54 -1 54 -4q0 -4 -5 -16q-33 -88 -33 -118q-1 -9 -3.5 -16t-35.5 -38q-113 -106 -393 -416l-1 -5q0 -16 12 -63
q106 -349 136 -349q7 2 12 2q26 0 26 -52q0 -45 -15 -104q-30 -113 -45 -113z" />
    <glyph glyph-name="y" unicode="y" horiz-adv-x="487" 
d="M30 -10q-14 0 -116 25q-41 7 -56 13.5t-15 24.5q0 35 70 144q49 76 279 416q-3 21 -83 201.5t-120 234.5l-1 2q0 17 99 90q44 32 51 32q17 0 41 -39q30 -52 93 -209q41 -103 52 -114l34 47q127 184 221 259l48 36q51 43 64 43q8 0 10 -25q4 -31 27 -105q8 -22 8 -31
q0 -8 -5 -17q-8 -15 -14 -30q1 3 2.5 7t3 8.5t1.5 8.5t-3 4q-17 0 -134 -164q-162 -225 -505 -758q-3 -5 -3 -10q0 -8 5 -15.5t5 -18.5q0 -21 -39 -53q-7 -7 -20 -7z" />
    <glyph glyph-name="z" unicode="z" horiz-adv-x="768" 
d="M30 186q-42 0 -58.5 14.5t-32.5 53.5q-15 32 -31 52q-20 30 -20 43q0 22 35 56q56 54 391 283q1 0 2 1t124 85.5t127 88.5q-17 0 -205.5 -25.5t-208.5 -40.5q-5 -6 -9 -6t-7 9q-25 54 -47 87q-25 41 -25 55q0 25 66.5 36.5t247.5 29.5q100 10 242 26q124 14 202 14
q152 0 152 -53q0 -37 -67 -97.5t-180 -140t-255 -175.5q-148 -99 -308 -211q-10 -5 -20 -15q345 22 558 22q140 0 187 -18q8 -3 8 -7q0 -7 -54 -69q-43 -52 -57 -64.5t-38 -12.5q-27 3 -35 11q-2 2 -7 2q-437 -10 -566 -26q-72 -8 -111 -8z" />
    <glyph glyph-name="braceleft" unicode="{" horiz-adv-x="905" 
d="M296 -441q-161 0 -300 146q-28 32 -28 81q0 132 171 389q124 186 254 336q4 4 4 7q0 7 -108 64q-22 11 -33 18.5t-11 17.5q0 16 41 67q170 214 346 569q74 153 143 248q61 75 168 134t182 59q70 0 70 -61l-1 -17q-5 -42 -5 -77l1 -44q-1 -9 -5 -9q-3 0 -7 3
q-35 22 -68 22q-59 0 -114.5 -59t-113 -157.5t-122.5 -222.5q-96 -188 -220 -387q-4 -5 -4 -8q0 -2 4 -3q43 -16 54 -24.5t11 -28.5q0 -15 -8 -77q-11 -111 -25 -131q-9 -14 -29 -36q-96 -103 -255 -348q-65 -100 -94 -154.5t-29 -82.5q0 -22 14 -33.5t40.5 -21t53.5 -9.5
q60 0 156 48q60 32 105 36l1 -8q-8 -64 -8 -147q0 -12 -30 -35q-81 -64 -201 -64z" />
    <glyph glyph-name="bar" unicode="|" horiz-adv-x="592" 
d="M147 -350q-34 0 -34 107q0 121 38 415q22 168 186 1364q1 4 7 4q23 0 88.5 -36t68.5 -39q0 -36 -107 -841q-95 -706 -119 -873q-2 -14 -24 -28q-17 -11 -45 -36q-37 -37 -59 -37z" />
    <glyph glyph-name="braceright" unicode="}" horiz-adv-x="831" 
d="M-13 -486q-42 0 -91 20q-26 9 -58.5 17t-58 17t-25.5 23q0 8 10 18q50 47 78.5 73.5t41 36.5t17.5 10q4 0 6 -7q3 -18 29 -21q36 0 55.5 27t34.5 75t31 111q22 91 58 200q85 257 281 420q3 2 3 8q0 7 -3.5 22.5t-7.5 43t-4 69.5q0 142 66 366q43 136 146 309
q62 105 71 148q0 9 -5 9q-3 0 -8 -7t-8 -7q-4 0 -13 5q-38 18 -97 30q-51 12 -51 22q0 3 26 29q64 69 100.5 97t85.5 28q35 0 82 -16q19 -6 28 -16q12 -15 18 -101l7 -96q0 -44 -13.5 -74t-39.5 -72q-75 -118 -140 -285q-85 -218 -85 -334q0 -71 39 -88q4 -2 8 -4.5
t19 -175.5q0 -12 -6 -14l-4 1q-21 8 -42 8q-63 0 -117.5 -62.5t-100.5 -159.5t-83.5 -206.5t-68.5 -207.5q-48 -160 -78 -213q-54 -76 -133 -76z" />
    <glyph glyph-name="asciitilde" unicode="~" horiz-adv-x="1096" 
d="M576 595q-16 3 -32.5 5.5t-28.5 16t-14 31.5l-8 149q-85 -64 -135 -99q-22 -15 -39.5 -28t-23.5 -17q-9 -7 -21 -7q-10 0 -25 3q-36 9 -105 9q-38 0 -38 7l24 32q65 88 102 106q14 7 96 69l130 93q31 7 56 7t38 -10q18 -19 20 -83q0 -56 16 -81q9 -14 36 -14
q73 16 211 176l21 -3q23 -7 87 -7q54 0 54 -7q0 -3 -12 -18q-72 -101 -112 -122q-15 -9 -66 -56q-143 -132 -182 -142q-35 -10 -49 -10z" />
    <glyph glyph-name="exclamdown" unicode="&#xa1;" horiz-adv-x="823" 
d="M720 883q-123 45 -132 49q-42 17 -42 36q0 8 -4 13t-4 9t7 8q23 13 34 103q0 8 -2.5 11.5t-5 5t-2.5 3.5t5 5q46 28 76.5 47.5t49 30t28.5 10.5q12 0 15.5 -15.5t7.5 -47.5q3 -37 14 -98l1 -9q0 -20 -6 -59q-17 -102 -40 -102zM-151 -629q-6 0 -7 26l-2 33
q0 81 57.5 192.5t157.5 275.5q313 507 398 777q11 38 19.5 56.5t21.5 18.5q15 0 76 -47q25 -20 61 -47q11 -8 11 -12q0 -3 -6.5 -8.5t-18.5 -46.5q-14 -56 -57 -154q-60 -129 -181 -350t-240 -411t-173 -226q-76 -43 -99 -65q-13 -12 -18 -12z" />
    <glyph glyph-name="cent" unicode="&#xa2;" horiz-adv-x="908" 
d="M293 504q13 0 25 23t33 75l42 104q-12 0 -47 -33.5t-67 -74t-32 -60.5q0 -6 3 -9q27 -25 43 -25zM290 -138h-20q-12 6 -17.5 13t-11.5 21q-9 25 -54 98q-11 16 -14 25t-3 26q0 70 19 137q13 42 57 170q0 8 -13 17t-34 21q-120 65 -120 143q0 112 116 218q70 65 144 106
q103 79 144 91q10 4 17 9t37 79q64 152 81 199t25 52q4 3 95 4q35 0 60.5 -5.5t25.5 -25.5q0 -18 -29 -53q-7 -9 -12.5 -16.5t-22.5 -48.5q-21 -56 -48 -118q-13 -25 -13 -33q0 -3 8 -5q60 -14 75 -43q23 -43 23 -186q0 -77 -13 -77q-4 2 -23 14q-108 67 -108 81l2 30
q0 6 -1 7t-26 2q-6 0 -12 -5q-10 -10 -35 -68q-104 -241 -104 -245q13 0 66 14q145 37 200 78q8 6 11 6q5 0 5 -7q12 -70 12 -125q0 -36 -11 -49q-54 -39 -156.5 -69t-187.5 -35q-13 -2 -30.5 -48.5t-31 -105.5t-13.5 -92q0 -22 8 -24q34 -1 50.5 -3t16.5 -11q0 -14 -54 -76
q-22 -26 -52 -62q-12 -15 -28 -25z" />
    <glyph glyph-name="sterling" unicode="&#xa3;" horiz-adv-x="964" 
d="M-104 -178q-7 0 -10 2q-10 4 -31.5 82t-23.5 90q0 8 9 14q25 16 67 23q24 4 53 18t74 59q97 101 288 410q-2 3 -5 3q-2 0 -5.5 -1.5t-15.5 -1.5q-51 0 -173 97q-6 4 -6 8q0 6 26.5 21t92.5 63q25 19 52 19q23 0 23.5 -7t11.5 -7q8 0 26 2q27 3 88 7q21 4 57 72.5
t82 170.5q85 188 151 300q87 151 153 151l11 -1q75 -12 121 -12q39 0 49.5 -10t10.5 -63l-1 -65q0 -8 -47.5 -79t-62.5 -71q-8 0 -33 83q-8 26 -13.5 39.5t-12.5 13.5q-10 0 -25.5 -28.5t-44.5 -90.5q-54 -118 -196 -384l-1 -5q128 9 155 9q31 0 49 -4q9 -3 14 -28t7.5 -59
t2.5 -62q0 -42 -8 -42q-10 1 -37 1q-56 0 -237 -14q-52 -3 -61.5 -6t-22 -20t-71.5 -113q-128 -198 -180 -265q-31 -41 -31 -47l6 -2q3 0 9 2q38 11 175 11q101 0 288 -9q8 -1 8 -9q0 -16 -24 -52.5t-51.5 -67t-39.5 -30.5q-10 3 -45 3q-64 0 -180 -9q-292 -22 -356 -65
q-54 -44 -109 -44z" />
    <glyph glyph-name="yen" unicode="&#xa5;" horiz-adv-x="1000" 
d="M297 -247q-8 0 -8 29q0 33 -12 89q-5 30 -6 44q0 16 4 27q2 6 2 11q0 6 -11 6q-38 -4 -68 -8q-43 -8 -68 -8q-26 0 -26 15q15 99 20 121q7 27 22 33.5t47 6.5q141 6 145 22q0 1 0.5 3t0.5 5q-19 0 -50 -6q-68 -14 -111 -14q-36 2 -40 4q-8 5 -29.5 33.5t-47.5 50.5
q-22 20 -25 25q0 15 77 32q71 16 92 16q29 0 74 2q119 6 134 29q124 258 151 310q3 5 4 7t2 3.5t1 5.5q-253 -231 -376 -231q-109 0 -109 175q0 115 39.5 256.5t88 244.5t74.5 103q93 -32 143 -55q42 -20 42 -44q0 -25 -63 -56q-26 -17 -62 -104t-64.5 -184.5t-28.5 -133.5
q0 -13 5 -14l3 1q106 62 357 343q170 190 223 267q14 19 21 26.5t14 7.5q8 0 23 -7q29 -12 53 -20q38 -12 57.5 -23t19.5 -33q0 -23 -22.5 -68.5t-66.5 -127.5q-148 -270 -311 -620l-3 -7q0 -4 8 -4q40 0 128 8q46 5 71 5q35 0 35 -15q0 -19 -42 -97q-23 -47 -27.5 -53
t-28.5 -10q-33 -9 -38 -9q-3 0 -6 3q-13 22 -27 22q-7 0 -20 -2q-27 -4 -117 -9q-1 0 -10.5 -6.5t-9.5 -11.5q0 -10 36 -10q20 0 59 4q35 0 48 -13q56 -43 91 -59q30 -14 30 -22q0 -5 -24 -18q-117 -69 -145 -69q-3 0 -3 3t-1 5t-11 2q-145 0 -153 -13q-21 -63 -21 -84
q0 -8 2 -10q7 -6 7 -13q0 -12 -12.5 -25.5t-26.5 -21.5q-52 -29 -80 -45q-32 -22 -43 -22z" />
    <glyph glyph-name="section" unicode="&#xa7;" horiz-adv-x="1229" 
d="M477 382q11 0 19 5.5t22 17.5q16 16 53 45q6 5 9 5q4 0 6 -7q6 -15 23 -15q61 3 167 41q128 45 128 100q0 20 -20 41q-29 29 -64.5 40.5t-99.5 22.5q-35 6 -85 16q-8 0 -24 -9q-48 -30 -53 -30t-8 4t-8 4q-3 0 -8 -4q-71 -63 -115 -135t-44 -106q0 -16 11 -19
q85 -17 91 -17zM37 -198q-33 0 -43.5 14.5t-10.5 49.5q0 28 4 76q7 114 24 114q12 0 32 -24q10 -9 18.5 -17t27.5 -8q50 0 149 34.5t182.5 72t97.5 53.5q-30 11 -86 20q-52 8 -104 21t-83 39q-33 31 -33 134q0 57 9 113.5t20 85.5q39 92 113 166q14 14 16 18
q-8 8 -25.5 16.5t-34 19t-28.5 27.5t-12 42q0 109 267 337q142 127 310 223q128 73 195 73q31 0 40 -25q21 -83 37 -114q13 -24 13 -42q0 -9 -5 -20q0 -1 -1 -1q-16 -35 -32 -35l-44 9q-45 11 -79 11q-38 0 -83 -24t-131 -88q-247 -184 -247 -256q0 -28 29 -43
q46 -24 179 -38q73 -8 144 -21q164 -32 190 -132q13 -50 29 -86q20 -52 20 -74q0 -56 -106 -123q-160 -104 -291 -130q-4 0 -11 -3q53 -44 71 -62q21 -22 21 -46q0 -69 -344 -232q-186 -88 -336 -118q-42 -7 -68 -7z" />
    <glyph glyph-name="dieresis" unicode="&#xa8;" horiz-adv-x="745" 
d="M142 1430q-11 0 -14 20q-2 11 -4 104q0 22 9 36.5t23 30.5q5 6 9.5 11.5t7.5 5.5q2 0 8 -3q25 -15 80 -30q25 -6 25 -12q0 -4 -7 -11q-35 -41 -35 -55q0 -4 2 -6t4 -2.5t2 -1.5q0 -2 -4 -5q-45 -41 -69.5 -61.5t-36.5 -20.5zM-85 1418q-19 0 -19 24q0 32 40 126
q17 40 27 58t20 18t39 -30q18 -20 49 -48q6 -5 6 -9q0 -3 -3 -6.5t-3.5 -10t-9 -8t-16.5 -13.5q-21 -35 -21 -50q0 -3 2 -5.5t2 -4.5q0 -7 -19 -14q-41 -17 -74 -23q-7 -4 -20 -4z" />
    <glyph glyph-name="copyright" unicode="&#xa9;" horiz-adv-x="1156" 
d="M611 450q-28 0 -56.5 13t-104.5 55q-42 25 -42 85q0 57 31 107q11 18 49 55q107 103 168 106q25 0 48 -10t29 -33q23 -105 23 -139l1 -3q-31 -7 -95 -7q-31 14 -31 22l3 8l-2 3q-6 0 -23 -12q-43 -32 -64 -89q0 -15 31 -15q51 0 126 43q34 6 75 20q15 -70 15 -94
q0 -19 -14 -35.5t-54 -39.5q-67 -40 -113 -40zM535 332q45 0 95 9q18 3 53.5 23.5t78.5 57.5t82.5 89t65.5 118.5t26 145.5q-1 37 -6 67q-11 61 -30 73q-58 30 -141 30q-55 0 -57 -15q-6 -23 -11 -23q-4 0 -9.5 6t-11.5 11t-15 5l-7 -1q-55 -15 -84 -26.5t-41 -18.5t-17 -7
t-15 13.5t-13 13.5t-12 -10q-98 -92 -144.5 -180t-46.5 -163q0 -96 69 -157t191 -61zM545 191q-79 0 -153 25.5t-131.5 73t-91.5 114t-34 147.5q0 212 236 441q40 40 88 66q19 11 41 16q40 11 83 30q20 10 39 10q20 0 39 -15q28 -19 39 -19q7 0 15 3q27 8 62 8
q106 0 172 -45q110 -75 110 -232l-1 -37q-15 -157 -63.5 -268.5t-120.5 -181.5t-157.5 -103t-171.5 -33z" />
    <glyph glyph-name="ordfeminine" unicode="&#xaa;" horiz-adv-x="669" 
d="M263 1166q6 0 22 18q105 125 174 190q9 9 18 15q-3 5 -38 10l-24 4q-20 0 -46.5 -30.5t-51 -72t-41 -78.5t-16.5 -50q0 -6 3 -6zM287 1044q-11 0 -25 6q-33 12 -72 16q-24 3 -36 9t-18 29q-6 19 -6 40q0 55 31 118t76 122t92.5 104.5t81.5 65.5q23 12 47 19h28
q19 -12 31 -53.5t12 -79.5q0 -58 -25 -58q-1 0 -2 -2q0 -4 17 -104q3 -19 3 -40q0 -38 -6 -76l-5 -48q-1 -15 -1 -53h-3q-77 19 -98 21q-17 3 -17.5 5t-0.5 51l-1 1q-47 -54 -67.5 -73.5t-35.5 -19.5z" />
    <glyph glyph-name="guillemotleft" unicode="&#xab;" horiz-adv-x="1288" 
d="M1059 327q-6 0 -17 18q-16 26 -34 37q-51 28 -145 42q-34 5 -57.5 11.5t-30.5 22.5l-30 68q-34 70 -34 102q0 43 50.5 89t183.5 121q91 52 110 52q7 0 15.5 -3t35.5 -3q15 0 37 2q38 5 56 5t18 -6q0 -5 -3 -10q-49 -98 -77 -139q-44 -63 -58 -63q-7 0 -9 8q-6 9 -12 9
q-4 0 -34 -18q-93 -54 -102 -65q17 -5 45 -9q100 -14 156 -51q20 -14 26 -33q2 -10 12 -12q3 -1 3 -5q0 -20 -59 -114q-35 -56 -46 -56zM709 173q-14 0 -51 14q-120 44 -324 86q-97 15 -224 121q-27 22 -27 45t30 53q41 43 303 255q271 218 320 236q140 41 152 41q8 0 8 -10
q-17 -129 -22 -153q-7 -32 -13 -32q-2 0 -4.5 1.5l-5 3t-5.5 1.5q-14 0 -406 -321q-40 -31 -78 -63h-1l-6 -6q4 0 92 -18q289 -59 289 -96q-13 -75 -13 -116q0 -25 -2 -33.5t-12 -8.5z" />
    <glyph glyph-name="registered" unicode="&#xae;" horiz-adv-x="1256" 
d="M636 686l8 6q31 21 59 46q-55 -1 -58 -11l-11 -40zM438 365q-3 0 -5 8q-15 58 -35 93q-9 17 -9 27q0 18 34 97q61 138 61 166q0 7 -3 10q-32 22 -32 36q0 10 19 17q23 8 81 23.5t129 29t128 13.5q92 0 92 -44q0 -6 -2 -13q-16 -67 -16 -103l-2 -18q-9 -49 -111 -118
q-26 -18 -28 -23l112 -18q23 6 27 6t4 -5t-3 -14q-7 -22 -12 -84q-1 -25 -5 -34.5t-19 -9.5q-14 0 -42 6t-73 14q-92 12 -112 24q-14 7 -45 31q-12 7 -13 8t-4 1q0 -13 -4 -20q-6 -11 -54 -55q-20 -17 -49 -45q-7 -6 -9 -6zM449 202q143 0 294 88q291 170 291 547
q-4 44 -50 88.5t-104 75.5t-92 31q-15 0 -21.5 -6.5t-13 -12.5t-11.5 -6q-3 0 -6 2q-18 24 -56 24q-24 0 -44 -5q-16 -3 -24 -3t-9.5 5t-11.5 5q-20 0 -65.5 -25t-99 -81t-101 -144.5t-74.5 -214.5q-9 -44 -9 -86q0 -147 101 -252q32 -30 106 -30zM559 51h-11q-24 0 -81 6
q-151 16 -218 74q-73 72 -104 174q-33 108 -33 218q0 215 125 400q110 161 246 237q61 34 105 38q23 2 46 2q117 0 237.5 -45t203 -130t90.5 -206q2 -29 2 -56q0 -161 -50 -272.5t-145 -199.5q-225 -217 -413 -240z" />
    <glyph glyph-name="macron" unicode="&#xaf;" horiz-adv-x="952" 
d="M308 1419q-66 0 -95.5 10.5t-54.5 28.5q-12 8 -27 16q-70 38 -70 51t108 49q56 21 68 21q28 -2 58 -2q44 0 142 8q264 26 311 26q37 0 48.5 -8t11.5 -26q0 -11 -2 -27q-4 -23 -4 -56l2 -52q0 -15 -12 -15q-6 0 -18 2q-23 5 -79 5q-43 0 -109 -7q-191 -24 -278 -24z" />
    <glyph glyph-name="degree" unicode="&#xb0;" horiz-adv-x="797" 
d="M438 1190q26 0 66 18q78 36 78 60q0 7 -4 13t-9 6q-19 -1 -47 -4.5t-52 -8t-29 -9.5q-26 -39 -26 -57t23 -18zM356 1002q-116 0 -116 132q0 116 88 268q35 60 82 88t124 37q23 3 40 3q39 0 61 -24.5t59 -91.5q17 -31 42 -72q21 -33 21 -84q0 -37 -16 -78
q-36 -93 -164 -143q-16 -6 -41 -8q-42 0 -120 -19q-34 -8 -60 -8z" />
    <glyph glyph-name="uni00B2" unicode="&#xb2;" horiz-adv-x="603" 
d="M194 987q-27 0 -45 17q-31 36 -56 52q-13 10 -21 17.5t-8 16.5q0 12 16 32q49 55 130 111q48 35 91 72q48 40 76 82q1 1 1 4q-50 0 -117 -23q-9 -5 -15 -21q-4 -13 -8 -13q-8 0 -27 21q-29 29 -68 59q-14 12 -14 17q0 4 5 7q47 28 139 55t166 27q91 0 91 -50
q0 -10 -4 -23q-32 -97 -68.5 -153.5t-72.5 -86t-65 -45.5q-33 -18 -49 -40q99 22 167.5 32t74.5 10q5 0 5 -3q0 -7 -11 -33.5t-33 -89.5q-2 -4 -3.5 -5.5t-14.5 -1.5q-68 0 -190 -31q-51 -13 -72 -13z" />
    <glyph glyph-name="uni00B3" unicode="&#xb3;" horiz-adv-x="637" 
d="M103 1029q-14 4 -23 9q1 5 8 14q14 16 46 85q8 13 102 22q41 4 74.5 9.5t35.5 16.5v1q0 9 -32 23q-17 7 -40 13q-56 14 -126 21q-53 5 -82 12q-24 6 -24 16v2q2 7 11 20q19 22 45 83q20 39 169 65h2q3 0 4 2q-69 14 -105 18q-22 3 -35 6q-14 3 -14 11v3q3 11 16.5 33
t36.5 67q2 9 10 9t46 -9l155 -39q53 -13 69 -39q18 -31 32 -53q18 -29 28 -47q8 -15 8 -25q0 -3 -1 -6q-4 -16 -36.5 -26.5t-103.5 -25.5q67 -58 98 -117q26 -47 26 -76q0 -8 -2 -14q-9 -38 -98 -63q-75 -22 -163 -27q-27 -2 -51 -2q-52 0 -86 8z" />
    <glyph glyph-name="acute" unicode="&#xb4;" horiz-adv-x="393" 
d="M-68 1460q-4 1 -4 10q0 17 10 68q9 44 98 117q82 66 88 66q2 0 13 -11q29 -28 47 -49q16 -19 16 -30q0 -6 -13 -15q-155 -122 -155 -142l1 -5q-1 -4 -101 -9z" />
    <glyph glyph-name="periodcentered" unicode="&#xb7;" horiz-adv-x="434" 
d="M152 471q-4 0 -5.5 9.5t-4.5 22.5q-14 63 -14 111q0 77 35 146q3 2 6 2q29 -14 105 -59q27 -17 27 -22q0 -4 -5 -12q-18 -33 -28 -99q-1 -6 -3 -9.5t-16 -13.5q-18 -12 -86 -68q-8 -8 -11 -8z" />
    <glyph glyph-name="cedilla" unicode="&#xb8;" horiz-adv-x="766" 
d="M176 -309q-24 0 -72 30q-51 29 -51 45q0 8 12 14q7 3 46 17q31 12 35 12t4 -4l-1 -1q2 -20 28 -20q17 0 40 10q48 21 48 63q0 11 -4 12q-55 -4 -92 -27q-12 -9 -19 -9q-2 0 -26 14q-29 14 -59 39q-2 1 -2 4q2 13 44 63q39 46 46 49l45 17q27 12 37 12q6 0 6 -7v-4
q-4 -19 -4 -42l1 -13q0 -4 9 -4q5 0 13 1t17 1q24 0 43 -10q31 -18 37 -40q4 -14 4 -32q0 -9 -1 -20q-2 -16 -2 -35v-13q0 -38 -19 -59q-27 -29 -97 -49q-41 -14 -66 -14z" />
    <glyph glyph-name="uni00B9" unicode="&#xb9;" horiz-adv-x="397" 
d="M117 967q-8 2 -11 34q-3 29 -15 81q-1 3 -1 8q0 7 2 17q13 72 103 311v4q0 14 -8 46q-3 8 -3 14v3q3 12 16 24q17 15 42 58q1 5 6 5h4q10 -2 63 -19q78 -21 78 -46v-1q-6 -31 -51 -151q-45 -114 -86 -251q-6 -21 -9 -33.5t-6 -19.5q-4 -11 -26 -25q-29 -18 -48 -32
q-36 -27 -48 -27h-2z" />
    <glyph glyph-name="ordmasculine" unicode="&#xba;" horiz-adv-x="652" 
d="M300 1156q17 0 29 17q48 65 48 142l-1 37q0 8 -4 10.5t-11.5 4.5t-18.5 6q-13 0 -35 -30t-40.5 -69.5t-18.5 -67.5q0 -16 8 -25q26 -25 44 -25zM342 1020q-38 0 -120 34q-54 19 -92.5 49.5t-38.5 91.5q0 142 87 228q59 57 158 103q22 10 38 20q25 13 44 13q45 0 69 -68
q13 -40 25 -122q3 -26 6 -41q7 -31 7 -59q0 -114 -81 -193q-56 -56 -102 -56z" />
    <glyph glyph-name="guillemotright" unicode="&#xbb;" horiz-adv-x="1461" 
d="M268 230q-39 0 -177 65q-7 3 -7 10q0 26 71.5 88t155.5 124.5t132 96.5q25 17 28 20q-16 11 -89 40q-77 31 -152.5 67.5t-85.5 65.5q0 6 17.5 18.5t47.5 43.5q22 23 32 37q17 19 21 19q8 0 22.5 -12.5t54 -36.5t117.5 -57q81 -31 114 -32q22 -2 33.5 -8.5t21.5 -29.5
t27 -80q20 -56 20 -86q0 -33 -32.5 -61t-115.5 -83q-79 -53 -215 -151q-9 -7 -12 -28q-1 -12 -6 -21t-23 -9zM479 104q-14 0 -14 16l13 76q8 60 18 90.5t38.5 56.5t91.5 71q160 116 357 226q48 27 54 32q-84 43 -178 74q-54 19 -99 38t-73 40.5t-28 48.5l1 10q12 62 17.5 98
t9.5 51t11 15q9 0 29 -17q59 -51 419 -213q109 -49 160.5 -76.5t51.5 -50.5q0 -18 -33.5 -39t-97.5 -54q-255 -126 -524 -330q-49 -39 -49 -56q0 -6 7 -11q4 -2 4 -5t-60 -37q-94 -54 -126 -54z" />
    <glyph glyph-name="questiondown" unicode="&#xbf;" horiz-adv-x="949" 
d="M560 861q-15 0 -75 57q-58 52 -58 57q-7 7 -7 10t5 9t15.5 28t22.5 73q0 4 -2 7t-5 6t-3 6t8 6q69 24 104 47q27 17 39 17q17 0 17 -48q-4 -120 -19 -170t-33 -88q-6 -17 -9 -17zM-35 -824q-104 0 -121 3q-84 10 -124 55q-89 109 -105 133q-25 36 -25 70q0 46 48 108
t153 177q329 358 528 638q151 213 151 284q0 13 -6 21l-40 47q-36 37 -36 49q0 6 9 8q75 15 108.5 30.5t55.5 15.5q13 0 26 -5q56 -24 56 -104q0 -129 -137 -370t-393 -525l-191 -215q-145 -162 -145 -177q0 -20 44.5 -32.5t117.5 -12.5q99 0 231.5 29t265.5 98.5t238 189.5
q7 7 7 12q0 4 -10 16q-27 30 -27 37q0 8 46 16q10 2 31 10q75 27 107 27q33 0 33 -24l-8 -49q-10 -71 -27 -123t-63 -97q-149 -137 -373.5 -231t-415.5 -107z" />
    <glyph glyph-name="Agrave" unicode="&#xc0;" horiz-adv-x="775" 
d="M258 526q113 36 168 49q47 11 69 21.5t35 34t31 76.5q42 121 230 505q4 4 4 9l-1 4q-282 -268 -538 -697zM-96 -212q-17 0 -26.5 36.5t-22.5 113.5q-6 39 -7 50q0 36 19 88q52 140 52 152q0 7 -4 10q-204 34 -204 54q0 6 11 14l66 53q172 95 206 95q11 0 13 -11
q0 -7 2 -10q99 155 212 327q496 740 673 740q10 0 19 -3q86 -22 126 -22q21 -1 30 -3.5t9 -14.5q0 -11 -6 -32l1 -4q0 -18 -27.5 -78.5t-69.5 -148.5q-82 -166 -188.5 -403.5t-113.5 -359.5q0 -18 -7 -18l-11 1q-6 0 -9 -9q-35 -133 -35 -183q0 -22 4 -32.5t10 -13.5t12 -3
l12 1q3 0 3 -3t-6 -13q-24 -38 -42 -69q-28 -47 -46.5 -74t-31.5 -27q-8 0 -14 12q-36 64 -63 91q-19 21 -30.5 41t-11.5 56q0 60 38 201q0 4 -8 4q-33 0 -172 -51q-130 -48 -140 -61q-104 -261 -104 -310q0 -24 15 -24q7 0 7 -2t-7 -11q-71 -92 -95 -119t-38 -27z
M1061 1523h-37q-43 0 -62.5 3.5t-30 16t-23.5 38.5q-17 43 -88 143l-2 5q0 3 2 5q80 93 84 93q2 0 6 -3q5 -5 10 -8q11 -5 14 -13q16 -38 56 -111q28 -52 52 -99t24 -64q0 -6 -5 -6z" />
    <glyph glyph-name="Aacute" unicode="&#xc1;" horiz-adv-x="775" 
d="M258 526q113 36 168 49q47 11 69 21.5t35 34t31 76.5q42 121 230 505q4 4 4 9l-1 4q-282 -268 -538 -697zM-96 -212q-17 0 -26.5 36.5t-22.5 113.5q-6 39 -7 50q0 36 19 88q52 140 52 152q0 7 -4 10q-204 34 -204 54q0 6 11 14l66 53q172 95 206 95q11 0 13 -11
q0 -7 2 -10q99 155 212 327q496 740 673 740q10 0 19 -3q86 -22 126 -22q21 -1 30 -3.5t9 -14.5q0 -11 -6 -32l1 -4q0 -18 -27.5 -78.5t-69.5 -148.5q-82 -166 -188.5 -403.5t-113.5 -359.5q0 -18 -7 -18l-11 1q-6 0 -9 -9q-35 -133 -35 -183q0 -22 4 -32.5t10 -13.5t12 -3
l12 1q3 0 3 -3t-6 -13q-24 -38 -42 -69q-28 -47 -46.5 -74t-31.5 -27q-8 0 -14 12q-36 64 -63 91q-19 21 -30.5 41t-11.5 56q0 60 38 201q0 4 -8 4q-33 0 -172 -51q-130 -48 -140 -61q-104 -261 -104 -310q0 -24 15 -24q7 0 7 -2t-7 -11q-71 -92 -95 -119t-38 -27zM801 1580
q-4 1 -4 10q0 17 10 68q9 44 98 117q82 66 88 66q2 0 13 -11q29 -28 47 -49q16 -19 16 -30q0 -6 -13 -15q-155 -122 -155 -142l1 -5q-1 -4 -101 -9z" />
    <glyph glyph-name="Acircumflex" unicode="&#xc2;" horiz-adv-x="775" 
d="M258 526q113 36 168 49q47 11 69 21.5t35 34t31 76.5q42 121 230 505q4 4 4 9l-1 4q-282 -268 -538 -697zM-96 -212q-17 0 -26.5 36.5t-22.5 113.5q-6 39 -7 50q0 36 19 88q52 140 52 152q0 7 -4 10q-204 34 -204 54q0 6 11 14l66 53q172 95 206 95q11 0 13 -11
q0 -7 2 -10q99 155 212 327q496 740 673 740q10 0 19 -3q86 -22 126 -22q21 -1 30 -3.5t9 -14.5q0 -11 -6 -32l1 -4q0 -18 -27.5 -78.5t-69.5 -148.5q-82 -166 -188.5 -403.5t-113.5 -359.5q0 -18 -7 -18l-11 1q-6 0 -9 -9q-35 -133 -35 -183q0 -22 4 -32.5t10 -13.5t12 -3
l12 1q3 0 3 -3t-6 -13q-24 -38 -42 -69q-28 -47 -46.5 -74t-31.5 -27q-8 0 -14 12q-36 64 -63 91q-19 21 -30.5 41t-11.5 56q0 60 38 201q0 4 -8 4q-33 0 -172 -51q-130 -48 -140 -61q-104 -261 -104 -310q0 -24 15 -24q7 0 7 -2t-7 -11q-71 -92 -95 -119t-38 -27z
M1106 1535q-7 0 -18 3q-32 7 -68 7q-18 0 -23 2t-5 14q2 57 6 79q-3 0 -76 -61q-6 -6 -14 -6q-6 0 -15 2q-16 5 -55 7q-37 0 -37 6l13 21q42 66 68 81q4 2 68 55q113 98 124 98q6 0 11 -13l26 -95q4 -15 4 -35q0 -35 -6 -74q-4 -30 -4 -48q0 -8 1 -13q6 -17 6 -24
q0 -6 -6 -6z" />
    <glyph glyph-name="Atilde" unicode="&#xc3;" horiz-adv-x="775" 
d="M258 526q113 36 168 49q47 11 69 21.5t35 34t31 76.5q42 121 230 505q4 4 4 9l-1 4q-282 -268 -538 -697zM-96 -212q-17 0 -26.5 36.5t-22.5 113.5q-6 39 -7 50q0 36 19 88q52 140 52 152q0 7 -4 10q-204 34 -204 54q0 6 11 14l66 53q172 95 206 95q11 0 13 -11
q0 -7 2 -10q99 155 212 327q496 740 673 740q10 0 19 -3q86 -22 126 -22q21 -1 30 -3.5t9 -14.5q0 -11 -6 -32l1 -4q0 -18 -27.5 -78.5t-69.5 -148.5q-82 -166 -188.5 -403.5t-113.5 -359.5q0 -18 -7 -18l-11 1q-6 0 -9 -9q-35 -133 -35 -183q0 -22 4 -32.5t10 -13.5t12 -3
l12 1q3 0 3 -3t-6 -13q-24 -38 -42 -69q-28 -47 -46.5 -74t-31.5 -27q-8 0 -14 12q-36 64 -63 91q-19 21 -30.5 41t-11.5 56q0 60 38 201q0 4 -8 4q-33 0 -172 -51q-130 -48 -140 -61q-104 -261 -104 -310q0 -24 15 -24q7 0 7 -2t-7 -11q-71 -92 -95 -119t-38 -27zM999 1528
q-10 2 -21 3.5t-19 10.5t-10 21l-5 100q-4 -15 -56 -37q-14 -10 -26 -19t-16 -11q-6 -5 -14 -5q-6 0 -16 2q-20 5 -43 5h-10q-25 0 -25 4l16 22q43 58 166 151q21 5 38 5t25 -7q12 -12 14 -55q0 -38 10 -54q6 -10 24 -10q49 11 82 62l14 -2q15 -4 58 -4q36 0 36 -5
q0 -2 -8 -12q-155 -152 -181 -158q-23 -7 -33 -7z" />
    <glyph glyph-name="Adieresis" unicode="&#xc4;" horiz-adv-x="775" 
d="M258 526q113 36 168 49q47 11 69 21.5t35 34t31 76.5q42 121 230 505q4 4 4 9l-1 4q-282 -268 -538 -697zM-96 -212q-17 0 -26.5 36.5t-22.5 113.5q-6 39 -7 50q0 36 19 88q52 140 52 152q0 7 -4 10q-204 34 -204 54q0 6 11 14l66 53q172 95 206 95q11 0 13 -11
q0 -7 2 -10q99 155 212 327q496 740 673 740q10 0 19 -3q86 -22 126 -22q21 -1 30 -3.5t9 -14.5q0 -11 -6 -32l1 -4q0 -18 -27.5 -78.5t-69.5 -148.5q-82 -166 -188.5 -403.5t-113.5 -359.5q0 -18 -7 -18l-11 1q-6 0 -9 -9q-35 -133 -35 -183q0 -22 4 -32.5t10 -13.5t12 -3
l12 1q3 0 3 -3t-6 -13q-24 -38 -42 -69q-28 -47 -46.5 -74t-31.5 -27q-8 0 -14 12q-36 64 -63 91q-19 21 -30.5 41t-11.5 56q0 60 38 201q0 4 -8 4q-33 0 -172 -51q-130 -48 -140 -61q-104 -261 -104 -310q0 -24 15 -24q7 0 7 -2t-7 -11q-71 -92 -95 -119t-38 -27z
M1004 1534q-11 0 -14 20q-2 11 -4 104q0 22 9 36.5t23 30.5q5 6 9.5 11.5t7.5 5.5q2 0 8 -3q25 -15 80 -30q25 -6 25 -12q0 -4 -7 -11q-35 -41 -35 -55q0 -4 2 -6t4 -2.5t2 -1.5q0 -2 -4 -5q-45 -41 -69.5 -61.5t-36.5 -20.5zM777 1522q-19 0 -19 24q0 32 40 126
q17 40 27 58t20 18t39 -30q18 -20 49 -48q6 -5 6 -9q0 -3 -3 -6.5t-3.5 -10t-9 -8t-16.5 -13.5q-21 -35 -21 -50q0 -3 2 -5.5t2 -4.5q0 -7 -19 -14q-41 -17 -74 -23q-7 -4 -20 -4z" />
    <glyph glyph-name="Aring" unicode="&#xc5;" horiz-adv-x="775" 
d="M258 526q113 36 168 49q47 11 69 21.5t35 34t31 76.5q42 121 230 505q4 4 4 9l-1 4q-282 -268 -538 -697zM-96 -212q-17 0 -26.5 36.5t-22.5 113.5q-6 39 -7 50q0 36 19 88q52 140 52 152q0 7 -4 10q-204 34 -204 54q0 6 11 14l66 53q172 95 206 95q11 0 13 -11
q0 -7 2 -10q99 155 212 327q496 740 673 740q10 0 19 -3q86 -22 126 -22q21 -1 30 -3.5t9 -14.5q0 -11 -6 -32l1 -4q0 -18 -27.5 -78.5t-69.5 -148.5q-82 -166 -188.5 -403.5t-113.5 -359.5q0 -18 -7 -18l-11 1q-6 0 -9 -9q-35 -133 -35 -183q0 -22 4 -32.5t10 -13.5t12 -3
l12 1q3 0 3 -3t-6 -13q-24 -38 -42 -69q-28 -47 -46.5 -74t-31.5 -27q-8 0 -14 12q-36 64 -63 91q-19 21 -30.5 41t-11.5 56q0 60 38 201q0 4 -8 4q-33 0 -172 -51q-130 -48 -140 -61q-104 -261 -104 -310q0 -24 15 -24q7 0 7 -2t-7 -11q-71 -92 -95 -119t-38 -27zM935 1636
q12 0 29 7q33 16 33 26q0 8 -6 8q-49 -5 -54 -9q-11 -17 -11 -25q0 -7 9 -7zM896 1534q-58 0 -58 66q0 59 45 135q17 30 40.5 44t62.5 18q11 2 20 2q19 0 30 -12t30 -46q8 -15 21 -36q11 -17 11 -43q0 -74 -91 -111q-7 -3 -20 -3q-21 0 -61 -10q-17 -4 -30 -4z" />
    <glyph glyph-name="AE" unicode="&#xc6;" horiz-adv-x="1319" 
d="M268 526q113 36 168 49q47 11 69.5 21.5t35 34t30.5 76t58 151t118 257.5l4 10l-1 3q-281 -268 -484 -600zM-44 -97q-2 0 -14.5 3.5t-33.5 147.5q-2 13 -4 25.5t-2 23.5q0 35 18 88q10 30 10 37q0 8 -5 10q-62 31 -100.5 43t-38.5 21q0 5 17.5 19t50.5 41q115 92 149 92
q14 0 14 -14q0 -5 2 -7q77 128 265 394q253 356 426 503q84 72 141 72q9 0 18 -2q87 -22 126 -22t39 -18q0 -8 -3 -20q238 27 395 27q99 0 124 -13q44 -32 76 -52q64 -41 64 -56q0 -13 -29 -27q-99 -54 -122 -79q-13 -11 -18 -11t-8 23q-3 12 -52 12q-85 0 -220 -11
q-44 -3 -55 -3q-15 -6 -101.5 -160.5t-89.5 -170.5q2 -2 29 -2l32 1q16 -1 23 -7q62 -57 96 -77t34 -26q0 -27 -150 -78q-53 -17 -63 -17q-5 0 -5 3q0 2 1.5 5t1.5 7q0 7 -17 7l-45 1q-35 -3 -38 -13l-81 -166q-72 -143 -72 -172q0 -17 12.5 -20.5t30.5 -3.5q25 0 63 5
q96 12 174 12q136 0 202 -41q23 -15 23 -29q0 -13 -10 -39.5t-24 -88.5q-12 -58 -35 -58q-17 1 -53 41q-13 15 -25 27q-22 19 -187 19q-153 0 -305 -32q-53 -89 -69 -89q-9 0 -15 12q-17 30 -31 51l-6 -1l2 7q-15 21 -28 34q-41 45 -41 98q0 58 37 199q0 5 -10 5
q-27 0 -145 -42q-152 -55 -165 -70q-60 -148 -60 -197q0 -22 16 -22q6 0 6 -2q0 -4 -40 -51q-77 -106 -102 -106z" />
    <glyph glyph-name="Ccedilla" unicode="&#xc7;" horiz-adv-x="841" 
d="M186 -93q-77 2 -121 70q-50 77 -50 215q0 115 38 264q90 356 359 713q89 119 209 218q81 65 129 65q46 0 119.5 -25.5t109.5 -46.5q55 -32 55 -117q0 -64 -35 -136.5t-89 -111.5q-79 -57 -116.5 -81t-53.5 -24q-17 0 -19 48q-3 31 -15 78q-8 28 -9 39q0 4 7 7q34 7 84 73
q46 69 46 99t-34 30q-31 -1 -54 -24q-98 -94 -194 -227.5t-199 -339.5q-85 -174 -118 -310q-31 -129 -31 -205q0 -88 31 -91q5 0 11 4q62 44 159 154q165 186 289 358q4 6 7 6q9 0 87 -24q96 -28 96 -49q0 -15 -23 -37l-189 -234q-206 -253 -360 -327v-24q1 -4 10 -4
q5 0 12.5 1t17.5 1q24 0 42 -10q32 -18 38 -40q3 -14 3 -32q0 -9 -1 -20q-1 -16 -1 -35v-13q0 -38 -20 -59q-26 -29 -96 -49q-42 -14 -66 -14t-73 30q-50 29 -50 45q0 8 12 14q7 3 45 17q32 12 36 12q3 0 3 -4v-1q2 -20 28 -20q17 0 40 10q48 21 48 63q0 11 -4 12
q-55 -4 -93 -27q-11 -9 -19 -9q-2 0 -26 14q-29 14 -59 39q-1 1 -1 4q2 13 44 63q2 3 4 5z" />
    <glyph glyph-name="Egrave" unicode="&#xc8;" horiz-adv-x="830" 
d="M-138 -84q-9 0 -13 3q-135 124 -135 139q0 9 11 13q239 67 337 73q23 2 35.5 6t14.5 35q5 108 112 343q3 5 3 12q-88 -8 -136 -17q-40 -6 -60 -6q-25 0 -25 18q0 21 18 70q11 34 27 89q10 16 237 36q28 0 39 14q5 7 19 38l105 206q60 110 64 136q-1 1 -5 1q-11 0 -35 -4
t-50.5 -8t-45.5 -7.5t-21 -3.5q-19 -3 -26 -10.5t-58 -8.5q-33 0 -39 45q-4 28 -4 133q8 28 150 54.5t330 44.5t315 18q97 0 124 -13q47 -33 79.5 -54t49.5 -34.5t17 -24.5q0 -13 -30 -28q-103 -56 -127 -82q-13 -12 -18 -12q-7 0 -9 24l-1 5q-8 8 -63 8q-81 0 -220 -10
q-47 -4 -55 -4q-16 0 -120.5 -194t-104.5 -203q3 -1 25 -1q53 0 63 -7q64 -59 99 -78q36 -22 36 -29q0 -27 -140 -75q-66 -23 -82 -23q-4 0 -4 2l2 12q0 8 -30 8q-51 0 -61.5 -2.5t-12.5 -9.5l-84 -174q-75 -146 -75 -178q0 -25 31 -25q36 0 79 5q94 12 175 12
q154 0 216 -42q24 -18 24 -32q0 -15 -9 -38q-12 -29 -24.5 -91.5t-37.5 -62.5q-18 0 -56 43q-13 16 -26 28q-25 21 -181 21q-250 0 -524 -82q-64 -21 -89 -21zM881 1420h-37q-43 0 -62.5 3.5t-30 16t-23.5 38.5q-17 43 -88 143l-2 5q0 3 2 5q80 93 84 93q2 0 6 -3
q5 -5 10 -8q11 -5 14 -13q16 -38 56 -111q28 -52 52 -99t24 -64q0 -6 -5 -6z" />
    <glyph glyph-name="Eacute" unicode="&#xc9;" horiz-adv-x="830" 
d="M-138 -84q-9 0 -13 3q-135 124 -135 139q0 9 11 13q239 67 337 73q23 2 35.5 6t14.5 35q5 108 112 343q3 5 3 12q-88 -8 -136 -17q-40 -6 -60 -6q-25 0 -25 18q0 21 18 70q11 34 27 89q10 16 237 36q28 0 39 14q5 7 19 38l105 206q60 110 64 136q-1 1 -5 1q-11 0 -35 -4
t-50.5 -8t-45.5 -7.5t-21 -3.5q-19 -3 -26 -10.5t-58 -8.5q-33 0 -39 45q-4 28 -4 133q8 28 150 54.5t330 44.5t315 18q97 0 124 -13q47 -33 79.5 -54t49.5 -34.5t17 -24.5q0 -13 -30 -28q-103 -56 -127 -82q-13 -12 -18 -12q-7 0 -9 24l-1 5q-8 8 -63 8q-81 0 -220 -10
q-47 -4 -55 -4q-16 0 -120.5 -194t-104.5 -203q3 -1 25 -1q53 0 63 -7q64 -59 99 -78q36 -22 36 -29q0 -27 -140 -75q-66 -23 -82 -23q-4 0 -4 2l2 12q0 8 -30 8q-51 0 -61.5 -2.5t-12.5 -9.5l-84 -174q-75 -146 -75 -178q0 -25 31 -25q36 0 79 5q94 12 175 12
q154 0 216 -42q24 -18 24 -32q0 -15 -9 -38q-12 -29 -24.5 -91.5t-37.5 -62.5q-18 0 -56 43q-13 16 -26 28q-25 21 -181 21q-250 0 -524 -82q-64 -21 -89 -21zM640 1396q-4 1 -4 10q0 17 10 68q9 44 98 117q82 66 88 66q2 0 13 -11q29 -28 47 -49q16 -19 16 -30
q0 -6 -13 -15q-155 -122 -155 -142l1 -5q-1 -4 -101 -9z" />
    <glyph glyph-name="Ecircumflex" unicode="&#xca;" horiz-adv-x="830" 
d="M-138 -84q-9 0 -13 3q-135 124 -135 139q0 9 11 13q239 67 337 73q23 2 35.5 6t14.5 35q5 108 112 343q3 5 3 12q-88 -8 -136 -17q-40 -6 -60 -6q-25 0 -25 18q0 21 18 70q11 34 27 89q10 16 237 36q28 0 39 14q5 7 19 38l105 206q60 110 64 136q-1 1 -5 1q-11 0 -35 -4
t-50.5 -8t-45.5 -7.5t-21 -3.5q-19 -3 -26 -10.5t-58 -8.5q-33 0 -39 45q-4 28 -4 133q8 28 150 54.5t330 44.5t315 18q97 0 124 -13q47 -33 79.5 -54t49.5 -34.5t17 -24.5q0 -13 -30 -28q-103 -56 -127 -82q-13 -12 -18 -12q-7 0 -9 24l-1 5q-8 8 -63 8q-81 0 -220 -10
q-47 -4 -55 -4q-16 0 -120.5 -194t-104.5 -203q3 -1 25 -1q53 0 63 -7q64 -59 99 -78q36 -22 36 -29q0 -27 -140 -75q-66 -23 -82 -23q-4 0 -4 2l2 12q0 8 -30 8q-51 0 -61.5 -2.5t-12.5 -9.5l-84 -174q-75 -146 -75 -178q0 -25 31 -25q36 0 79 5q94 12 175 12
q154 0 216 -42q24 -18 24 -32q0 -15 -9 -38q-12 -29 -24.5 -91.5t-37.5 -62.5q-18 0 -56 43q-13 16 -26 28q-25 21 -181 21q-250 0 -524 -82q-64 -21 -89 -21zM914 1407q-7 0 -18 3q-32 7 -68 7q-18 0 -23 2t-5 14q2 57 6 79q-3 0 -76 -61q-6 -6 -14 -6q-6 0 -15 2
q-16 5 -55 7q-37 0 -37 6l13 21q42 66 68 81q4 2 68 55q113 98 124 98q6 0 11 -13l26 -95q4 -15 4 -35q0 -35 -6 -74q-4 -30 -4 -48q0 -8 1 -13q6 -17 6 -24q0 -6 -6 -6z" />
    <glyph glyph-name="Edieresis" unicode="&#xcb;" horiz-adv-x="830" 
d="M-138 -84q-9 0 -13 3q-135 124 -135 139q0 9 11 13q239 67 337 73q23 2 35.5 6t14.5 35q5 108 112 343q3 5 3 12q-88 -8 -136 -17q-40 -6 -60 -6q-25 0 -25 18q0 21 18 70q11 34 27 89q10 16 237 36q28 0 39 14q5 7 19 38l105 206q60 110 64 136q-1 1 -5 1q-11 0 -35 -4
t-50.5 -8t-45.5 -7.5t-21 -3.5q-19 -3 -26 -10.5t-58 -8.5q-33 0 -39 45q-4 28 -4 133q8 28 150 54.5t330 44.5t315 18q97 0 124 -13q47 -33 79.5 -54t49.5 -34.5t17 -24.5q0 -13 -30 -28q-103 -56 -127 -82q-13 -12 -18 -12q-7 0 -9 24l-1 5q-8 8 -63 8q-81 0 -220 -10
q-47 -4 -55 -4q-16 0 -120.5 -194t-104.5 -203q3 -1 25 -1q53 0 63 -7q64 -59 99 -78q36 -22 36 -29q0 -27 -140 -75q-66 -23 -82 -23q-4 0 -4 2l2 12q0 8 -30 8q-51 0 -61.5 -2.5t-12.5 -9.5l-84 -174q-75 -146 -75 -178q0 -25 31 -25q36 0 79 5q94 12 175 12
q154 0 216 -42q24 -18 24 -32q0 -15 -9 -38q-12 -29 -24.5 -91.5t-37.5 -62.5q-18 0 -56 43q-13 16 -26 28q-25 21 -181 21q-250 0 -524 -82q-64 -21 -89 -21zM875 1425q-11 0 -14 20q-2 11 -4 104q0 22 9 36.5t23 30.5q5 6 9.5 11.5t7.5 5.5q2 0 8 -3q25 -15 80 -30
q25 -6 25 -12q0 -4 -7 -11q-35 -41 -35 -55q0 -4 2 -6t4 -2.5t2 -1.5q0 -2 -4 -5q-45 -41 -69.5 -61.5t-36.5 -20.5zM648 1413q-19 0 -19 24q0 32 40 126q17 40 27 58t20 18t39 -30q18 -20 49 -48q6 -5 6 -9q0 -3 -3 -6.5t-3.5 -10t-9 -8t-16.5 -13.5q-21 -35 -21 -50
q0 -3 2 -5.5t2 -4.5q0 -7 -19 -14q-41 -17 -74 -23q-7 -4 -20 -4z" />
    <glyph glyph-name="Igrave" unicode="&#xcc;" horiz-adv-x="644" 
d="M-68 -164h-12q-43 0 -125.5 11.5t-83.5 24.5q0 9 20 24q164 164 266 178q14 4 22.5 7.5t12.5 13.5q26 74 137 318q232 513 373 802l32 69q7 8 10 19q-197 -62 -230 -64l-27 -1q-30 -1 -64 -13q-8 -3 -12 -3q-2 0 -2 3q0 5 2 17q8 51 8 121q0 25 3 35.5t15.5 15.5t40 11.5
t71.5 18.5q192 57 310 57q49 0 90 -11q17 -6 67.5 -37.5t99.5 -68t50 -55.5q0 -6 -9 -9q-159 -49 -172 -50q-11 0 -18.5 8t-23.5 16.5t-24 8.5l-3 -2q-29 -108 -103 -271t-183 -393q-89 -191 -152 -330t-63 -163q0 -5 3 -5q37 6 60 6q32 0 42 -11.5t15 -34.5q18 -62 44 -123
q11 -23 11 -32q0 -4 -5 -5q-5 0 -19 4q-35 8 -83 8q-149 0 -360 -94q-10 -5 -10 -12.5t-21 -8.5zM878 1515h-37q-43 0 -62.5 3.5t-30 16t-23.5 38.5q-17 43 -88 143l-2 5q0 3 2 5q80 93 84 93q2 0 6 -3q5 -5 10 -8q11 -5 14 -13q16 -38 56 -111q28 -52 52 -99t24 -64
q0 -6 -5 -6z" />
    <glyph glyph-name="Iacute" unicode="&#xcd;" horiz-adv-x="644" 
d="M-68 -164h-12q-43 0 -125.5 11.5t-83.5 24.5q0 9 20 24q164 164 266 178q14 4 22.5 7.5t12.5 13.5q26 74 137 318q232 513 373 802l32 69q7 8 10 19q-197 -62 -230 -64l-27 -1q-30 -1 -64 -13q-8 -3 -12 -3q-2 0 -2 3q0 5 2 17q8 51 8 121q0 25 3 35.5t15.5 15.5t40 11.5
t71.5 18.5q192 57 310 57q49 0 90 -11q17 -6 67.5 -37.5t99.5 -68t50 -55.5q0 -6 -9 -9q-159 -49 -172 -50q-11 0 -18.5 8t-23.5 16.5t-24 8.5l-3 -2q-29 -108 -103 -271t-183 -393q-89 -191 -152 -330t-63 -163q0 -5 3 -5q37 6 60 6q32 0 42 -11.5t15 -34.5q18 -62 44 -123
q11 -23 11 -32q0 -4 -5 -5q-5 0 -19 4q-35 8 -83 8q-149 0 -360 -94q-10 -5 -10 -12.5t-21 -8.5zM674 1539q-4 1 -4 10q0 17 10 68q9 44 98 117q82 66 88 66q2 0 13 -11q29 -28 47 -49q16 -19 16 -30q0 -6 -13 -15q-155 -122 -155 -142l1 -5q-1 -4 -101 -9z" />
    <glyph glyph-name="Icircumflex" unicode="&#xce;" horiz-adv-x="644" 
d="M-68 -164h-12q-43 0 -125.5 11.5t-83.5 24.5q0 9 20 24q164 164 266 178q14 4 22.5 7.5t12.5 13.5q26 74 137 318q232 513 373 802l32 69q7 8 10 19q-197 -62 -230 -64l-27 -1q-30 -1 -64 -13q-8 -3 -12 -3q-2 0 -2 3q0 5 2 17q8 51 8 121q0 25 3 35.5t15.5 15.5t40 11.5
t71.5 18.5q192 57 310 57q49 0 90 -11q17 -6 67.5 -37.5t99.5 -68t50 -55.5q0 -6 -9 -9q-159 -49 -172 -50q-11 0 -18.5 8t-23.5 16.5t-24 8.5l-3 -2q-29 -108 -103 -271t-183 -393q-89 -191 -152 -330t-63 -163q0 -5 3 -5q37 6 60 6q32 0 42 -11.5t15 -34.5q18 -62 44 -123
q11 -23 11 -32q0 -4 -5 -5q-5 0 -19 4q-35 8 -83 8q-149 0 -360 -94q-10 -5 -10 -12.5t-21 -8.5zM885 1533q-7 0 -18 3q-32 7 -68 7q-18 0 -23 2t-5 14q2 57 6 79q-3 0 -76 -61q-6 -6 -14 -6q-6 0 -15 2q-16 5 -55 7q-37 0 -37 6l13 21q42 66 68 81q4 2 68 55q113 98 124 98
q6 0 11 -13l26 -95q4 -15 4 -35q0 -35 -6 -74q-4 -30 -4 -48q0 -8 1 -13q6 -17 6 -24q0 -6 -6 -6z" />
    <glyph glyph-name="Idieresis" unicode="&#xcf;" horiz-adv-x="644" 
d="M-68 -164h-12q-43 0 -125.5 11.5t-83.5 24.5q0 9 20 24q164 164 266 178q14 4 22.5 7.5t12.5 13.5q26 74 137 318q232 513 373 802l32 69q7 8 10 19q-197 -62 -230 -64l-27 -1q-30 -1 -64 -13q-8 -3 -12 -3q-2 0 -2 3q0 5 2 17q8 51 8 121q0 25 3 35.5t15.5 15.5t40 11.5
t71.5 18.5q192 57 310 57q49 0 90 -11q17 -6 67.5 -37.5t99.5 -68t50 -55.5q0 -6 -9 -9q-159 -49 -172 -50q-11 0 -18.5 8t-23.5 16.5t-24 8.5l-3 -2q-29 -108 -103 -271t-183 -393q-89 -191 -152 -330t-63 -163q0 -5 3 -5q37 6 60 6q32 0 42 -11.5t15 -34.5q18 -62 44 -123
q11 -23 11 -32q0 -4 -5 -5q-5 0 -19 4q-35 8 -83 8q-149 0 -360 -94q-10 -5 -10 -12.5t-21 -8.5zM801 1542q-11 0 -14 20q-2 11 -4 104q0 22 9 36.5t23 30.5q5 6 9.5 11.5t7.5 5.5q2 0 8 -3q25 -15 80 -30q25 -6 25 -12q0 -4 -7 -11q-35 -41 -35 -55q0 -4 2 -6t4 -2.5
t2 -1.5q0 -2 -4 -5q-45 -41 -69.5 -61.5t-36.5 -20.5zM574 1530q-19 0 -19 24q0 32 40 126q17 40 27 58t20 18t39 -30q18 -20 49 -48q6 -5 6 -9q0 -3 -3 -6.5t-3.5 -10t-9 -8t-16.5 -13.5q-21 -35 -21 -50q0 -3 2 -5.5t2 -4.5q0 -7 -19 -14q-41 -17 -74 -23q-7 -4 -20 -4z
" />
    <glyph glyph-name="Ntilde" unicode="&#xd1;" horiz-adv-x="1045" 
d="M427 -240q-12 0 -16.5 5t-6 24t-1.5 47q0 112 13 379q16 381 16 478q0 125 -12 145l-55 -126q-162 -362 -245 -606q-2 -6 -2 -10q0 -8 11 -12.5t11 -19.5q0 -22 -31 -86q-5 -6 -38 -20q-99 -42 -152 -42q-28 0 -32 16q6 89 92.5 306t221.5 527q99 231 209 495q7 17 12 17
t10 -7q54 -61 63 -61l7 2q2 0 3 -3q4 -15 35 -42q11 -9 11 -16q0 -5 -2.5 -10t-2.5 -12q0 -6 4 -13q63 -133 63 -535q0 -91 -4 -194l-1 -79l10 19q34 78 148 309q310 632 572 921h5l41 -85q39 -76 39 -97q0 -8 -3.5 -15.5t-10.5 -19.5t-17 -30q-14 -27 -24 -40.5t-17 -17.5
t-11 -5l-11 1q-8 -1 -19 -16q-553 -874 -686 -1383q-23 -76 -33 -77l-38 1q-58 0 -103 -8q-13 -3 -23 -4zM908 1353q-10 2 -21 3.5t-19 10.5t-10 21l-5 100q-4 -15 -56 -37q-14 -10 -26 -19t-16 -11q-6 -5 -14 -5q-6 0 -16 2q-20 5 -43 5h-10q-25 0 -25 4l16 22
q43 58 166 151q21 5 38 5t25 -7q12 -12 14 -55q0 -38 10 -54q6 -10 24 -10q49 11 82 62l14 -2q15 -4 58 -4q36 0 36 -5q0 -2 -8 -12q-155 -152 -181 -158q-23 -7 -33 -7z" />
    <glyph glyph-name="Ograve" unicode="&#xd2;" 
d="M169 115q44 0 122.5 50.5t168.5 139t171.5 206t134 254t52.5 280.5q0 61 -8 95q-12 48 -28 48q-4 0 -7 -3q-99 -76 -179 -187.5t-128 -208t-48 -115.5q1 -1 2.5 -3.5t4.5 -2.5q4 0 8.5 2.5t9.5 2.5q6 0 11 -10l30 -62q36 -72 36 -90q0 -17 -22 -17q-30 3 -58 3
q-37 0 -69 -4q-27 -4 -49 -4q-32 0 -55 15t-37 60q-92 -224 -99 -409q0 -40 36 -40zM108 -45q-37 0 -71.5 13t-56.5 51.5t-22 116.5q0 91 40 248q64 220 165 432q189 406 232 406q17 0 27 -53q6 -25 14 -46t25 -27l3 4q45 70 136 168q127 139 212 139q54 0 84 -62
q42 -86 63 -132q32 -73 32 -124q0 -160 -65.5 -335t-167.5 -338.5t-216.5 -283t-216.5 -161.5q-33 -10 -68 -10q-75 0 -149 -6zM772 1444h-37q-43 0 -62.5 3.5t-30 16t-23.5 38.5q-17 43 -88 143l-2 5q0 3 2 5q80 93 84 93q2 0 6 -3q5 -5 10 -8q11 -5 14 -13q16 -38 56 -111
q28 -52 52 -99t24 -64q0 -6 -5 -6z" />
    <glyph glyph-name="Oacute" unicode="&#xd3;" 
d="M169 115q44 0 122.5 50.5t168.5 139t171.5 206t134 254t52.5 280.5q0 61 -8 95q-12 48 -28 48q-4 0 -7 -3q-99 -76 -179 -187.5t-128 -208t-48 -115.5q1 -1 2.5 -3.5t4.5 -2.5q4 0 8.5 2.5t9.5 2.5q6 0 11 -10l30 -62q36 -72 36 -90q0 -17 -22 -17q-30 3 -58 3
q-37 0 -69 -4q-27 -4 -49 -4q-32 0 -55 15t-37 60q-92 -224 -99 -409q0 -40 36 -40zM108 -45q-37 0 -71.5 13t-56.5 51.5t-22 116.5q0 91 40 248q64 220 165 432q189 406 232 406q17 0 27 -53q6 -25 14 -46t25 -27l3 4q45 70 136 168q127 139 212 139q54 0 84 -62
q42 -86 63 -132q32 -73 32 -124q0 -160 -65.5 -335t-167.5 -338.5t-216.5 -283t-216.5 -161.5q-33 -10 -68 -10q-75 0 -149 -6zM599 1440q-4 1 -4 10q0 17 10 68q9 44 98 117q82 66 88 66q2 0 13 -11q29 -28 47 -49q16 -19 16 -30q0 -6 -13 -15q-155 -122 -155 -142l1 -5
q-1 -4 -101 -9z" />
    <glyph glyph-name="Ocircumflex" unicode="&#xd4;" 
d="M169 115q44 0 122.5 50.5t168.5 139t171.5 206t134 254t52.5 280.5q0 61 -8 95q-12 48 -28 48q-4 0 -7 -3q-99 -76 -179 -187.5t-128 -208t-48 -115.5q1 -1 2.5 -3.5t4.5 -2.5q4 0 8.5 2.5t9.5 2.5q6 0 11 -10l30 -62q36 -72 36 -90q0 -17 -22 -17q-30 3 -58 3
q-37 0 -69 -4q-27 -4 -49 -4q-32 0 -55 15t-37 60q-92 -224 -99 -409q0 -40 36 -40zM108 -45q-37 0 -71.5 13t-56.5 51.5t-22 116.5q0 91 40 248q64 220 165 432q189 406 232 406q17 0 27 -53q6 -25 14 -46t25 -27l3 4q45 70 136 168q127 139 212 139q54 0 84 -62
q42 -86 63 -132q32 -73 32 -124q0 -160 -65.5 -335t-167.5 -338.5t-216.5 -283t-216.5 -161.5q-33 -10 -68 -10q-75 0 -149 -6zM804 1453q-7 0 -18 3q-32 7 -68 7q-18 0 -23 2t-5 14q2 57 6 79q-3 0 -76 -61q-6 -6 -14 -6q-6 0 -15 2q-16 5 -55 7q-37 0 -37 6l13 21
q42 66 68 81q4 2 68 55q113 98 124 98q6 0 11 -13l26 -95q4 -15 4 -35q0 -35 -6 -74q-4 -30 -4 -48q0 -8 1 -13q6 -17 6 -24q0 -6 -6 -6z" />
    <glyph glyph-name="Otilde" unicode="&#xd5;" 
d="M169 115q44 0 122.5 50.5t168.5 139t171.5 206t134 254t52.5 280.5q0 61 -8 95q-12 48 -28 48q-4 0 -7 -3q-99 -76 -179 -187.5t-128 -208t-48 -115.5q1 -1 2.5 -3.5t4.5 -2.5q4 0 8.5 2.5t9.5 2.5q6 0 11 -10l30 -62q36 -72 36 -90q0 -17 -22 -17q-30 3 -58 3
q-37 0 -69 -4q-27 -4 -49 -4q-32 0 -55 15t-37 60q-92 -224 -99 -409q0 -40 36 -40zM108 -45q-37 0 -71.5 13t-56.5 51.5t-22 116.5q0 91 40 248q64 220 165 432q189 406 232 406q17 0 27 -53q6 -25 14 -46t25 -27l3 4q45 70 136 168q127 139 212 139q54 0 84 -62
q42 -86 63 -132q32 -73 32 -124q0 -160 -65.5 -335t-167.5 -338.5t-216.5 -283t-216.5 -161.5q-33 -10 -68 -10q-75 0 -149 -6zM719 1443q-10 2 -21 3.5t-19 10.5t-10 21l-5 100q-4 -15 -56 -37q-14 -10 -26 -19t-16 -11q-6 -5 -14 -5q-6 0 -16 2q-20 5 -43 5h-10
q-25 0 -25 4l16 22q43 58 166 151q21 5 38 5t25 -7q12 -12 14 -55q0 -38 10 -54q6 -10 24 -10q49 11 82 62l14 -2q15 -4 58 -4q36 0 36 -5q0 -2 -8 -12q-155 -152 -181 -158q-23 -7 -33 -7z" />
    <glyph glyph-name="Odieresis" unicode="&#xd6;" 
d="M169 115q44 0 122.5 50.5t168.5 139t171.5 206t134 254t52.5 280.5q0 61 -8 95q-12 48 -28 48q-4 0 -7 -3q-99 -76 -179 -187.5t-128 -208t-48 -115.5q1 -1 2.5 -3.5t4.5 -2.5q4 0 8.5 2.5t9.5 2.5q6 0 11 -10l30 -62q36 -72 36 -90q0 -17 -22 -17q-30 3 -58 3
q-37 0 -69 -4q-27 -4 -49 -4q-32 0 -55 15t-37 60q-92 -224 -99 -409q0 -40 36 -40zM108 -45q-37 0 -71.5 13t-56.5 51.5t-22 116.5q0 91 40 248q64 220 165 432q189 406 232 406q17 0 27 -53q6 -25 14 -46t25 -27l3 4q45 70 136 168q127 139 212 139q54 0 84 -62
q42 -86 63 -132q32 -73 32 -124q0 -160 -65.5 -335t-167.5 -338.5t-216.5 -283t-216.5 -161.5q-33 -10 -68 -10q-75 0 -149 -6zM720 1442q-11 0 -14 20q-2 11 -4 104q0 22 9 36.5t23 30.5q5 6 9.5 11.5t7.5 5.5q2 0 8 -3q25 -15 80 -30q25 -6 25 -12q0 -4 -7 -11
q-35 -41 -35 -55q0 -4 2 -6t4 -2.5t2 -1.5q0 -2 -4 -5q-45 -41 -69.5 -61.5t-36.5 -20.5zM493 1430q-19 0 -19 24q0 32 40 126q17 40 27 58t20 18t39 -30q18 -20 49 -48q6 -5 6 -9q0 -3 -3 -6.5t-3.5 -10t-9 -8t-16.5 -13.5q-21 -35 -21 -50q0 -3 2 -5.5t2 -4.5
q0 -7 -19 -14q-41 -17 -74 -23q-7 -4 -20 -4z" />
    <glyph glyph-name="multiply" unicode="&#xd7;" horiz-adv-x="1051" 
d="M109 205q-6 0 -9 12q-17 68 -17 120q0 97 27 97q4 0 14 7q77 59 127 95q60 43 87 66.5t27 42.5q0 13 -11.5 28t-31.5 37q-79 88 -145 201l-3 6q0 6 128 54q29 14 40 14q8 0 26 -18l21.5 -21.5t3.5 -8.5l-1 -5q0 -10 62.5 -99t75.5 -89q163 108 187 122q36 21 57 21
q19 0 52 -23q17 -12 55 -33q47 -23 47 -35q0 -11 -27 -28q-53 -36 -79 -64q-22 -24 -33 -24l-4 2q-12 -4 -142 -83q-12 -7 -12 -8q-6 -3 -6 -8q0 -18 63 -91q4 -4 9 -4q7 0 15 3.5t12 3.5t4 -5q-5 -38 -5 -75l2 -91q0 -43 -13 -43q-4 0 -9 3q-80 42 -115 66q-50 34 -89 95
q-10 15 -17 23t-16 8q-18 0 -90 -61q-59 -50 -190 -149q-33 -25 -51 -43t-26 -18z" />
    <glyph glyph-name="Oslash" unicode="&#xd8;" 
d="M506 494q-87 -142 -191 -313q68 48 145 124q90 88 171.5 205.5t134.5 254.5q47 123 52 253q-65 -112 -152 -258q-65 -108 -145 -241q1 -5 1 -8q0 -15 -16 -17zM178 -41q-51 -84 -107 -174q-5 -11 -9 -11t-11 10.5t-23 36t-45 70.5q-2 3 -2 7q0 21 32 83q-19 14 -33 39
q-22 38 -22 116q0 91 40 248q64 220 165 432q189 406 232 406q17 0 27 -53q6 -25 14 -46t25 -27l3 4q45 70 136 168q127 139 212 139q35 0 59 -25q4 7 8 15q20 45 24 49q5 7 13 7q28 3 56 14.5t45 11.5q16 0 18 -21q0 -39 -79 -192l-12 -22q9 -17 15 -31q32 -73 32 -124
q0 -160 -65.5 -335t-167.5 -338.5t-216.5 -283t-216.5 -161.5q-33 -10 -68 -10q-39 0 -79 -2zM447 673q100 156 198 313q59 97 109 183q-86 -72 -158 -171q-80 -112 -128 -208.5t-48 -115.5q1 -1 2.5 -3.5t4.5 -2.5q4 0 8.5 2.5t9.5 2.5h2zM135 184q85 136 193 305h-4
q-32 0 -55 15t-37 60q-85 -206 -97 -380z" />
    <glyph glyph-name="Ugrave" unicode="&#xd9;" horiz-adv-x="1151" 
d="M759 -207q-6 0 -41 25q-18 14 -65 45q-28 20 -42 32.5t-14 29.5q0 26 24 90q84 263 126 370q30 77 30 92q-225 -283 -331 -397q-110 -118 -175 -118q-31 0 -60.5 19.5t-70.5 52.5q-28 23 -64 50q-26 20 -35 50q-2 9 -7 13l-4 80q4 2 4 29q0 185 211 729q139 340 232 425
q40 36 70 50.5t49.5 31t28.5 16.5q6 0 7 -10q8 -107 8 -128q0 -80 -25 -131q-7 -13 -14 -13q-3 0 -10 6l-4 1q-4 0 -10 -9q-136 -244 -239 -529q-122 -339 -131 -460q0 -59 45 -59q32 0 287 320q432 540 536 708q16 24 26 36q15 20 46 37t120 77q10 8 17 8q3 0 4 -9
q9 -107 9 -124q0 -34 -5 -69l-8 -18q-134 -284 -270 -596q-215 -495 -215 -601l1 -43q0 -34 -5 -58t-29 -48q-3 -3 -7 -3zM1078 1446h-37q-43 0 -62.5 3.5t-30 16t-23.5 38.5q-17 43 -88 143l-2 5q0 3 2 5q80 93 84 93q2 0 6 -3q5 -5 10 -8q11 -5 14 -13q16 -38 56 -111
q28 -52 52 -99t24 -64q0 -6 -5 -6z" />
    <glyph glyph-name="Uacute" unicode="&#xda;" horiz-adv-x="1151" 
d="M759 -207q-6 0 -41 25q-18 14 -65 45q-28 20 -42 32.5t-14 29.5q0 26 24 90q84 263 126 370q30 77 30 92q-225 -283 -331 -397q-110 -118 -175 -118q-31 0 -60.5 19.5t-70.5 52.5q-28 23 -64 50q-26 20 -35 50q-2 9 -7 13l-4 80q4 2 4 29q0 185 211 729q139 340 232 425
q40 36 70 50.5t49.5 31t28.5 16.5q6 0 7 -10q8 -107 8 -128q0 -80 -25 -131q-7 -13 -14 -13q-3 0 -10 6l-4 1q-4 0 -10 -9q-136 -244 -239 -529q-122 -339 -131 -460q0 -59 45 -59q32 0 287 320q432 540 536 708q16 24 26 36q15 20 46 37t120 77q10 8 17 8q3 0 4 -9
q9 -107 9 -124q0 -34 -5 -69l-8 -18q-134 -284 -270 -596q-215 -495 -215 -601l1 -43q0 -34 -5 -58t-29 -48q-3 -3 -7 -3zM914 1440q-4 1 -4 10q0 17 10 68q9 44 98 117q82 66 88 66q2 0 13 -11q29 -28 47 -49q16 -19 16 -30q0 -6 -13 -15q-155 -122 -155 -142l1 -5
q-1 -4 -101 -9z" />
    <glyph glyph-name="Ucircumflex" unicode="&#xdb;" horiz-adv-x="1151" 
d="M759 -207q-6 0 -41 25q-18 14 -65 45q-28 20 -42 32.5t-14 29.5q0 26 24 90q84 263 126 370q30 77 30 92q-225 -283 -331 -397q-110 -118 -175 -118q-31 0 -60.5 19.5t-70.5 52.5q-28 23 -64 50q-26 20 -35 50q-2 9 -7 13l-4 80q4 2 4 29q0 185 211 729q139 340 232 425
q40 36 70 50.5t49.5 31t28.5 16.5q6 0 7 -10q8 -107 8 -128q0 -80 -25 -131q-7 -13 -14 -13q-3 0 -10 6l-4 1q-4 0 -10 -9q-136 -244 -239 -529q-122 -339 -131 -460q0 -59 45 -59q32 0 287 320q432 540 536 708q16 24 26 36q15 20 46 37t120 77q10 8 17 8q3 0 4 -9
q9 -107 9 -124q0 -34 -5 -69l-8 -18q-134 -284 -270 -596q-215 -495 -215 -601l1 -43q0 -34 -5 -58t-29 -48q-3 -3 -7 -3zM1141 1436q-7 0 -18 3q-32 7 -68 7q-18 0 -23 2t-5 14q2 57 6 79q-3 0 -76 -61q-6 -6 -14 -6q-6 0 -15 2q-16 5 -55 7q-37 0 -37 6l13 21q42 66 68 81
q4 2 68 55q113 98 124 98q6 0 11 -13l26 -95q4 -15 4 -35q0 -35 -6 -74q-4 -30 -4 -48q0 -8 1 -13q6 -17 6 -24q0 -6 -6 -6z" />
    <glyph glyph-name="Udieresis" unicode="&#xdc;" horiz-adv-x="1151" 
d="M759 -207q-6 0 -41 25q-18 14 -65 45q-28 20 -42 32.5t-14 29.5q0 26 24 90q84 263 126 370q30 77 30 92q-225 -283 -331 -397q-110 -118 -175 -118q-31 0 -60.5 19.5t-70.5 52.5q-28 23 -64 50q-26 20 -35 50q-2 9 -7 13l-4 80q4 2 4 29q0 185 211 729q139 340 232 425
q40 36 70 50.5t49.5 31t28.5 16.5q6 0 7 -10q8 -107 8 -128q0 -80 -25 -131q-7 -13 -14 -13q-3 0 -10 6l-4 1q-4 0 -10 -9q-136 -244 -239 -529q-122 -339 -131 -460q0 -59 45 -59q32 0 287 320q432 540 536 708q16 24 26 36q15 20 46 37t120 77q10 8 17 8q3 0 4 -9
q9 -107 9 -124q0 -34 -5 -69l-8 -18q-134 -284 -270 -596q-215 -495 -215 -601l1 -43q0 -34 -5 -58t-29 -48q-3 -3 -7 -3zM1094 1429q-11 0 -14 20q-2 11 -4 104q0 22 9 36.5t23 30.5q5 6 9.5 11.5t7.5 5.5q2 0 8 -3q25 -15 80 -30q25 -6 25 -12q0 -4 -7 -11
q-35 -41 -35 -55q0 -4 2 -6t4 -2.5t2 -1.5q0 -2 -4 -5q-45 -41 -69.5 -61.5t-36.5 -20.5zM867 1417q-19 0 -19 24q0 32 40 126q17 40 27 58t20 18t39 -30q18 -20 49 -48q6 -5 6 -9q0 -3 -3 -6.5t-3.5 -10t-9 -8t-16.5 -13.5q-21 -35 -21 -50q0 -3 2 -5.5t2 -4.5
q0 -7 -19 -14q-41 -17 -74 -23q-7 -4 -20 -4z" />
    <glyph glyph-name="Yacute" unicode="&#xdd;" horiz-adv-x="799" 
d="M95 -263q-31 0 -74.5 19.5t-77 43.5t-33.5 37q7 76 69 195t144 245t149 223q88 123 88 137q-22 78 -45 170q-36 149 -82.5 292t-116.5 232q-13 16 -13 37q5 59 8 105q2 37 4.5 52t9.5 15q9 0 27 -12q23 -16 70 -38q33 -13 61 -36t58 -84q61 -125 167 -541q0 -6 4 -11
q21 14 105 121q77 98 185.5 224t226 231t222.5 142l9 2q9 0 12 -9l4 -107q4 -26 4 -48q0 -36 -15 -36l-7 2q-49 0 -334 -334q-292 -345 -522 -680q-273 -400 -273 -539l1 -20q0 -30 -35 -30zM602 1509q-4 1 -4 10q0 17 10 68q9 44 98 117q82 66 88 66q2 0 13 -11
q29 -28 47 -49q16 -19 16 -30q0 -6 -13 -15q-155 -122 -155 -142l1 -5q-1 -4 -101 -9z" />
    <glyph glyph-name="germandbls" unicode="&#xdf;" horiz-adv-x="918" 
d="M389 869q163 125 191 144q16 10 35 24q-74 23 -120 23h-10q-17 -1 -23 -27q-2 -6 -75 -162zM-49 -58q-92 -7 -123 -7h-19.5t-16.5 14v1q0 12 17 49q93 254 376 864q136 297 137 308v44.5t7 23.5q32 -2 46 -2h7q8 0 11 4t6 4t6 -3.5t11 -5.5h12q111 0 181.5 -18.5
t175.5 -95.5q93 -62 96 -100v-2q0 -21 -25 -42.5t-73 -51.5q-62 -40 -152 -113q8 -8 54 -30q42 -19 94 -47.5t92.5 -66.5t43.5 -83v-7q0 -50 -56 -103q-115 -98 -313 -182q-232 -99 -360 -126q-7 0 -7 6v3q0 6 2 16q7 27 8 104q-1 9 -1 16q0 22 8 30.5t44.5 16t122.5 40.5
t240 123q9 5 30 19.5t41 31.5q19 15 19 24v1q0 3 -2 5q-69 44 -166 44q-17 0 -35 -1q-101 -12 -138 -22q-21 -5 -31 -6q-12 0 -13 8q0 9 3 24q4 20 7 60h-3q-267 -577 -310 -731q-12 -31 -14.5 -33t-39.5 -5z" />
    <glyph glyph-name="agrave" unicode="&#xe0;" horiz-adv-x="744" 
d="M443 559q9 0 15.5 22t20.5 85q17 88 67 292q0 3 -1 4.5t-1 2.5q-151 -173 -267 -378l57 3q56 0 89 -22q12 -9 20 -9zM469 0q-10 0 -15 25q-27 122 -32 241q1 33 6 81q2 28 2 44q-7 -4 -11 -4q-6 1 -11 9q-14 17 -33 19q-12 1 -28 1q-53 0 -147 -12q-9 -1 -13 -6.5
t-27 -62.5q-2 -4 -2 -7q0 -8 12 -11.5t12 -8.5q0 -9 -37 -37q-13 -10 -35 -29q-70 -64 -90 -64q-6 0 -8 6q-25 80 -26.5 127t-15.5 48t-14 4v13q2 30 2 51q0 33 -5 67q-2 12 -2 20q0 14 10 19l79 16q317 567 510 671q10 6 20 6q16 0 77 -34l68 -37q44 -20 44 -74
q0 -53 -35 -165q-85 -274 -133 -681l-1 -29q0 -31 6 -65q2 -13 2 -23q0 -16 -9 -23q-60 -42 -86 -70q-23 -25 -34 -25zM757 1238h-37q-43 0 -62.5 3.5t-30 16t-23.5 38.5q-17 43 -88 143l-2 5q0 3 2 5q80 93 84 93q2 0 6 -3q5 -5 10 -8q11 -5 14 -13q16 -38 56 -111
q28 -52 52 -99t24 -64q0 -6 -5 -6z" />
    <glyph glyph-name="aacute" unicode="&#xe1;" horiz-adv-x="744" 
d="M443 559q9 0 15.5 22t20.5 85q17 88 67 292q0 3 -1 4.5t-1 2.5q-151 -173 -267 -378l57 3q56 0 89 -22q12 -9 20 -9zM469 0q-10 0 -15 25q-27 122 -32 241q1 33 6 81q2 28 2 44q-7 -4 -11 -4q-6 1 -11 9q-14 17 -33 19q-12 1 -28 1q-53 0 -147 -12q-9 -1 -13 -6.5
t-27 -62.5q-2 -4 -2 -7q0 -8 12 -11.5t12 -8.5q0 -9 -37 -37q-13 -10 -35 -29q-70 -64 -90 -64q-6 0 -8 6q-25 80 -26.5 127t-15.5 48t-14 4v13q2 30 2 51q0 33 -5 67q-2 12 -2 20q0 14 10 19l79 16q317 567 510 671q10 6 20 6q16 0 77 -34l68 -37q44 -20 44 -74
q0 -53 -35 -165q-85 -274 -133 -681l-1 -29q0 -31 6 -65q2 -13 2 -23q0 -16 -9 -23q-60 -42 -86 -70q-23 -25 -34 -25zM521 1296q-4 1 -4 10q0 17 10 68q9 44 98 117q82 66 88 66q2 0 13 -11q29 -28 47 -49q16 -19 16 -30q0 -6 -13 -15q-155 -122 -155 -142l1 -5
q-1 -4 -101 -9z" />
    <glyph glyph-name="acircumflex" unicode="&#xe2;" horiz-adv-x="744" 
d="M443 559q9 0 15.5 22t20.5 85q17 88 67 292q0 3 -1 4.5t-1 2.5q-151 -173 -267 -378l57 3q56 0 89 -22q12 -9 20 -9zM469 0q-10 0 -15 25q-27 122 -32 241q1 33 6 81q2 28 2 44q-7 -4 -11 -4q-6 1 -11 9q-14 17 -33 19q-12 1 -28 1q-53 0 -147 -12q-9 -1 -13 -6.5
t-27 -62.5q-2 -4 -2 -7q0 -8 12 -11.5t12 -8.5q0 -9 -37 -37q-13 -10 -35 -29q-70 -64 -90 -64q-6 0 -8 6q-25 80 -26.5 127t-15.5 48t-14 4v13q2 30 2 51q0 33 -5 67q-2 12 -2 20q0 14 10 19l79 16q317 567 510 671q10 6 20 6q16 0 77 -34l68 -37q44 -20 44 -74
q0 -53 -35 -165q-85 -274 -133 -681l-1 -29q0 -31 6 -65q2 -13 2 -23q0 -16 -9 -23q-60 -42 -86 -70q-23 -25 -34 -25zM824 1243q-7 0 -18 3q-32 7 -68 7q-18 0 -23 2t-5 14q2 57 6 79q-3 0 -76 -61q-6 -6 -14 -6q-6 0 -15 2q-16 5 -55 7q-37 0 -37 6l13 21q42 66 68 81
q4 2 68 55q113 98 124 98q6 0 11 -13l26 -95q4 -15 4 -35q0 -35 -6 -74q-4 -30 -4 -48q0 -8 1 -13q6 -17 6 -24q0 -6 -6 -6z" />
    <glyph glyph-name="atilde" unicode="&#xe3;" horiz-adv-x="744" 
d="M443 559q9 0 15.5 22t20.5 85q17 88 67 292q0 3 -1 4.5t-1 2.5q-151 -173 -267 -378l57 3q56 0 89 -22q12 -9 20 -9zM469 0q-10 0 -15 25q-27 122 -32 241q1 33 6 81q2 28 2 44q-7 -4 -11 -4q-6 1 -11 9q-14 17 -33 19q-12 1 -28 1q-53 0 -147 -12q-9 -1 -13 -6.5
t-27 -62.5q-2 -4 -2 -7q0 -8 12 -11.5t12 -8.5q0 -9 -37 -37q-13 -10 -35 -29q-70 -64 -90 -64q-6 0 -8 6q-25 80 -26.5 127t-15.5 48t-14 4v13q2 30 2 51q0 33 -5 67q-2 12 -2 20q0 14 10 19l79 16q317 567 510 671q10 6 20 6q16 0 77 -34l68 -37q44 -20 44 -74
q0 -53 -35 -165q-85 -274 -133 -681l-1 -29q0 -31 6 -65q2 -13 2 -23q0 -16 -9 -23q-60 -42 -86 -70q-23 -25 -34 -25zM734 1204q-10 2 -21 3.5t-19 10.5t-10 21l-5 100q-4 -15 -56 -37q-14 -10 -26 -19t-16 -11q-6 -5 -14 -5q-6 0 -16 2q-20 5 -43 5h-10q-25 0 -25 4l16 22
q43 58 166 151q21 5 38 5t25 -7q12 -12 14 -55q0 -38 10 -54q6 -10 24 -10q49 11 82 62l14 -2q15 -4 58 -4q36 0 36 -5q0 -2 -8 -12q-155 -152 -181 -158q-23 -7 -33 -7z" />
    <glyph glyph-name="adieresis" unicode="&#xe4;" horiz-adv-x="744" 
d="M443 559q9 0 15.5 22t20.5 85q17 88 67 292q0 3 -1 4.5t-1 2.5q-151 -173 -267 -378l57 3q56 0 89 -22q12 -9 20 -9zM469 0q-10 0 -15 25q-27 122 -32 241q1 33 6 81q2 28 2 44q-7 -4 -11 -4q-6 1 -11 9q-14 17 -33 19q-12 1 -28 1q-53 0 -147 -12q-9 -1 -13 -6.5
t-27 -62.5q-2 -4 -2 -7q0 -8 12 -11.5t12 -8.5q0 -9 -37 -37q-13 -10 -35 -29q-70 -64 -90 -64q-6 0 -8 6q-25 80 -26.5 127t-15.5 48t-14 4v13q2 30 2 51q0 33 -5 67q-2 12 -2 20q0 14 10 19l79 16q317 567 510 671q10 6 20 6q16 0 77 -34l68 -37q44 -20 44 -74
q0 -53 -35 -165q-85 -274 -133 -681l-1 -29q0 -31 6 -65q2 -13 2 -23q0 -16 -9 -23q-60 -42 -86 -70q-23 -25 -34 -25zM703 1255q-11 0 -14 20q-2 11 -4 104q0 22 9 36.5t23 30.5q5 6 9.5 11.5t7.5 5.5q2 0 8 -3q25 -15 80 -30q25 -6 25 -12q0 -4 -7 -11q-35 -41 -35 -55
q0 -4 2 -6t4 -2.5t2 -1.5q0 -2 -4 -5q-45 -41 -69.5 -61.5t-36.5 -20.5zM476 1243q-19 0 -19 24q0 32 40 126q17 40 27 58t20 18t39 -30q18 -20 49 -48q6 -5 6 -9q0 -3 -3 -6.5t-3.5 -10t-9 -8t-16.5 -13.5q-21 -35 -21 -50q0 -3 2 -5.5t2 -4.5q0 -7 -19 -14
q-41 -17 -74 -23q-7 -4 -20 -4z" />
    <glyph glyph-name="aring" unicode="&#xe5;" horiz-adv-x="744" 
d="M443 559q9 0 15.5 22t20.5 85q17 88 67 292q0 3 -1 4.5t-1 2.5q-151 -173 -267 -378l57 3q56 0 89 -22q12 -9 20 -9zM469 0q-10 0 -15 25q-27 122 -32 241q1 33 6 81q2 28 2 44q-7 -4 -11 -4q-6 1 -11 9q-14 17 -33 19q-12 1 -28 1q-53 0 -147 -12q-9 -1 -13 -6.5
t-27 -62.5q-2 -4 -2 -7q0 -8 12 -11.5t12 -8.5q0 -9 -37 -37q-13 -10 -35 -29q-70 -64 -90 -64q-6 0 -8 6q-25 80 -26.5 127t-15.5 48t-14 4v13q2 30 2 51q0 33 -5 67q-2 12 -2 20q0 14 10 19l79 16q317 567 510 671q10 6 20 6q16 0 77 -34l68 -37q44 -20 44 -74
q0 -53 -35 -165q-85 -274 -133 -681l-1 -29q0 -31 6 -65q2 -13 2 -23q0 -16 -9 -23q-60 -42 -86 -70q-23 -25 -34 -25zM637 1366q12 0 29 7q33 16 33 26q0 8 -6 8q-49 -5 -54 -9q-11 -17 -11 -25q0 -7 9 -7zM598 1264q-58 0 -58 66q0 59 45 135q17 30 40.5 44t62.5 18
q11 2 20 2q19 0 30 -12t30 -46q8 -15 21 -36q11 -17 11 -43q0 -74 -91 -111q-7 -3 -20 -3q-21 0 -61 -10q-17 -4 -30 -4z" />
    <glyph glyph-name="ae" unicode="&#xe6;" horiz-adv-x="1135" 
d="M698 827q-8 -30 -15 -61q15 25 34 56q5 5 18 28v2q-27 -5 -27 -19q0 -6 -7 -6h-3zM591 97l-2 -2q-60 -42 -86 -70q-23 -25 -34 -25q-10 0 -15 25q-27 122 -32 241q1 33 6 81q2 28 2 44q-7 -4 -11 -4q-6 1 -11 9q-14 17 -33 19q-12 1 -28 1q-53 0 -147 -12q-9 -1 -13 -6.5
t-27 -62.5q-2 -4 -2 -7q0 -8 12 -11.5t12 -8.5q0 -9 -37 -37q-13 -10 -35 -29q-70 -64 -90 -64q-6 0 -8 6q-25 80 -26.5 127t-15.5 48t-14 4v13q2 30 2 51q0 33 -5 67q-2 12 -2 20q0 14 10 19l79 16q317 567 510 671q10 6 20 6q16 0 77 -34l68 -37q44 -20 44 -74
q0 -24 -7 -60q39 10 80 18q197 38 342 38q182 0 184 -49q-2 -23 -2 -45q1 -34 5 -60.5t4 -49.5q0 -37 -27 -37q-35 0 -139 61q-6 4 -21 4q-22 0 -53 -3q-41 -4 -113 -8q-51 -2 -51 -19q0 -6 3.5 -16.5t3.5 -32.5q0 -16 -8 -39q-6 -17 -10 -18q-3 0 -7.5 3t-12.5 5
q-5 0 -22 -25q-14 -20 -19 -29q0 -2 11 -2q25 3 38 3q22 0 32.5 -12.5t19.5 -35.5q18 -40 52 -84q16 -21 16 -31t-34 -11l-18 1q-61 -1 -120.5 -2.5t-96 -19t-71 -78t-82.5 -185.5l-1 -4q2 -15 27 -15q18 0 29 6q150 94 202 124q37 21 53 21q15 0 16 -30q0 -79 6 -113l1 -14
q0 -9 -6 -17q-13 -17 -141 -92q-85 -51 -129 -58q-22 0 -64 13q-19 6 -38 14zM533 903q-19 14 -22 24q-131 -157 -234 -340l57 3q56 0 89 -22q12 -9 20 -9q9 0 15.5 22t20.5 85q15 76 54 237zM523 941q11 5 21 10q1 3 2 7q0 3 -1 4.5t-1 2.5q-10 -12 -21 -24z" />
    <glyph glyph-name="ccedilla" unicode="&#xe7;" horiz-adv-x="687" 
d="M238 67q-12 3 -24 8q-30 13 -83 41q-136 70 -136 222q0 117 69.5 252.5t172 255.5t210 197.5t183.5 77.5q55 0 65 -45q6 -30 6 -78q0 -38 2 -73l1 -52q0 -43 -10.5 -88t-49.5 -89q-1 -1 -5 -1q-27 0 -116 51q-55 30 -55 40q0 9 14 24q21 23 32 64q-72 -61 -147.5 -176.5
t-129 -231t-53.5 -167.5q0 -14 5 -21q26 -37 51 -37q9 0 17 7q173 147 206 214q5 11 12 19q10 13 75 43q90 42 105 47q5 0 5 -8l-1 -56q0 -58 6 -75q2 -12 2 -20q0 -16 -21 -42q-110 -131 -188 -202q-53 -48 -98 -74v-24q1 -4 10 -4q5 0 12.5 1t17.5 1q24 0 42 -10
q32 -18 38 -40q3 -14 3 -32q0 -9 -1 -20q-1 -16 -1 -35v-13q0 -38 -20 -59q-26 -29 -96 -49q-42 -14 -66 -14t-73 30q-50 29 -50 45q0 8 12 14q7 3 45 17q32 12 36 12q3 0 3 -4v-1q2 -20 28 -20q17 0 40 10q48 21 48 63q0 11 -4 12q-55 -4 -93 -27q-11 -9 -19 -9
q-2 0 -26 14q-29 14 -59 39q-1 1 -1 4q2 13 44 63q4 5 8 9z" />
    <glyph glyph-name="egrave" unicode="&#xe8;" horiz-adv-x="672" 
d="M230 70q-22 0 -64 13t-86.5 37.5t-76 56t-32.5 70.5q3 94 72 218l3 7l-1 6h-23q-53 0 -53 12q0 10 22 34q10 10 34 41q46 64 62 71l48 14q19 6 119 172q5 5 18 28v2q-27 -5 -27 -19q0 -6 -7 -6q-20 2 -100 39q-89 41 -90 63q0 6 8 10q138 66 313 100q197 38 342 38
q182 0 184 -49q-2 -23 -2 -45q1 -34 5 -60.5t4 -49.5q0 -37 -27 -37q-35 0 -139 61q-6 4 -21 4q-22 0 -53 -3q-41 -4 -113 -8q-51 -2 -51 -19q0 -6 3.5 -16.5t3.5 -32.5q0 -16 -8 -39q-6 -17 -10 -18q-3 0 -7.5 3t-12.5 5q-5 0 -22 -25q-14 -20 -19 -29q0 -2 11 -2
q25 3 38 3q22 0 32.5 -12.5t19.5 -35.5q18 -40 52 -84q16 -21 16 -31t-34 -11l-18 1q-61 -1 -120.5 -2.5t-96 -19t-71 -78t-82.5 -185.5l-1 -4q2 -15 27 -15q18 0 29 6q150 94 202 124q37 21 53 21q15 0 16 -30q0 -79 6 -113l1 -14q0 -9 -6 -17q-13 -17 -141 -92
q-85 -51 -129 -58zM606 1120h-37q-43 0 -62.5 3.5t-30 16t-23.5 38.5q-17 43 -88 143l-2 5q0 3 2 5q80 93 84 93q2 0 6 -3q5 -5 10 -8q11 -5 14 -13q16 -38 56 -111q28 -52 52 -99t24 -64q0 -6 -5 -6z" />
    <glyph glyph-name="eacute" unicode="&#xe9;" horiz-adv-x="672" 
d="M230 70q-22 0 -64 13t-86.5 37.5t-76 56t-32.5 70.5q3 94 72 218l3 7l-1 6h-23q-53 0 -53 12q0 10 22 34q10 10 34 41q46 64 62 71l48 14q19 6 119 172q5 5 18 28v2q-27 -5 -27 -19q0 -6 -7 -6q-20 2 -100 39q-89 41 -90 63q0 6 8 10q138 66 313 100q197 38 342 38
q182 0 184 -49q-2 -23 -2 -45q1 -34 5 -60.5t4 -49.5q0 -37 -27 -37q-35 0 -139 61q-6 4 -21 4q-22 0 -53 -3q-41 -4 -113 -8q-51 -2 -51 -19q0 -6 3.5 -16.5t3.5 -32.5q0 -16 -8 -39q-6 -17 -10 -18q-3 0 -7.5 3t-12.5 5q-5 0 -22 -25q-14 -20 -19 -29q0 -2 11 -2
q25 3 38 3q22 0 32.5 -12.5t19.5 -35.5q18 -40 52 -84q16 -21 16 -31t-34 -11l-18 1q-61 -1 -120.5 -2.5t-96 -19t-71 -78t-82.5 -185.5l-1 -4q2 -15 27 -15q18 0 29 6q150 94 202 124q37 21 53 21q15 0 16 -30q0 -79 6 -113l1 -14q0 -9 -6 -17q-13 -17 -141 -92
q-85 -51 -129 -58zM463 1101q-4 1 -4 10q0 17 10 68q9 44 98 117q82 66 88 66q2 0 13 -11q29 -28 47 -49q16 -19 16 -30q0 -6 -13 -15q-155 -122 -155 -142l1 -5q-1 -4 -101 -9z" />
    <glyph glyph-name="ecircumflex" unicode="&#xea;" horiz-adv-x="672" 
d="M230 70q-22 0 -64 13t-86.5 37.5t-76 56t-32.5 70.5q3 94 72 218l3 7l-1 6h-23q-53 0 -53 12q0 10 22 34q10 10 34 41q46 64 62 71l48 14q19 6 119 172q5 5 18 28v2q-27 -5 -27 -19q0 -6 -7 -6q-20 2 -100 39q-89 41 -90 63q0 6 8 10q138 66 313 100q197 38 342 38
q182 0 184 -49q-2 -23 -2 -45q1 -34 5 -60.5t4 -49.5q0 -37 -27 -37q-35 0 -139 61q-6 4 -21 4q-22 0 -53 -3q-41 -4 -113 -8q-51 -2 -51 -19q0 -6 3.5 -16.5t3.5 -32.5q0 -16 -8 -39q-6 -17 -10 -18q-3 0 -7.5 3t-12.5 5q-5 0 -22 -25q-14 -20 -19 -29q0 -2 11 -2
q25 3 38 3q22 0 32.5 -12.5t19.5 -35.5q18 -40 52 -84q16 -21 16 -31t-34 -11l-18 1q-61 -1 -120.5 -2.5t-96 -19t-71 -78t-82.5 -185.5l-1 -4q2 -15 27 -15q18 0 29 6q150 94 202 124q37 21 53 21q15 0 16 -30q0 -79 6 -113l1 -14q0 -9 -6 -17q-13 -17 -141 -92
q-85 -51 -129 -58zM671 1114q-7 0 -18 3q-32 7 -68 7q-18 0 -23 2t-5 14q2 57 6 79q-3 0 -76 -61q-6 -6 -14 -6q-6 0 -15 2q-16 5 -55 7q-37 0 -37 6l13 21q42 66 68 81q4 2 68 55q113 98 124 98q6 0 11 -13l26 -95q4 -15 4 -35q0 -35 -6 -74q-4 -30 -4 -48q0 -8 1 -13
q6 -17 6 -24q0 -6 -6 -6z" />
    <glyph glyph-name="edieresis" unicode="&#xeb;" horiz-adv-x="672" 
d="M230 70q-22 0 -64 13t-86.5 37.5t-76 56t-32.5 70.5q3 94 72 218l3 7l-1 6h-23q-53 0 -53 12q0 10 22 34q10 10 34 41q46 64 62 71l48 14q19 6 119 172q5 5 18 28v2q-27 -5 -27 -19q0 -6 -7 -6q-20 2 -100 39q-89 41 -90 63q0 6 8 10q138 66 313 100q197 38 342 38
q182 0 184 -49q-2 -23 -2 -45q1 -34 5 -60.5t4 -49.5q0 -37 -27 -37q-35 0 -139 61q-6 4 -21 4q-22 0 -53 -3q-41 -4 -113 -8q-51 -2 -51 -19q0 -6 3.5 -16.5t3.5 -32.5q0 -16 -8 -39q-6 -17 -10 -18q-3 0 -7.5 3t-12.5 5q-5 0 -22 -25q-14 -20 -19 -29q0 -2 11 -2
q25 3 38 3q22 0 32.5 -12.5t19.5 -35.5q18 -40 52 -84q16 -21 16 -31t-34 -11l-18 1q-61 -1 -120.5 -2.5t-96 -19t-71 -78t-82.5 -185.5l-1 -4q2 -15 27 -15q18 0 29 6q150 94 202 124q37 21 53 21q15 0 16 -30q0 -79 6 -113l1 -14q0 -9 -6 -17q-13 -17 -141 -92
q-85 -51 -129 -58zM560 1101q-11 0 -14 20q-2 11 -4 104q0 22 9 36.5t23 30.5q5 6 9.5 11.5t7.5 5.5q2 0 8 -3q25 -15 80 -30q25 -6 25 -12q0 -4 -7 -11q-35 -41 -35 -55q0 -4 2 -6t4 -2.5t2 -1.5q0 -2 -4 -5q-45 -41 -69.5 -61.5t-36.5 -20.5zM333 1089q-19 0 -19 24
q0 32 40 126q17 40 27 58t20 18t39 -30q18 -20 49 -48q6 -5 6 -9q0 -3 -3 -6.5t-3.5 -10t-9 -8t-16.5 -13.5q-21 -35 -21 -50q0 -3 2 -5.5t2 -4.5q0 -7 -19 -14q-41 -17 -74 -23q-7 -4 -20 -4z" />
    <glyph glyph-name="igrave" unicode="&#xec;" horiz-adv-x="470" 
d="M-76 7q-9 0 -16 15q-32 88 -49 118q-12 20 -12 30q0 9 18 20q105 63 150 63q11 0 17 -3l2 1q0 104 255 623q4 6 4 15q-18 -9 -34 -13q-23 4 -44 4q-14 0 -18 1t-5 15l1 45l-1 41q0 44 5.5 64.5t33.5 31.5t124 32q107 26 135 26q21 0 52 -17q25 -17 108 -48q26 -8 27 -15
q0 -3 -6 -8q-56 -43 -84 -61q-23 -15 -39 -29t-33 -41q-24 -39 -179 -388q-113 -245 -113 -261q0 -11 28.5 -12t84.5 -20q15 -5 15 -13q0 -14 -89 -98q-37 -38 -42 -38q-2 0 -5 6q-6 10 -18 10q-16 0 -19 -10q-6 -19 -14 -19q-4 0 -11 9q-11 12 -21 12q-139 -24 -171 -61
q-25 -26 -37 -27zM607 1174h-37q-43 0 -62.5 3.5t-30 16t-23.5 38.5q-17 43 -88 143l-2 5q0 3 2 5q80 93 84 93q2 0 6 -3q5 -5 10 -8q11 -5 14 -13q16 -38 56 -111q28 -52 52 -99t24 -64q0 -6 -5 -6z" />
    <glyph glyph-name="iacute" unicode="&#xed;" horiz-adv-x="470" 
d="M-76 7q-9 0 -16 15q-32 88 -49 118q-12 20 -12 30q0 9 18 20q105 63 150 63q11 0 17 -3l2 1q0 104 255 623q4 6 4 15q-18 -9 -34 -13q-23 4 -44 4q-14 0 -18 1t-5 15l1 45l-1 41q0 44 5.5 64.5t33.5 31.5t124 32q107 26 135 26q21 0 52 -17q25 -17 108 -48q26 -8 27 -15
q0 -3 -6 -8q-56 -43 -84 -61q-23 -15 -39 -29t-33 -41q-24 -39 -179 -388q-113 -245 -113 -261q0 -11 28.5 -12t84.5 -20q15 -5 15 -13q0 -14 -89 -98q-37 -38 -42 -38q-2 0 -5 6q-6 10 -18 10q-16 0 -19 -10q-6 -19 -14 -19q-4 0 -11 9q-11 12 -21 12q-139 -24 -171 -61
q-25 -26 -37 -27zM325 1162q-4 1 -4 10q0 17 10 68q9 44 98 117q82 66 88 66q2 0 13 -11q29 -28 47 -49q16 -19 16 -30q0 -6 -13 -15q-155 -122 -155 -142l1 -5q-1 -4 -101 -9z" />
    <glyph glyph-name="icircumflex" unicode="&#xee;" horiz-adv-x="470" 
d="M-76 7q-9 0 -16 15q-32 88 -49 118q-12 20 -12 30q0 9 18 20q105 63 150 63q11 0 17 -3l2 1q0 104 255 623q4 6 4 15q-18 -9 -34 -13q-23 4 -44 4q-14 0 -18 1t-5 15l1 45l-1 41q0 44 5.5 64.5t33.5 31.5t124 32q107 26 135 26q21 0 52 -17q25 -17 108 -48q26 -8 27 -15
q0 -3 -6 -8q-56 -43 -84 -61q-23 -15 -39 -29t-33 -41q-24 -39 -179 -388q-113 -245 -113 -261q0 -11 28.5 -12t84.5 -20q15 -5 15 -13q0 -14 -89 -98q-37 -38 -42 -38q-2 0 -5 6q-6 10 -18 10q-16 0 -19 -10q-6 -19 -14 -19q-4 0 -11 9q-11 12 -21 12q-139 -24 -171 -61
q-25 -26 -37 -27zM629 1143q-7 0 -18 3q-32 7 -68 7q-18 0 -23 2t-5 14q2 57 6 79q-3 0 -76 -61q-6 -6 -14 -6q-6 0 -15 2q-16 5 -55 7q-37 0 -37 6l13 21q42 66 68 81q4 2 68 55q113 98 124 98q6 0 11 -13l26 -95q4 -15 4 -35q0 -35 -6 -74q-4 -30 -4 -48q0 -8 1 -13
q6 -17 6 -24q0 -6 -6 -6z" />
    <glyph glyph-name="idieresis" unicode="&#xef;" horiz-adv-x="470" 
d="M-76 7q-9 0 -16 15q-32 88 -49 118q-12 20 -12 30q0 9 18 20q105 63 150 63q11 0 17 -3l2 1q0 104 255 623q4 6 4 15q-18 -9 -34 -13q-23 4 -44 4q-14 0 -18 1t-5 15l1 45l-1 41q0 44 5.5 64.5t33.5 31.5t124 32q107 26 135 26q21 0 52 -17q25 -17 108 -48q26 -8 27 -15
q0 -3 -6 -8q-56 -43 -84 -61q-23 -15 -39 -29t-33 -41q-24 -39 -179 -388q-113 -245 -113 -261q0 -11 28.5 -12t84.5 -20q15 -5 15 -13q0 -14 -89 -98q-37 -38 -42 -38q-2 0 -5 6q-6 10 -18 10q-16 0 -19 -10q-6 -19 -14 -19q-4 0 -11 9q-11 12 -21 12q-139 -24 -171 -61
q-25 -26 -37 -27zM519 1170q-11 0 -14 20q-2 11 -4 104q0 22 9 36.5t23 30.5q5 6 9.5 11.5t7.5 5.5q2 0 8 -3q25 -15 80 -30q25 -6 25 -12q0 -4 -7 -11q-35 -41 -35 -55q0 -4 2 -6t4 -2.5t2 -1.5q0 -2 -4 -5q-45 -41 -69.5 -61.5t-36.5 -20.5zM292 1158q-19 0 -19 24
q0 32 40 126q17 40 27 58t20 18t39 -30q18 -20 49 -48q6 -5 6 -9q0 -3 -3 -6.5t-3.5 -10t-9 -8t-16.5 -13.5q-21 -35 -21 -50q0 -3 2 -5.5t2 -4.5q0 -7 -19 -14q-41 -17 -74 -23q-7 -4 -20 -4z" />
    <glyph glyph-name="ntilde" unicode="&#xf1;" horiz-adv-x="747" 
d="M-76 -39q-8 0 -11.5 14t-12.5 64q-6 35 -6 50q0 77 84.5 280.5t153 348.5t128.5 247.5t78 102.5q57 -19 102 -19q12 0 20 3q3 -9 17.5 -9t14.5 -15t14 -18q9 -3 9 -34q0 -18 -5.5 -69t-10.5 -94.5t-30 -142.5t-30 -165q36 62 173 329q169 332 177 386q1 8 7.5 15t14.5 7
q4 0 8 -3q100 -88 117 -105q20 -21 20 -37q0 -15 -13 -35q0 -5 -335 -663q-133 -262 -155 -273q-7 -4 -51 -11q-91 -20 -126 -20q-32 0 -48 19t-16 72q0 99 74 453h-3q-173 -350 -173 -359q0 -3 9.5 -4.5t9.5 -7.5q0 -4 -4 -12q-27 -53 -42 -90q-19 -46 -36 -68
q-25 -30 -43 -53q-68 -84 -80 -84zM581 1124q-10 2 -21 3.5t-19 10.5t-10 21l-5 100q-4 -15 -56 -37q-14 -10 -26 -19t-16 -11q-6 -5 -14 -5q-6 0 -16 2q-20 5 -43 5h-10q-25 0 -25 4l16 22q43 58 166 151q21 5 38 5t25 -7q12 -12 14 -55q0 -38 10 -54q6 -10 24 -10
q49 11 82 62l14 -2q15 -4 58 -4q36 0 36 -5q0 -2 -8 -12q-155 -152 -181 -158q-23 -7 -33 -7z" />
    <glyph glyph-name="ograve" unicode="&#xf2;" horiz-adv-x="659" 
d="M133 242q34 0 109 85t151 214.5t121 269.5q1 4 1 11q0 17 -6 48t-15 56t-17 25l-3 -1q-36 -29 -36 -41q0 -7 14 -15q21 -13 21 -39q0 -11 -4 -15t-47 -15q-47 -10 -53 -13q-6 0 -20 -19q-21 -27 -21 -36q0 -7 4 -13.5t4 -9.5q-3 -6 -6 -6l-7 1q-11 0 -27 -22
q-20 -26 -65 -116q-117 -240 -117 -318q0 -31 19 -31zM75 38q-42 0 -74 17q-71 38 -71 157q0 90 33.5 211t89 247t123.5 233.5t139.5 175t134.5 67.5q32 0 60 -20q87 -60 133 -101t57 -90q0 -158 -43 -295.5t-112.5 -248.5t-152.5 -190t-166.5 -121t-150.5 -42zM678 1120
h-37q-43 0 -62.5 3.5t-30 16t-23.5 38.5q-17 43 -88 143l-2 5q0 3 2 5q80 93 84 93q2 0 6 -3q5 -5 10 -8q11 -5 14 -13q16 -38 56 -111q28 -52 52 -99t24 -64q0 -6 -5 -6z" />
    <glyph glyph-name="oacute" unicode="&#xf3;" horiz-adv-x="659" 
d="M133 242q34 0 109 85t151 214.5t121 269.5q1 4 1 11q0 17 -6 48t-15 56t-17 25l-3 -1q-36 -29 -36 -41q0 -7 14 -15q21 -13 21 -39q0 -11 -4 -15t-47 -15q-47 -10 -53 -13q-6 0 -20 -19q-21 -27 -21 -36q0 -7 4 -13.5t4 -9.5q-3 -6 -6 -6l-7 1q-11 0 -27 -22
q-20 -26 -65 -116q-117 -240 -117 -318q0 -31 19 -31zM75 38q-42 0 -74 17q-71 38 -71 157q0 90 33.5 211t89 247t123.5 233.5t139.5 175t134.5 67.5q32 0 60 -20q87 -60 133 -101t57 -90q0 -158 -43 -295.5t-112.5 -248.5t-152.5 -190t-166.5 -121t-150.5 -42zM465 1172
q-4 1 -4 10q0 17 10 68q9 44 98 117q82 66 88 66q2 0 13 -11q29 -28 47 -49q16 -19 16 -30q0 -6 -13 -15q-155 -122 -155 -142l1 -5q-1 -4 -101 -9z" />
    <glyph glyph-name="ocircumflex" unicode="&#xf4;" horiz-adv-x="659" 
d="M133 242q34 0 109 85t151 214.5t121 269.5q1 4 1 11q0 17 -6 48t-15 56t-17 25l-3 -1q-36 -29 -36 -41q0 -7 14 -15q21 -13 21 -39q0 -11 -4 -15t-47 -15q-47 -10 -53 -13q-6 0 -20 -19q-21 -27 -21 -36q0 -7 4 -13.5t4 -9.5q-3 -6 -6 -6l-7 1q-11 0 -27 -22
q-20 -26 -65 -116q-117 -240 -117 -318q0 -31 19 -31zM75 38q-42 0 -74 17q-71 38 -71 157q0 90 33.5 211t89 247t123.5 233.5t139.5 175t134.5 67.5q32 0 60 -20q87 -60 133 -101t57 -90q0 -158 -43 -295.5t-112.5 -248.5t-152.5 -190t-166.5 -121t-150.5 -42zM734 1158
q-7 0 -18 3q-32 7 -68 7q-18 0 -23 2t-5 14q2 57 6 79q-3 0 -76 -61q-6 -6 -14 -6q-6 0 -15 2q-16 5 -55 7q-37 0 -37 6l13 21q42 66 68 81q4 2 68 55q113 98 124 98q6 0 11 -13l26 -95q4 -15 4 -35q0 -35 -6 -74q-4 -30 -4 -48q0 -8 1 -13q6 -17 6 -24q0 -6 -6 -6z" />
    <glyph glyph-name="otilde" unicode="&#xf5;" horiz-adv-x="659" 
d="M133 242q34 0 109 85t151 214.5t121 269.5q1 4 1 11q0 17 -6 48t-15 56t-17 25l-3 -1q-36 -29 -36 -41q0 -7 14 -15q21 -13 21 -39q0 -11 -4 -15t-47 -15q-47 -10 -53 -13q-6 0 -20 -19q-21 -27 -21 -36q0 -7 4 -13.5t4 -9.5q-3 -6 -6 -6l-7 1q-11 0 -27 -22
q-20 -26 -65 -116q-117 -240 -117 -318q0 -31 19 -31zM75 38q-42 0 -74 17q-71 38 -71 157q0 90 33.5 211t89 247t123.5 233.5t139.5 175t134.5 67.5q32 0 60 -20q87 -60 133 -101t57 -90q0 -158 -43 -295.5t-112.5 -248.5t-152.5 -190t-166.5 -121t-150.5 -42zM621 1128
q-10 2 -21 3.5t-19 10.5t-10 21l-5 100q-4 -15 -56 -37q-14 -10 -26 -19t-16 -11q-6 -5 -14 -5q-6 0 -16 2q-20 5 -43 5h-10q-25 0 -25 4l16 22q43 58 166 151q21 5 38 5t25 -7q12 -12 14 -55q0 -38 10 -54q6 -10 24 -10q49 11 82 62l14 -2q15 -4 58 -4q36 0 36 -5
q0 -2 -8 -12q-155 -152 -181 -158q-23 -7 -33 -7z" />
    <glyph glyph-name="odieresis" unicode="&#xf6;" horiz-adv-x="659" 
d="M133 242q34 0 109 85t151 214.5t121 269.5q1 4 1 11q0 17 -6 48t-15 56t-17 25l-3 -1q-36 -29 -36 -41q0 -7 14 -15q21 -13 21 -39q0 -11 -4 -15t-47 -15q-47 -10 -53 -13q-6 0 -20 -19q-21 -27 -21 -36q0 -7 4 -13.5t4 -9.5q-3 -6 -6 -6l-7 1q-11 0 -27 -22
q-20 -26 -65 -116q-117 -240 -117 -318q0 -31 19 -31zM75 38q-42 0 -74 17q-71 38 -71 157q0 90 33.5 211t89 247t123.5 233.5t139.5 175t134.5 67.5q32 0 60 -20q87 -60 133 -101t57 -90q0 -158 -43 -295.5t-112.5 -248.5t-152.5 -190t-166.5 -121t-150.5 -42zM625 1193
q-11 0 -14 20q-2 11 -4 104q0 22 9 36.5t23 30.5q5 6 9.5 11.5t7.5 5.5q2 0 8 -3q25 -15 80 -30q25 -6 25 -12q0 -4 -7 -11q-35 -41 -35 -55q0 -4 2 -6t4 -2.5t2 -1.5q0 -2 -4 -5q-45 -41 -69.5 -61.5t-36.5 -20.5zM398 1181q-19 0 -19 24q0 32 40 126q17 40 27 58t20 18
t39 -30q18 -20 49 -48q6 -5 6 -9q0 -3 -3 -6.5t-3.5 -10t-9 -8t-16.5 -13.5q-21 -35 -21 -50q0 -3 2 -5.5t2 -4.5q0 -7 -19 -14q-41 -17 -74 -23q-7 -4 -20 -4z" />
    <glyph glyph-name="divide" unicode="&#xf7;" horiz-adv-x="993" 
d="M881 532l-25 1q-24 3 -72 3l-43 -1q-640 8 -640 12q0 14 20.5 54.5t47.5 77t48 36.5q96 -5 173 -5q142 0 226 8q56 5 95 5q63 0 95.5 -23t57.5 -93l15 -38q11 -22 11 -30q0 -7 -9 -7zM563 759q-4 0 -17.5 6t-51.5 17.5t-61 15.5q-18 3 -27 6t-9 11q0 5 5 14
q40 76 112.5 149t115.5 102q6 6 11 6t10 -34l9 -99q0 -10 -5 -27q-12 -42 -26 -58q-61 -64 -61 -100q-2 -9 -5 -9zM443 146h-8q-80 47 -119 61q-19 8 -28.5 13t-9.5 13q0 9 11 25q34 50 89.5 103t109 90t75.5 37q10 0 10 -10q-12 -192 -26 -192l-10 1q-4 0 -9 -4
q-77 -79 -77 -113l1 -11q0 -6 -9 -13z" />
    <glyph glyph-name="oslash" unicode="&#xf8;" horiz-adv-x="659" 
d="M624 1041q10 -8 19 -16q46 -41 57 -90q0 -158 -43 -295.5t-112.5 -248.5t-152.5 -190t-166.5 -121t-150.5 -42q-25 0 -46 6q-70 -113 -147 -239q-4 -9 -8 -9q-3 0 -9.5 9t-20.5 32t-41 63q-1 3 -1 6q0 35 94 187q19 30 39 62q-5 26 -5 57q0 90 33.5 211t89 247
t123.5 233.5t139.5 175t134.5 67.5q32 0 60 -20q11 -8 22 -15q38 68 68 128q18 40 21 43q5 7 12 7q25 3 50 12.5t40 9.5t16 -18q0 -34 -71 -170q-18 -35 -44 -82zM513 847q-46 -80 -103 -175q-104 -175 -256 -424q33 16 88 79q75 85 151 214.5t121 269.5q1 4 1 11
q0 10 -2 25z" />
    <glyph glyph-name="ugrave" unicode="&#xf9;" horiz-adv-x="807" 
d="M596 107l-10 2q-48 18 -81 29q-44 12 -62 22t-18 31q0 32 40 133q22 57 29 91l-37 -40q-160 -189 -236 -189q-20 0 -184 64q-34 14 -34 91q0 155 103 427q93 249 185 360q22 24 34 40q14 23 23 23q8 -1 29 -68q28 -72 28 -113q0 -28 -14 -52q-17 -32 -38 -133
q-2 -13 -8 -13q-2 0 -5.5 2t-6.5 2q-14 0 -103 -271q-34 -104 -34 -142q0 -17 10 -17q22 0 92 77q59 66 371 438q23 31 51 86l19 19q94 106 107 114q22 -1 51 -115q14 -60 14 -71q-1 -11 -14 -28q-54 -70 -143 -329q-81 -238 -100 -286q-14 -33 -14 -41q0 -3 2.5 -8t3.5 -38
q0 -14 -36 -82q-8 -15 -14 -15zM697 1146h-37q-43 0 -62.5 3.5t-30 16t-23.5 38.5q-17 43 -88 143l-2 5q0 3 2 5q80 93 84 93q2 0 6 -3q5 -5 10 -8q11 -5 14 -13q16 -38 56 -111q28 -52 52 -99t24 -64q0 -6 -5 -6z" />
    <glyph glyph-name="uacute" unicode="&#xfa;" horiz-adv-x="807" 
d="M596 107l-10 2q-48 18 -81 29q-44 12 -62 22t-18 31q0 32 40 133q22 57 29 91l-37 -40q-160 -189 -236 -189q-20 0 -184 64q-34 14 -34 91q0 155 103 427q93 249 185 360q22 24 34 40q14 23 23 23q8 -1 29 -68q28 -72 28 -113q0 -28 -14 -52q-17 -32 -38 -133
q-2 -13 -8 -13q-2 0 -5.5 2t-6.5 2q-14 0 -103 -271q-34 -104 -34 -142q0 -17 10 -17q22 0 92 77q59 66 371 438q23 31 51 86l19 19q94 106 107 114q22 -1 51 -115q14 -60 14 -71q-1 -11 -14 -28q-54 -70 -143 -329q-81 -238 -100 -286q-14 -33 -14 -41q0 -3 2.5 -8t3.5 -38
q0 -14 -36 -82q-8 -15 -14 -15zM554 1167q-4 1 -4 10q0 17 10 68q9 44 98 117q82 66 88 66q2 0 13 -11q29 -28 47 -49q16 -19 16 -30q0 -6 -13 -15q-155 -122 -155 -142l1 -5q-1 -4 -101 -9z" />
    <glyph glyph-name="ucircumflex" unicode="&#xfb;" horiz-adv-x="807" 
d="M596 107l-10 2q-48 18 -81 29q-44 12 -62 22t-18 31q0 32 40 133q22 57 29 91l-37 -40q-160 -189 -236 -189q-20 0 -184 64q-34 14 -34 91q0 155 103 427q93 249 185 360q22 24 34 40q14 23 23 23q8 -1 29 -68q28 -72 28 -113q0 -28 -14 -52q-17 -32 -38 -133
q-2 -13 -8 -13q-2 0 -5.5 2t-6.5 2q-14 0 -103 -271q-34 -104 -34 -142q0 -17 10 -17q22 0 92 77q59 66 371 438q23 31 51 86l19 19q94 106 107 114q22 -1 51 -115q14 -60 14 -71q-1 -11 -14 -28q-54 -70 -143 -329q-81 -238 -100 -286q-14 -33 -14 -41q0 -3 2.5 -8t3.5 -38
q0 -14 -36 -82q-8 -15 -14 -15zM791 1190q-7 0 -18 3q-32 7 -68 7q-18 0 -23 2t-5 14q2 57 6 79q-3 0 -76 -61q-6 -6 -14 -6q-6 0 -15 2q-16 5 -55 7q-37 0 -37 6l13 21q42 66 68 81q4 2 68 55q113 98 124 98q6 0 11 -13l26 -95q4 -15 4 -35q0 -35 -6 -74q-4 -30 -4 -48
q0 -8 1 -13q6 -17 6 -24q0 -6 -6 -6z" />
    <glyph glyph-name="udieresis" unicode="&#xfc;" horiz-adv-x="807" 
d="M596 107l-10 2q-48 18 -81 29q-44 12 -62 22t-18 31q0 32 40 133q22 57 29 91l-37 -40q-160 -189 -236 -189q-20 0 -184 64q-34 14 -34 91q0 155 103 427q93 249 185 360q22 24 34 40q14 23 23 23q8 -1 29 -68q28 -72 28 -113q0 -28 -14 -52q-17 -32 -38 -133
q-2 -13 -8 -13q-2 0 -5.5 2t-6.5 2q-14 0 -103 -271q-34 -104 -34 -142q0 -17 10 -17q22 0 92 77q59 66 371 438q23 31 51 86l19 19q94 106 107 114q22 -1 51 -115q14 -60 14 -71q-1 -11 -14 -28q-54 -70 -143 -329q-81 -238 -100 -286q-14 -33 -14 -41q0 -3 2.5 -8t3.5 -38
q0 -14 -36 -82q-8 -15 -14 -15zM689 1187q-11 0 -14 20q-2 11 -4 104q0 22 9 36.5t23 30.5q5 6 9.5 11.5t7.5 5.5q2 0 8 -3q25 -15 80 -30q25 -6 25 -12q0 -4 -7 -11q-35 -41 -35 -55q0 -4 2 -6t4 -2.5t2 -1.5q0 -2 -4 -5q-45 -41 -69.5 -61.5t-36.5 -20.5zM462 1175
q-19 0 -19 24q0 32 40 126q17 40 27 58t20 18t39 -30q18 -20 49 -48q6 -5 6 -9q0 -3 -3 -6.5t-3.5 -10t-9 -8t-16.5 -13.5q-21 -35 -21 -50q0 -3 2 -5.5t2 -4.5q0 -7 -19 -14q-41 -17 -74 -23q-7 -4 -20 -4z" />
    <glyph glyph-name="yacute" unicode="&#xfd;" horiz-adv-x="487" 
d="M30 -10q-14 0 -116 25q-41 7 -56 13.5t-15 24.5q0 35 70 144q49 76 279 416q-3 21 -83 201.5t-120 234.5l-1 2q0 17 99 90q44 32 51 32q17 0 41 -39q30 -52 93 -209q41 -103 52 -114l34 47q127 184 221 259l48 36q51 43 64 43q8 0 10 -25q4 -31 27 -105q8 -22 8 -31
q0 -8 -5 -17q-8 -15 -14 -30q1 3 2.5 7t3 8.5t1.5 8.5t-3 4q-17 0 -134 -164q-162 -225 -505 -758q-3 -5 -3 -10q0 -8 5 -15.5t5 -18.5q0 -21 -39 -53q-7 -7 -20 -7zM310 1184q-4 1 -4 10q0 17 10 68q9 44 98 117q82 66 88 66q2 0 13 -11q29 -28 47 -49q16 -19 16 -30
q0 -6 -13 -15q-155 -122 -155 -142l1 -5q-1 -4 -101 -9z" />
    <glyph glyph-name="ydieresis" unicode="&#xff;" horiz-adv-x="487" 
d="M30 -10q-14 0 -116 25q-41 7 -56 13.5t-15 24.5q0 35 70 144q49 76 279 416q-3 21 -83 201.5t-120 234.5l-1 2q0 17 99 90q44 32 51 32q17 0 41 -39q30 -52 93 -209q41 -103 52 -114l34 47q127 184 221 259l48 36q51 43 64 43q8 0 10 -25q4 -31 27 -105q8 -22 8 -31
q0 -8 -5 -17q-8 -15 -14 -30q1 3 2.5 7t3 8.5t1.5 8.5t-3 4q-17 0 -134 -164q-162 -225 -505 -758q-3 -5 -3 -10q0 -8 5 -15.5t5 -18.5q0 -21 -39 -53q-7 -7 -20 -7zM492 1232q-11 0 -14 20q-2 11 -4 104q0 22 9 36.5t23 30.5q5 6 9.5 11.5t7.5 5.5q2 0 8 -3q25 -15 80 -30
q25 -6 25 -12q0 -4 -7 -11q-35 -41 -35 -55q0 -4 2 -6t4 -2.5t2 -1.5q0 -2 -4 -5q-45 -41 -69.5 -61.5t-36.5 -20.5zM265 1220q-19 0 -19 24q0 32 40 126q17 40 27 58t20 18t39 -30q18 -20 49 -48q6 -5 6 -9q0 -3 -3 -6.5t-3.5 -10t-9 -8t-16.5 -13.5q-21 -35 -21 -50
q0 -3 2 -5.5t2 -4.5q0 -7 -19 -14q-41 -17 -74 -23q-7 -4 -20 -4z" />
    <glyph glyph-name="dotlessi" unicode="&#x131;" horiz-adv-x="470" 
d="M-76 7q-9 0 -16 15q-32 88 -49 118q-12 20 -12 30q0 9 18 20q105 63 150 63q11 0 17 -3l2 1q0 104 255 623q4 6 4 15q-18 -9 -34 -13q-23 4 -44 4q-14 0 -18 1t-5 15l1 45l-1 41q0 44 5.5 64.5t33.5 31.5t124 32q107 26 135 26q21 0 52 -17q25 -17 108 -48q26 -8 27 -15
q0 -3 -6 -8q-56 -43 -84 -61q-23 -15 -39 -29t-33 -41q-24 -39 -179 -388q-113 -245 -113 -261q0 -11 28.5 -12t84.5 -20q15 -5 15 -13q0 -14 -89 -98q-37 -38 -42 -38q-2 0 -5 6q-6 10 -18 10q-16 0 -19 -10q-6 -19 -14 -19q-4 0 -11 9q-11 12 -21 12q-139 -24 -171 -61
q-25 -26 -37 -27z" />
    <glyph glyph-name="OE" unicode="&#x152;" horiz-adv-x="1268" 
d="M216 115q16 0 63 16t154 106q84 71 166 170l255 517q9 61 9 124q0 60 -9 97q-12 42 -26 42q-3 0 -7 -2q-103 -79 -185 -195.5t-128 -211.5q-42 -84 -42 -103q0 -7 6 -7q5 0 10 2.5t11 2.5q5 0 9 -10q17 -36 31 -63q35 -70 35 -90q0 -16 -25 -16q-32 3 -62 3q-33 0 -62 -4
q-23 -4 -43 -4q-25 0 -52 8t-46 67q-92 -224 -99 -408q1 -41 37 -41zM1117 -79q-18 0 -53 41q-13 15 -25 27q-22 19 -188 19q-160 0 -303 -31l-32 87q-124 -104 -214 -104l-41 2q-31 0 -52.5 -3t-45.5 -3q-20 0 -54 3t-68 39q-37 40 -37 143q0 89 40 243q52 191 165 432
q187 406 233 406q16 0 26 -53q15 -64 39 -73q4 8 63 84q146 189 263 223q14 4 26 4q50 0 83 -62q38 -78 59 -123l10 21l13 2q210 21 341 21q100 0 124 -13q45 -32 77 -52q64 -41 64 -56q0 -13 -29 -27q-99 -54 -122 -79q-13 -11 -18 -11t-8 23q-3 12 -52 12q-85 0 -220 -11
q-45 -3 -55 -3q-16 -5 -124 -200q-18 -65 -45 -133l39 1q15 -1 22 -7q62 -57 97 -76q34 -21 34 -27q0 -8 -19 -21q-38 -26 -131 -57q-53 -17 -63 -17q-5 0 -5 3l3 12q0 3 -5 5.5t-56 2.5q-69 -129 -152 -243q-41 -85 -41 -108q0 -17 15 -21q11 -3 29 -3q25 0 63 5
q96 12 174 12q136 0 202 -41q22 -15 22 -30q0 -13 -8 -37q-11 -28 -25 -90q-12 -58 -35 -58z" />
    <glyph glyph-name="oe" unicode="&#x153;" horiz-adv-x="1083" 
d="M403 212l-11 -11q-83 -79 -166.5 -121t-150.5 -42q-42 0 -74 17q-71 38 -71 157q0 90 33.5 211t89 247t123.5 233.5t139.5 175t134.5 67.5q32 0 60 -20q87 -60 133 -101q10 -9 18 -18q63 19 132 32q197 38 342 38q182 0 184 -49q-2 -23 -2 -45q1 -34 5 -60.5t4 -49.5
q0 -37 -27 -37q-35 0 -139 61q-6 4 -21 4q-22 0 -53 -3q-41 -4 -113 -8q-51 -2 -51 -19q0 -6 3.5 -16.5t3.5 -32.5q0 -16 -8 -39q-6 -17 -10 -18q-3 0 -7.5 3t-12.5 5q-5 0 -22 -25q-14 -20 -19 -29q0 -2 11 -2q25 3 38 3q22 0 32.5 -12.5t19.5 -35.5q18 -40 52 -84
q16 -21 16 -31t-34 -11l-18 1q-61 -1 -120.5 -2.5t-96 -19t-71 -78t-82.5 -185.5l-1 -4q2 -15 27 -15q18 0 29 6q150 94 202 124q37 21 53 21q15 0 16 -30q0 -79 6 -113l1 -14q0 -9 -6 -17q-13 -17 -141 -92q-85 -51 -129 -58q-22 0 -64 13t-86.5 37.5t-75.5 56.5
q-17 16 -25 35zM503 897q-30 19 -31 32q0 6 8 10q3 2 7 3q-5 9 -10 9l-3 -1q-36 -29 -36 -41q0 -7 14 -15q21 -13 21 -39q0 -11 -4 -15t-47 -15q-47 -10 -53 -13q-6 0 -20 -19q-21 -27 -21 -36q0 -7 4 -13.5t4 -9.5q-3 -6 -6 -6l-7 1q-11 0 -27 -22q-20 -26 -65 -116
q-117 -240 -117 -318q0 -31 19 -31q34 0 109 85t151 214.5t121 269.5q1 4 1 11q0 17 -6 48q-3 14 -6 27z" />
    <glyph glyph-name="Scaron" unicode="&#x160;" horiz-adv-x="961" 
d="M284 -255q-34 0 -65 7q-90 11 -179 42q-70 27 -70 99q0 48 30 103q22 41 62 75q112 94 116 94q5 0 8 -20q4 -31 45 -133l1 -6q0 -9 -9 -18q-12 -13 -33 -53q-5 -10 -5 -14q0 -7 49 -7q108 0 234 73q46 27 60 42q92 103 92 198q0 57 -31.5 92t-76.5 39q-488 35 -488 181
q0 56 43.5 128t111 149t142 148.5t139.5 128t101.5 87.5t93 75t123 87.5t131.5 73.5t116 30q32 0 53.5 -13.5t27.5 -35.5q0 -11 6 -17l29 31q57 68 119 110h17q17 -11 41.5 -15.5t50.5 -6.5t45.5 -6.5t19.5 -18.5q0 -13 -20 -36q-48 -56 -75.5 -87t-39.5 -43t-17 -12
q-3 0 -4.5 8.5t-5.5 12.5q-55 -55 -126 -152q-68 -93 -125 -194.5t-57 -158.5q0 -10 2.5 -12t8.5 -2q15 0 15 -7q0 -22 -80 -103q-48 -49 -63 -49q-35 0 -55 208q0 53 30 111.5t64 110.5q29 46 29 50t-10 6.5t-10 9.5q0 6 24 45q28 42 34 63q-53 -8 -201.5 -122t-299 -267
t-208.5 -278l-1 -6q0 -17 39.5 -23t100.5 -10q75 -4 158 -16t146 -46t79.5 -103.5t34.5 -108.5t21 -85q0 -66 -45 -132q-90 -133 -262 -229q-130 -72 -231 -72zM795 1459q-15 0 -19 11q-3 9 -3 27q0 45 10.5 119t33.5 122q1 3 3 3q3 0 10 -8q13 -17 49 -45q5 -4 5 -9
q1 -8 2.5 -12.5t1.5 -7.5t-2.5 -4.5t-4.5 -20.5q0 -1 1 -1q58 81 67 92q13 17 19 17q5 0 13 -11q3 -5 8 -10q23 -25 34 -30q8 -5 8 -7q0 -4 -12 -15q-18 -18 -75 -98q-28 -41 -38 -58q-7 -13 -11.5 -18.5t-10 -8.5t-27.5 -10q-46 -17 -62 -17z" />
    <glyph glyph-name="scaron" unicode="&#x161;" horiz-adv-x="600" 
d="M-237 -81q-15 0 -15 7q0 14 24 67l37 94q5 13 16 27.5t22 14.5q4 0 8.5 -4.5t17.5 -4.5q43 0 147.5 57t218 138.5t195.5 162.5q4 4 4 8q0 16 -47 27q-24 4 -141 4q-143 0 -197 16.5t-54 59.5q0 36 42 131l28 70q33 76 125.5 166t193.5 160q128 89 172 89q12 0 20.5 -7.5
t19.5 -19.5q15 -22 53 -53q51 -39 51 -51q0 -6 -4 -13q-25 -42 -71 -59.5t-90.5 -25.5t-64.5 -21q-116 -90 -184.5 -163t-68.5 -90q0 -5 5 -5q159 0 204 -2t64.5 -13t40.5 -36q24 -28 87 -82q32 -28 32 -65q0 -99 -210 -260q-231 -177 -416 -250q-192 -74 -265 -74z
M416 1209q-15 0 -19 11q-3 9 -3 27q0 45 10.5 119t33.5 122q1 3 3 3q3 0 10 -8q13 -17 49 -45q5 -4 5 -9q1 -8 2.5 -12.5t1.5 -7.5t-2.5 -4.5t-4.5 -20.5q0 -1 1 -1q58 81 67 92q13 17 19 17q5 0 13 -11q3 -5 8 -10q23 -25 34 -30q8 -5 8 -7q0 -4 -12 -15q-18 -18 -75 -98
q-28 -41 -38 -58q-7 -13 -11.5 -18.5t-10 -8.5t-27.5 -10q-46 -17 -62 -17z" />
    <glyph glyph-name="Ydieresis" unicode="&#x178;" horiz-adv-x="799" 
d="M95 -263q-31 0 -74.5 19.5t-77 43.5t-33.5 37q7 76 69 195t144 245t149 223q88 123 88 137q-22 78 -45 170q-36 149 -82.5 292t-116.5 232q-13 16 -13 37q5 59 8 105q2 37 4.5 52t9.5 15q9 0 27 -12q23 -16 70 -38q33 -13 61 -36t58 -84q61 -125 167 -541q0 -6 4 -11
q21 14 105 121q77 98 185.5 224t226 231t222.5 142l9 2q9 0 12 -9l4 -107q4 -26 4 -48q0 -36 -15 -36l-7 2q-49 0 -334 -334q-292 -345 -522 -680q-273 -400 -273 -539l1 -20q0 -30 -35 -30zM817 1543q-11 0 -14 20q-2 11 -4 104q0 22 9 36.5t23 30.5q5 6 9.5 11.5t7.5 5.5
q2 0 8 -3q25 -15 80 -30q25 -6 25 -12q0 -4 -7 -11q-35 -41 -35 -55q0 -4 2 -6t4 -2.5t2 -1.5q0 -2 -4 -5q-45 -41 -69.5 -61.5t-36.5 -20.5zM590 1531q-19 0 -19 24q0 32 40 126q17 40 27 58t20 18t39 -30q18 -20 49 -48q6 -5 6 -9q0 -3 -3 -6.5t-3.5 -10t-9 -8
t-16.5 -13.5q-21 -35 -21 -50q0 -3 2 -5.5t2 -4.5q0 -7 -19 -14q-41 -17 -74 -23q-7 -4 -20 -4z" />
    <glyph glyph-name="zcaron" unicode="&#x17e;" horiz-adv-x="768" 
d="M30 186q-42 0 -58.5 14.5t-32.5 53.5q-15 32 -31 52q-20 30 -20 43q0 22 35 56q56 54 391 283q1 0 2 1t124 85.5t127 88.5q-17 0 -205.5 -25.5t-208.5 -40.5q-5 -6 -9 -6t-7 9q-25 54 -47 87q-25 41 -25 55q0 25 66.5 36.5t247.5 29.5q100 10 242 26q124 14 202 14
q152 0 152 -53q0 -37 -67 -97.5t-180 -140t-255 -175.5q-148 -99 -308 -211q-10 -5 -20 -15q345 22 558 22q140 0 187 -18q8 -3 8 -7q0 -7 -54 -69q-43 -52 -57 -64.5t-38 -12.5q-27 3 -35 11q-2 2 -7 2q-437 -10 -566 -26q-72 -8 -111 -8zM475 1072q-15 0 -19 11
q-3 9 -3 27q0 45 10.5 119t33.5 122q1 3 3 3q3 0 10 -8q13 -17 49 -45q5 -4 5 -9q1 -8 2.5 -12.5t1.5 -7.5t-2.5 -4.5t-4.5 -20.5q0 -1 1 -1q58 81 67 92q13 17 19 17q5 0 13 -11q3 -5 8 -10q23 -25 34 -30q8 -5 8 -7q0 -4 -12 -15q-18 -18 -75 -98q-28 -41 -38 -58
q-7 -13 -11.5 -18.5t-10 -8.5t-27.5 -10q-46 -17 -62 -17z" />
    <glyph glyph-name="ring" unicode="&#x2da;" horiz-adv-x="551" 
d="M4 1551q12 0 29 7q33 16 33 26q0 8 -6 8q-49 -5 -54 -9q-11 -17 -11 -25q0 -7 9 -7zM-35 1449q-58 0 -58 66q0 59 45 135q17 30 40.5 44t62.5 18q11 2 20 2q19 0 30 -12t30 -46q8 -15 21 -36q11 -17 11 -43q0 -74 -91 -111q-7 -3 -20 -3q-21 0 -61 -10q-17 -4 -30 -4z
" />
    <glyph glyph-name="tilde" unicode="&#x2dc;" horiz-adv-x="1096" 
d="M119 1380q-10 2 -21 3.5t-19 10.5t-10 21l-5 100q-4 -15 -56 -37q-14 -10 -26 -19t-16 -11q-6 -5 -14 -5q-6 0 -16 2q-20 5 -43 5h-10q-25 0 -25 4l16 22q43 58 166 151q21 5 38 5t25 -7q12 -12 14 -55q0 -38 10 -54q6 -10 24 -10q49 11 82 62l14 -2q15 -4 58 -4
q36 0 36 -5q0 -2 -8 -12q-155 -152 -181 -158q-23 -7 -33 -7z" />
    <glyph glyph-name="gravecomb" unicode="&#x300;" horiz-adv-x="0" 
d="M-457 1426h-37q-43 0 -62.5 3.5t-30 16t-23.5 38.5q-17 43 -88 143l-2 5q0 3 2 5q80 93 84 93q2 0 6 -3q5 -5 10 -8q11 -5 14 -13q16 -38 56 -111q28 -52 52 -99t24 -64q0 -6 -5 -6z" />
    <glyph glyph-name="acutecomb" unicode="&#x301;" horiz-adv-x="0" 
d="M-666 1460q-4 1 -4 10q0 17 10 68q9 44 98 117q82 66 88 66q2 0 13 -11q29 -28 47 -49q16 -19 16 -30q0 -6 -13 -15q-155 -122 -155 -142l1 -5q-1 -4 -101 -9z" />
    <glyph glyph-name="uni0302" unicode="&#x302;" horiz-adv-x="694" 
d="M131 1413q-7 0 -18 3q-32 7 -68 7q-18 0 -23 2t-5 14q2 57 6 79q-3 0 -76 -61q-6 -6 -14 -6q-6 0 -15 2q-16 5 -55 7q-37 0 -37 6l13 21q42 66 68 81q4 2 68 55q113 98 124 98q6 0 11 -13l26 -95q4 -15 4 -35q0 -35 -6 -74q-4 -30 -4 -48q0 -8 1 -13q6 -17 6 -24
q0 -6 -6 -6z" />
    <glyph glyph-name="tildecomb" unicode="&#x303;" horiz-adv-x="0" 
d="M-499 1380q-10 2 -21 3.5t-19 10.5t-10 21l-5 100q-4 -15 -56 -37q-14 -10 -26 -19t-16 -11q-6 -5 -14 -5q-6 0 -16 2q-20 5 -43 5h-10q-25 0 -25 4l16 22q43 58 166 151q21 5 38 5t25 -7q12 -12 14 -55q0 -38 10 -54q6 -10 24 -10q49 11 82 62l14 -2q15 -4 58 -4
q36 0 36 -5q0 -2 -8 -12q-155 -152 -181 -158q-23 -7 -33 -7z" />
    <glyph glyph-name="uni0304" unicode="&#x304;" horiz-adv-x="0" 
d="M-493 1419q-66 0 -95.5 10.5t-54.5 28.5q-12 8 -27 16q-70 38 -70 51t108 49q56 21 68 21q28 -2 58 -2q44 0 142 8q264 26 311 26q37 0 48.5 -8t11.5 -26q0 -11 -2 -27q-4 -23 -4 -56l2 -52q0 -15 -12 -15q-6 0 -18 2q-23 5 -79 5q-43 0 -109 -7q-191 -24 -278 -24z" />
    <glyph glyph-name="uni0308" unicode="&#x308;" horiz-adv-x="0" 
d="M-524 1430q-11 0 -14 20q-2 11 -4 104q0 22 9 36.5t23 30.5q5 6 9.5 11.5t7.5 5.5q2 0 8 -3q25 -15 80 -30q25 -6 25 -12q0 -4 -7 -11q-35 -41 -35 -55q0 -4 2 -6t4 -2.5t2 -1.5q0 -2 -4 -5q-45 -41 -69.5 -61.5t-36.5 -20.5zM-751 1418q-19 0 -19 24q0 32 40 126
q17 40 27 58t20 18t39 -30q18 -20 49 -48q6 -5 6 -9q0 -3 -3 -6.5t-3.5 -10t-9 -8t-16.5 -13.5q-21 -35 -21 -50q0 -3 2 -5.5t2 -4.5q0 -7 -19 -14q-41 -17 -74 -23q-7 -4 -20 -4z" />
    <glyph glyph-name="uni030A" unicode="&#x30a;" horiz-adv-x="0" 
d="M-583 1551q12 0 29 7q33 16 33 26q0 8 -6 8q-49 -5 -54 -9q-11 -17 -11 -25q0 -7 9 -7zM-622 1449q-58 0 -58 66q0 59 45 135q17 30 40.5 44t62.5 18q11 2 20 2q19 0 30 -12t30 -46q8 -15 21 -36q11 -17 11 -43q0 -74 -91 -111q-7 -3 -20 -3q-21 0 -61 -10q-17 -4 -30 -4
z" />
    <glyph glyph-name="uni030C" unicode="&#x30c;" horiz-adv-x="717" 
d="M-32 1431q-15 0 -19 11q-3 9 -3 27q0 45 10.5 119t33.5 122q1 3 3 3q3 0 10 -8q13 -17 49 -45q5 -4 5 -9q1 -8 2.5 -12.5t1.5 -7.5t-2.5 -4.5t-4.5 -20.5q0 -1 1 -1q58 81 67 92q13 17 19 17q5 0 13 -11q3 -5 8 -10q23 -25 34 -30q8 -5 8 -7q0 -4 -12 -15
q-18 -18 -75 -98q-28 -41 -38 -58q-7 -13 -11.5 -18.5t-10 -8.5t-27.5 -10q-46 -17 -62 -17z" />
    <glyph glyph-name="uni0327" unicode="&#x327;" horiz-adv-x="0" 
d="M-466 -309q-24 0 -72 30q-51 29 -51 45q0 8 12 14q7 3 46 17q31 12 35 12t4 -4l-1 -1q2 -20 28 -20q17 0 40 10q48 21 48 63q0 11 -4 12q-55 -4 -92 -27q-12 -9 -19 -9q-2 0 -26 14q-29 14 -59 39q-2 1 -2 4q2 13 44 63q39 46 46 49l45 17q27 12 37 12q6 0 6 -7v-4
q-4 -19 -4 -42l1 -13q0 -4 9 -4q5 0 13 1t17 1q24 0 43 -10q31 -18 37 -40q4 -14 4 -32q0 -9 -1 -20q-2 -16 -2 -35v-13q0 -38 -19 -59q-27 -29 -97 -49q-41 -14 -66 -14z" />
    <glyph glyph-name="endash" unicode="&#x2013;" horiz-adv-x="1276" 
d="M456 492q-95 0 -137 10.5t-79 28.5q-17 8 -38 16q-100 37 -100 51q0 13 154 49q81 21 99 21q40 -2 83 -2q77 0 360 18q206 16 290 16q53 0 69.5 -8t16.5 -26q0 -12 -3 -27q-5 -22 -5 -61l3 -47q0 -15 -17 -15q-10 0 -27 2q-32 5 -113 5q-61 0 -156 -7q-274 -24 -400 -24z
" />
    <glyph glyph-name="emdash" unicode="&#x2014;" horiz-adv-x="1921" 
d="M669 492q-151 0 -219 10.5t-158 36.5q-190 46 -190 59q0 8 40 15.5t206 33.5q131 21 159 21q66 -2 133 -2q100 0 326 8q607 26 715 26q85 0 111.5 -8t26.5 -26q0 -12 -5 -27q-9 -22 -9 -54q2 -28 4 -37.5t2 -16.5q0 -15 -28 -15q-15 0 -43 2q-52 5 -181 5q-98 0 -249 -7
q-440 -24 -641 -24z" />
    <glyph glyph-name="quoteleft" unicode="&#x2018;" horiz-adv-x="653" 
d="M406 1012q-76 0 -88 76q-1 4 -1 17q0 17 2 49q5 17 6 49q11 135 51 196q139 205 187 205l7 -1q91 -58 117 -68q19 -9 19 -15q-21 -15 -90 -91q-95 -103 -120 -179v-1q0 -19 83 -62q60 -32 68 -44q0 -17 -47 -50.5t-108 -59.5q-47 -21 -86 -21z" />
    <glyph glyph-name="quoteright" unicode="&#x2019;" horiz-adv-x="714" 
d="M415 919h-8q-60 7 -99.5 9t-59.5 5.5t-20 14.5q0 13 28 43t92 92q18 18 22 18q3 0 5.5 -8t9.5 -8q4 0 11 3q18 9 34 34.5t26.5 53.5t10.5 42q0 9 -5 10q-37 0 -70 5q-80 10 -80 41q0 7 7 17q147 180 220 180q27 -2 39.5 -18.5t25.5 -53t46 -99.5q18 -34 18 -73
q0 -69 -43.5 -140.5t-103 -119.5t-106.5 -48z" />
    <glyph glyph-name="quotesinglbase" unicode="&#x201a;" horiz-adv-x="876" 
d="M415 -276h-8q-60 7 -99.5 9t-59.5 5.5t-20 14.5q0 13 28 43t92 92q18 18 22 18q3 0 5.5 -8t9.5 -8q4 0 11 3q18 9 34 34.5t26.5 53.5t10.5 42q0 9 -5 10q-37 0 -70 5q-80 10 -80 41q0 7 7 17q147 180 220 180q27 -2 39.5 -18.5t25.5 -53t46 -99.5q18 -34 18 -73
q0 -69 -43.5 -140.5t-103 -119.5t-106.5 -48z" />
    <glyph glyph-name="quotedblleft" unicode="&#x201c;" horiz-adv-x="916" 
d="M592 992h-9l-5 1q-49 6 -66 70l1 1q0 1 -1 1.5t-2 30.5q-100 -73 -176 -73l-18 1q-49 6 -65 70q-1 4 -2 66q4 20 4 50q1 35 11 119q4 33 29 79q13 23 50 78q90 135 131 135h3q94 -54 120 -62q20 -7 20 -13l-2 -3q-14 -12 -54.5 -57t-82 -104.5t-57.5 -116.5v-2
q0 -12 25 -26q49 -28 70 -34q4 112 39 174q129 213 180 213h3q94 -54 121 -61q20 -9 20 -14q-11 -9 -56 -60q-114 -128 -140 -221v-1q0 -20 86 -57l45 -22q26 -13 26 -21q0 -12 -41 -47t-102 -66q-57 -28 -105 -28z" />
    <glyph glyph-name="quotedblright" unicode="&#x201d;" horiz-adv-x="1031" 
d="M430 919h-5q-59 6 -100 9q-78 0 -78 21q0 1 2.5 13.5t116.5 120.5q18 17 23 17q2 0 4.5 -7.5t10.5 -7.5q4 0 10 3q31 15 57 78q15 37 15 52q0 10 -6 10q-94 0 -135 24q-15 9 -15 21q0 20 87 109t140 89q26 0 38.5 -17.5t24.5 -50.5t37 -83l3 4q129 151 197 151
q27 0 39 -17.5t25 -50.5q14 -39 47 -103q18 -37 18 -76q0 -43 -30.5 -112t-100 -131t-130.5 -62q-59 6 -100 9q-78 0 -78 21q0 1 2.5 13.5t116.5 120.5q18 17 23 17q2 0 4.5 -7.5t10.5 -7.5q4 0 10 3q30 15 57 78q15 34 15 52q0 10 -6 10q-61 0 -95 9l1 -17q0 -43 -21 -90
q-40 -91 -109.5 -153t-125.5 -62z" />
    <glyph glyph-name="quotedblbase" unicode="&#x201e;" horiz-adv-x="1031" 
d="M430 -276h-5q-59 6 -100 9q-78 0 -78 21q0 1 2.5 13.5t116.5 120.5q18 17 23 17q2 0 4.5 -7.5t10.5 -7.5q4 0 10 3q31 15 57 78q15 37 15 52q0 10 -6 10q-94 0 -135 24q-15 9 -15 21q0 20 87 109t140 89q26 0 38.5 -17.5t24.5 -50.5t37 -83l3 4q129 151 197 151
q27 0 39 -17.5t25 -50.5q14 -39 47 -103q18 -37 18 -76q0 -43 -30.5 -112t-100 -131t-130.5 -62q-59 6 -100 9q-78 0 -78 21q0 1 2.5 13.5t116.5 120.5q18 17 23 17q2 0 4.5 -7.5t10.5 -7.5q4 0 10 3q30 15 57 78q15 34 15 52q0 10 -6 10q-61 0 -95 9l1 -17q0 -43 -21 -90
q-40 -91 -109.5 -153t-125.5 -62z" />
    <glyph glyph-name="dagger" unicode="&#x2020;" horiz-adv-x="1110" 
d="M133 -339q-4 0 -5 22q-7 69 -7 111q0 47 13 96q28 110 328 811q53 122 53 133q0 4 -3 4l-10 -1q-34 0 -75 4q-105 10 -203 67q-72 40 -72 54q0 9 42 23q118 52 140 52q9 0 12 -9q4 -17 143 -17q95 0 102 15q29 81 44 126.5t23 64.5t18 19q11 0 41 -26q74 -53 95 -70
q13 -12 13 -23q0 -23 -16 -31q-9 -5 -12 -18t-5.5 -19t-2.5 -9q0 -2 5 -2q104 8 159 8q69 0 69 -11l-1 -49q0 -70 5 -97q0 -15 -2.5 -16t-8.5 -1q-283 0 -298 -25q-91 -238 -199 -485q-104 -238 -193 -469q-36 -100 -40 -123q-3 -10 -5 -16.5t-14 -9.5q-36 -15 -101 -63
q-25 -20 -32 -20z" />
    <glyph glyph-name="bullet" unicode="&#x2022;" horiz-adv-x="744" 
d="M214 325q-116 0 -116 132q0 116 88 268q35 60 82 88t124 37q23 3 40 3q39 0 61 -24.5t59 -91.5q17 -31 42 -72q21 -33 21 -84q0 -37 -16 -78q-36 -93 -164 -143q-16 -6 -41 -8q-42 0 -120 -19q-34 -8 -60 -8z" />
    <glyph glyph-name="ellipsis" unicode="&#x2026;" horiz-adv-x="1138" 
d="M115 120q-5 0 -5 12t-1 27q-2 30 -2 57q0 140 72 238q2 2 5 2q6 0 113 -88q28 -23 28 -30q0 -5 -8 -13q-26 -35 -50 -110q-2 -7 -5 -11t-21 -13q-23 -10 -112 -63q-10 -8 -14 -8zM488 125q-5 0 -5 12t-1 27q-2 30 -2 57q0 140 72 238q2 2 5 2q6 0 113 -88q28 -23 28 -30
q0 -5 -8 -13q-26 -35 -50 -110q-2 -7 -5 -11t-21 -13q-23 -10 -112 -63q-10 -8 -14 -8zM808 133q-5 0 -5 12t-1 27q-2 30 -2 57q0 140 72 238q2 2 5 2q6 0 113 -88q28 -23 28 -30q0 -5 -8 -13q-26 -35 -50 -110q-2 -7 -5 -11t-21 -13q-23 -10 -112 -63q-10 -8 -14 -8z" />
    <glyph glyph-name="Euro" unicode="&#x20ac;" horiz-adv-x="1133" 
d="M586 55q-62 0 -106.5 23.5t-81.5 50.5q-28 21 -56 36q-86 47 -97 118q-2 8 -10 8t-31 -4q-60 -10 -140 -10q-72 0 -72 13q3 10 62 103q19 30 31.5 38t31.5 8q57 0 111 9q14 0 17 23q2 17 15 68q0 16 -51 16l-45 -1q-37 0 -68.5 6.5t-31.5 32.5q0 44 -3 73.5t-5.5 46.5
t-2.5 26q0 13 10 13q11 0 30 -5q90 -18 209 -18q23 0 32 2t21 26q25 59 122 180q67 80 203 179q170 122 275 122q128 0 128 -190q0 -81 -25 -202q-7 -33 -24.5 -72t-39 -68t-40.5 -29q-6 0 -11 4q-76 53 -110 69q-25 13 -25 19q0 3 6 5q50 27 75 95.5t25 121.5q0 56 -22 56
q-57 -14 -128 -69q-65 -50 -109 -99q-2 -3 -5 -5q-52 -57 -76 -85.5t-24 -43.5q0 -11 12 -17.5t35 -14.5q44 -14 121 -60q22 -11 22 -19q0 -9 -68 -39q-33 -15 -84 -40q-13 0 -35 2q-38 6 -70 6q-29 0 -37 -10q-8 -20 -15 -33q-10 -18 -10 -27q0 -8 15 -8q19 0 64 7
q55 9 170 20q11 0 15.5 -5t10.5 -17q11 -26 61 -91q20 -23 20 -32q0 -6 -11 -7t-36 -2q-113 0 -270 -29q-5 0 -14 -3q13 -39 64.5 -62.5t110.5 -23.5q72 0 115 34l33 26q166 134 252 156q9 0 9 -6l-25 -146q-8 -35 -31 -52q-236 -197 -388 -197z" />
  </font>
</defs>
</svg>
