<?xml version="1.0" encoding="UTF-8"?><svg id="uuid-cc9e2633-39cf-4a44-af6c-264fe37592af" xmlns="http://www.w3.org/2000/svg" viewBox="0 0 131.1 63.74"><defs><style>.uuid-c5e06b76-f1af-4fde-a85a-18b89015d76e{font-family:Baskerville, Baskerville;}.uuid-c5e06b76-f1af-4fde-a85a-18b89015d76e,.uuid-f0b8e200-a0e5-45db-bd50-15688ac70ee0,.uuid-072fcc8c-8a27-489a-9545-10d310187319,.uuid-1bd4de18-e7ff-4ca5-880f-7a954e9f2af1,.uuid-e977a27e-92ce-4bd8-b467-3db8b1e6dc74,.uuid-e0cb4321-9f48-4b78-85f0-f4a9c0e40960,.uuid-b61e1c89-df5a-49e3-a131-a3a4d8b437eb,.uuid-394d16dc-c5a3-41e2-a75b-82f1e41526f6,.uuid-bdf19c7f-0ae8-4ffd-8903-123210089899,.uuid-4af186c5-6f24-4e9c-9d64-d1bdfb575003,.uuid-81c33aa2-17a9-402f-a00a-834160e477db,.uuid-73e03eff-6861-45b8-a81a-0f7fa9d24ef8{isolation:isolate;}.uuid-c5e06b76-f1af-4fde-a85a-18b89015d76e,.uuid-f0b8e200-a0e5-45db-bd50-15688ac70ee0,.uuid-e977a27e-92ce-4bd8-b467-3db8b1e6dc74,.uuid-e0cb4321-9f48-4b78-85f0-f4a9c0e40960,.uuid-b61e1c89-df5a-49e3-a131-a3a4d8b437eb,.uuid-394d16dc-c5a3-41e2-a75b-82f1e41526f6,.uuid-4af186c5-6f24-4e9c-9d64-d1bdfb575003,.uuid-81c33aa2-17a9-402f-a00a-834160e477db,.uuid-50a5ae42-c430-464e-a485-43cab5993575{fill:#231f20;}.uuid-c5e06b76-f1af-4fde-a85a-18b89015d76e,.uuid-e977a27e-92ce-4bd8-b467-3db8b1e6dc74{font-size:11.52px;}.uuid-f0b8e200-a0e5-45db-bd50-15688ac70ee0,.uuid-e977a27e-92ce-4bd8-b467-3db8b1e6dc74{font-family:aAnotherTag, 'a Another Tag';}.uuid-f0b8e200-a0e5-45db-bd50-15688ac70ee0,.uuid-4af186c5-6f24-4e9c-9d64-d1bdfb575003{font-size:12.12px;}.uuid-072fcc8c-8a27-489a-9545-10d310187319{font-family:ArialMT, Arial;}.uuid-072fcc8c-8a27-489a-9545-10d310187319,.uuid-1bd4de18-e7ff-4ca5-880f-7a954e9f2af1,.uuid-bdf19c7f-0ae8-4ffd-8903-123210089899{font-size:12px;}.uuid-072fcc8c-8a27-489a-9545-10d310187319,.uuid-1bd4de18-e7ff-4ca5-880f-7a954e9f2af1,.uuid-bdf19c7f-0ae8-4ffd-8903-123210089899,.uuid-73e03eff-6861-45b8-a81a-0f7fa9d24ef8,.uuid-95d41935-ee12-48c8-a622-d4bb103a5263{fill:#fff;}.uuid-1bd4de18-e7ff-4ca5-880f-7a954e9f2af1,.uuid-394d16dc-c5a3-41e2-a75b-82f1e41526f6{font-family:MenoBanner-Regular, 'Meno Banner';}.uuid-e0cb4321-9f48-4b78-85f0-f4a9c0e40960{font-family:Glitten-Regular, Glitten;}.uuid-e0cb4321-9f48-4b78-85f0-f4a9c0e40960,.uuid-394d16dc-c5a3-41e2-a75b-82f1e41526f6,.uuid-73e03eff-6861-45b8-a81a-0f7fa9d24ef8{font-size:9.22px;}.uuid-b61e1c89-df5a-49e3-a131-a3a4d8b437eb{font-size:8.18px;}.uuid-b61e1c89-df5a-49e3-a131-a3a4d8b437eb,.uuid-bdf19c7f-0ae8-4ffd-8903-123210089899,.uuid-81c33aa2-17a9-402f-a00a-834160e477db{font-family:Lobster-Regular, Lobster;}.uuid-4af186c5-6f24-4e9c-9d64-d1bdfb575003{font-family:BPreplay, BPreplay;}.uuid-81c33aa2-17a9-402f-a00a-834160e477db{font-size:9.37px;}.uuid-73e03eff-6861-45b8-a81a-0f7fa9d24ef8{font-family:Australia, Australia;}.uuid-50a5ae42-c430-464e-a485-43cab5993575,.uuid-95d41935-ee12-48c8-a622-d4bb103a5263{stroke-width:0px;}</style></defs><g id="uuid-09186b36-a3ed-4789-8120-a3d2799dc10a"><polygon class="uuid-50a5ae42-c430-464e-a485-43cab5993575" points="10 24.8 0 26.3 .5 8.2 11.8 8.2 10 24.8"/><polygon class="uuid-50a5ae42-c430-464e-a485-43cab5993575" points="14.9 1.7 27.3 0 27.4 21.6 13.8 19.1 14.9 1.7"/><polygon class="uuid-50a5ae42-c430-464e-a485-43cab5993575" points="29.4 12.1 40.7 8.4 40.1 25.2 29.4 25.2 29.4 12.1"/><polygon class="uuid-50a5ae42-c430-464e-a485-43cab5993575" points="117.1 46.6 128.2 48.5 127.8 59.7 117.1 59.7 117.1 46.6"/><polygon class="uuid-50a5ae42-c430-464e-a485-43cab5993575" points="38.6 46.8 47.7 43.6 47.2 58.2 38.6 58.1 38.6 46.8"/><polygon class="uuid-50a5ae42-c430-464e-a485-43cab5993575" points="77.3 37.5 88.5 37.5 88 52.1 79.4 52 77.3 37.5"/><polygon class="uuid-50a5ae42-c430-464e-a485-43cab5993575" points="2.2 41.3 12 42.1 11.6 56.7 3 56.7 2.2 41.3"/><polygon class="uuid-50a5ae42-c430-464e-a485-43cab5993575" points="42.8 2.4 56.3 3 55.7 19.2 45 19.2 42.8 2.4"/><polygon class="uuid-50a5ae42-c430-464e-a485-43cab5993575" points="56.3 10.8 69.5 9 68.9 25.2 58.2 25.2 56.3 10.8"/><polygon class="uuid-95d41935-ee12-48c8-a622-d4bb103a5263" points="71.7 2.7 84.9 .8 84.3 17.1 73.6 17 71.7 2.7"/><polygon class="uuid-95d41935-ee12-48c8-a622-d4bb103a5263" points="54.5 46.2 64.2 44.8 63.8 57.2 55.9 57.2 54.5 46.2"/><polygon class="uuid-95d41935-ee12-48c8-a622-d4bb103a5263" points="14.6 45.2 25.1 43.6 24.7 57.7 16.1 57.6 14.6 45.2"/><polygon class="uuid-95d41935-ee12-48c8-a622-d4bb103a5263" points="27 42.9 37.6 41.3 37.1 55.4 28.6 55.3 27 42.9"/><polygon class="uuid-95d41935-ee12-48c8-a622-d4bb103a5263" points="88.3 7.2 100.9 9.3 100.3 25.5 87.8 26.1 88.3 7.2"/><polygon class="uuid-95d41935-ee12-48c8-a622-d4bb103a5263" points="101.1 42.6 114 41.3 115.5 59.7 102.6 55.1 101.1 42.6"/><polygon class="uuid-95d41935-ee12-48c8-a622-d4bb103a5263" points="90.2 45.6 98.1 47.8 101.1 59.7 89.8 60.7 90.2 45.6"/><polygon class="uuid-95d41935-ee12-48c8-a622-d4bb103a5263" points="66.1 47.8 75.3 49.5 74.9 61.9 65.7 62.3 66.1 47.8"/><polygon class="uuid-95d41935-ee12-48c8-a622-d4bb103a5263" points="104.3 4.5 116.9 4.2 116.4 20.5 103.8 21 104.3 4.5"/><polygon class="uuid-95d41935-ee12-48c8-a622-d4bb103a5263" points="119.1 11.1 130.7 12.6 131.1 27.1 118.6 27.6 119.1 11.1"/></g><g id="uuid-d6b492f1-5c06-4df3-b359-ac3c4a51c67f"><text class="uuid-072fcc8c-8a27-489a-9545-10d310187319" transform="translate(2.24 21.64)"><tspan x="0" y="0">V</tspan></text><text class="uuid-072fcc8c-8a27-489a-9545-10d310187319" transform="translate(3.48 53.43)"><tspan x="0" y="0">B</tspan></text><text class="uuid-1bd4de18-e7ff-4ca5-880f-7a954e9f2af1" transform="translate(16.33 14.63)"><tspan x="0" y="0">A</tspan></text><text class="uuid-1bd4de18-e7ff-4ca5-880f-7a954e9f2af1" transform="translate(79.42 49.02)"><tspan x="0" y="0">R</tspan></text><text class="uuid-1bd4de18-e7ff-4ca5-880f-7a954e9f2af1" transform="translate(31.6 21.64)"><tspan x="0" y="0">L</tspan></text><text class="uuid-73e03eff-6861-45b8-a81a-0f7fa9d24ef8" transform="translate(60.22 22.5)"><tspan x="0" y="0">N</tspan></text><text class="uuid-73e03eff-6861-45b8-a81a-0f7fa9d24ef8" transform="translate(39.7 55.39)"><tspan x="0" y="0">N</tspan></text><text class="uuid-e0cb4321-9f48-4b78-85f0-f4a9c0e40960" transform="translate(75.32 13.29)"><tspan x="0" y="0">T</tspan></text><text class="uuid-394d16dc-c5a3-41e2-a75b-82f1e41526f6" transform="translate(16.4 54.43)"><tspan x="0" y="0">O</tspan></text><text class="uuid-4af186c5-6f24-4e9c-9d64-d1bdfb575003" transform="translate(93.03 22.5) scale(1.36 1)"><tspan x="0" y="0">i</tspan></text><text class="uuid-4af186c5-6f24-4e9c-9d64-d1bdfb575003" transform="translate(58.46 56.3) scale(1.36 1)"><tspan x="0" y="0">i</tspan></text><text class="uuid-f0b8e200-a0e5-45db-bd50-15688ac70ee0" transform="translate(29.38 52.08) scale(.91 1)"><tspan x="0" y="0">r</tspan></text><text class="uuid-81c33aa2-17a9-402f-a00a-834160e477db" transform="translate(105.44 16.63) scale(1.36 1)"><tspan x="0" y="0">N</tspan></text><text class="uuid-b61e1c89-df5a-49e3-a131-a3a4d8b437eb" transform="translate(66.53 59.73) scale(1.25 1)"><tspan x="0" y="0">N</tspan></text><text class="uuid-e977a27e-92ce-4bd8-b467-3db8b1e6dc74" transform="translate(122.72 22.68) scale(1.27 1)"><tspan x="0" y="0">O</tspan></text><text class="uuid-e977a27e-92ce-4bd8-b467-3db8b1e6dc74" transform="translate(92.34 58.16) scale(1.27 1)"><tspan x="0" y="0">O</tspan></text><text class="uuid-c5e06b76-f1af-4fde-a85a-18b89015d76e" transform="translate(103.84 53.56) scale(.89 1)"><tspan x="0" y="0">M</tspan></text><text class="uuid-bdf19c7f-0ae8-4ffd-8903-123210089899" transform="translate(48.19 14.2)"><tspan x="0" y="0">e</tspan></text><text class="uuid-bdf19c7f-0ae8-4ffd-8903-123210089899" transform="translate(119.72 56.3)"><tspan x="0" y="0">a</tspan></text></g></svg>